Yantramanav-Light.ufo
<glyph name="exclam" format="1">
  <advance width="587"/>
  <unicode hex="0021"/>
  <outline>
    <contour>
      <point x="335" y="430" type="line"/>
      <point x="231" y="430" type="line"/>
      <point x="231" y="1310" type="line"/>
      <point x="335" y="1310" type="line"/>
    </contour>
    <contour>
      <point x="346" y="0" type="line"/>
      <point x="221" y="0" type="line"/>
      <point x="221" y="148" type="line"/>
      <point x="346" y="148" type="line"/>
    </contour>
  </outline>
</glyph>
<glyph name="quotedbl" format="1">
  <advance width="727"/>
  <unicode hex="0022"/>
  <outline>
    <contour>
      <point x="322" y="1214" type="line"/>
      <point x="258" y="979" type="line"/>
      <point x="195" y="979" type="line"/>
      <point x="218" y="1209" type="line"/>
      <point x="218" y="1404" type="line"/>
      <point x="322" y="1404" type="line"/>
    </contour>
    <contour>
      <point x="534" y="1214" type="line"/>
      <point x="469" y="979" type="line"/>
      <point x="407" y="979" type="line"/>
      <point x="431" y="1212" type="line"/>
      <point x="431" y="1404" type="line"/>
      <point x="534" y="1404" type="line"/>
    </contour>
  </outline>
</glyph>
<glyph name="numbersign" format="1">
  <advance width="1143.0"/>
  <unicode hex="0023"/>
  <outline>
    <contour>
      <point x="662" y="369" type="line"/>
      <point x="380" y="369" type="line"/>
      <point x="311" y="0" type="line"/>
      <point x="221" y="0" type="line"/>
      <point x="290" y="369" type="line"/>
      <point x="60" y="369" type="line"/>
      <point x="60" y="453" type="line"/>
      <point x="305" y="453" type="line"/>
      <point x="380" y="850" type="line"/>
      <point x="129" y="850" type="line"/>
      <point x="129" y="936" type="line"/>
      <point x="396" y="936" type="line"/>
      <point x="467" y="1310" type="line"/>
      <point x="557" y="1310" type="line"/>
      <point x="486" y="936" type="line"/>
      <point x="769" y="936" type="line"/>
      <point x="840" y="1310" type="line"/>
      <point x="930" y="1310" type="line"/>
      <point x="859" y="936" type="line"/>
      <point x="1065" y="936" type="line"/>
      <point x="1065" y="850" type="line"/>
      <point x="842" y="850" type="line"/>
      <point x="768" y="453" type="line"/>
      <point x="997" y="453" type="line"/>
      <point x="997" y="369" type="line"/>
      <point x="752" y="369" type="line"/>
      <point x="682" y="0" type="line"/>
      <point x="592" y="0" type="line"/>
    </contour>
    <contour>
      <point x="395" y="453" type="line"/>
      <point x="678" y="453" type="line"/>
      <point x="752" y="850" type="line"/>
      <point x="470" y="850" type="line"/>
    </contour>
  </outline>
</glyph>
<glyph name="dollar" format="1">
  <advance width="1022"/>
  <unicode hex="0024"/>
  <outline>
    <contour>
      <point x="811" y="302" type="qcurve" smooth="yes"/>
      <point x="811" y="401"/>
      <point x="681" y="527"/>
      <point x="518" y="586" type="qcurve" smooth="yes"/>
      <point x="330" y="645"/>
      <point x="150" y="813"/>
      <point x="150" y="965" type="qcurve" smooth="yes"/>
      <point x="150" y="1111"/>
      <point x="330" y="1294"/>
      <point x="485" y="1307" type="qcurve"/>
      <point x="485" y="1489" type="line"/>
      <point x="577" y="1489" type="line"/>
      <point x="577" y="1307" type="line"/>
      <point x="734" y="1292"/>
      <point x="907" y="1085"/>
      <point x="905" y="909" type="qcurve"/>
      <point x="903" y="904" type="line"/>
      <point x="802" y="904" type="line"/>
      <point x="802" y="1041"/>
      <point x="658" y="1212"/>
      <point x="528" y="1212" type="qcurve" smooth="yes"/>
      <point x="395" y="1212"/>
      <point x="257" y="1073"/>
      <point x="257" y="967" type="qcurve" smooth="yes"/>
      <point x="257" y="864"/>
      <point x="380" y="739"/>
      <point x="554" y="681" type="qcurve" smooth="yes"/>
      <point x="740" y="619"/>
      <point x="919" y="454"/>
      <point x="919" y="304" type="qcurve" smooth="yes"/>
      <point x="919" y="155"/>
      <point x="732" y="-24"/>
      <point x="573" y="-37" type="qcurve"/>
      <point x="573" y="-208" type="line"/>
      <point x="482" y="-208" type="line"/>
      <point x="482" y="-38" type="line"/>
      <point x="320" y="-28"/>
      <point x="104" y="160"/>
      <point x="108" y="350" type="qcurve"/>
      <point x="111" y="355" type="line"/>
      <point x="212" y="355" type="line"/>
      <point x="212" y="196"/>
      <point x="393" y="56"/>
      <point x="522" y="56" type="qcurve" smooth="yes"/>
      <point x="655" y="56"/>
      <point x="811" y="195"/>
    </contour>
  </outline>
</glyph>
<glyph name="percent" format="1">
  <advance width="1363"/>
  <unicode hex="0025"/>
  <outline>
    <contour>
      <point x="99" y="1056" type="line" smooth="yes"/>
      <point x="99" y="1171"/>
      <point x="240" y="1327"/>
      <point x="356" y="1327" type="qcurve" smooth="yes"/>
      <point x="470" y="1327"/>
      <point x="611" y="1171"/>
      <point x="611" y="1056" type="qcurve" smooth="yes"/>
      <point x="611" y="987" type="line" smooth="yes"/>
      <point x="611" y="874"/>
      <point x="471" y="718"/>
      <point x="357" y="718" type="qcurve" smooth="yes"/>
      <point x="241" y="718"/>
      <point x="99" y="874"/>
      <point x="99" y="987" type="qcurve" smooth="yes"/>
    </contour>
    <contour>
      <point x="185" y="987" type="line" smooth="yes"/>
      <point x="185" y="908"/>
      <point x="275" y="796"/>
      <point x="357" y="796" type="qcurve" smooth="yes"/>
      <point x="437" y="796"/>
      <point x="525" y="908"/>
      <point x="525" y="987" type="qcurve" smooth="yes"/>
      <point x="525" y="1056" type="line" smooth="yes"/>
      <point x="525" y="1136"/>
      <point x="437" y="1249"/>
      <point x="356" y="1249" type="qcurve" smooth="yes"/>
      <point x="275" y="1249"/>
      <point x="185" y="1136"/>
      <point x="185" y="1056" type="qcurve" smooth="yes"/>
    </contour>
    <contour>
      <point x="758" y="318" type="line" smooth="yes"/>
      <point x="758" y="432"/>
      <point x="899" y="588"/>
      <point x="1014" y="588" type="qcurve" smooth="yes"/>
      <point x="1129" y="588"/>
      <point x="1271" y="432"/>
      <point x="1271" y="318" type="qcurve" smooth="yes"/>
      <point x="1271" y="248" type="line" smooth="yes"/>
      <point x="1271" y="135"/>
      <point x="1130" y="-21"/>
      <point x="1016" y="-21" type="qcurve" smooth="yes"/>
      <point x="900" y="-21"/>
      <point x="758" y="135"/>
      <point x="758" y="248" type="qcurve" smooth="yes"/>
    </contour>
    <contour>
      <point x="845" y="248" type="line" smooth="yes"/>
      <point x="845" y="169"/>
      <point x="933" y="57"/>
      <point x="1016" y="57" type="qcurve" smooth="yes"/>
      <point x="1096" y="57"/>
      <point x="1184" y="169"/>
      <point x="1184" y="248" type="qcurve" smooth="yes"/>
      <point x="1184" y="318" type="line" smooth="yes"/>
      <point x="1184" y="400"/>
      <point x="1095" y="510"/>
      <point x="1014" y="510" type="qcurve" smooth="yes"/>
      <point x="933" y="510"/>
      <point x="845" y="399"/>
      <point x="845" y="318" type="qcurve" smooth="yes"/>
    </contour>
    <contour>
      <point x="414" y="107" type="line"/>
      <point x="347" y="150" type="line"/>
      <point x="987" y="1174" type="line"/>
      <point x="1054" y="1131" type="line"/>
    </contour>
  </outline>
</glyph>
<glyph name="ampersand" format="1">
  <advance width="1134.0"/>
  <unicode hex="0026"/>
  <outline>
    <contour>
      <point x="349" y="713" type="line"/>
      <point x="276" y="803"/>
      <point x="206" y="952"/>
      <point x="206" y="1030" type="qcurve" smooth="yes"/>
      <point x="206" y="1172"/>
      <point x="366" y="1327"/>
      <point x="506" y="1327" type="qcurve" smooth="yes"/>
      <point x="635" y="1327"/>
      <point x="788" y="1181"/>
      <point x="788" y="1071" type="qcurve" smooth="yes"/>
      <point x="788" y="990"/>
      <point x="707" y="873"/>
      <point x="630" y="814" type="qcurve" smooth="yes"/>
      <point x="487" y="704" type="line"/>
      <point x="858" y="272" type="line"/>
      <point x="902" y="335"/>
      <point x="950" y="494"/>
      <point x="950" y="584" type="qcurve"/>
      <point x="1049" y="584" type="line"/>
      <point x="1049" y="469"/>
      <point x="984" y="275"/>
      <point x="922" y="197" type="qcurve"/>
      <point x="1088" y="2" type="line"/>
      <point x="1086" y="-2" type="line"/>
      <point x="963" y="-2" type="line"/>
      <point x="853" y="125" type="line"/>
      <point x="777" y="55"/>
      <point x="595" y="-21"/>
      <point x="490" y="-21" type="qcurve" smooth="yes"/>
      <point x="302" y="-21"/>
      <point x="82" y="172"/>
      <point x="82" y="332" type="qcurve" smooth="yes"/>
      <point x="82" y="440"/>
      <point x="212" y="614"/>
      <point x="336" y="704" type="qcurve" smooth="yes"/>
    </contour>
    <contour>
      <point x="490" y="70" type="qcurve" smooth="yes"/>
      <point x="572" y="70"/>
      <point x="730" y="135"/>
      <point x="793" y="195" type="qcurve"/>
      <point x="420" y="629" type="line"/>
      <point x="416" y="633"/>
      <point x="410" y="640"/>
      <point x="408" y="643" type="qcurve"/>
      <point x="365" y="611" type="line" smooth="yes"/>
      <point x="261" y="526"/>
      <point x="190" y="389"/>
      <point x="190" y="332" type="qcurve" smooth="yes"/>
      <point x="190" y="220"/>
      <point x="344" y="70"/>
    </contour>
    <contour>
      <point x="314" y="1032" type="qcurve" smooth="yes"/>
      <point x="314" y="973"/>
      <point x="371" y="845"/>
      <point x="429" y="773" type="qcurve"/>
      <point x="589" y="892" type="line" smooth="yes"/>
      <point x="641" y="932"/>
      <point x="685" y="1020"/>
      <point x="685" y="1071" type="qcurve" smooth="yes"/>
      <point x="685" y="1142"/>
      <point x="590" y="1235"/>
      <point x="506" y="1235" type="qcurve" smooth="yes"/>
      <point x="414" y="1235"/>
      <point x="314" y="1118"/>
    </contour>
  </outline>
</glyph>
<glyph name="quotesingle" format="1">
  <advance width="516"/>
  <unicode hex="0027"/>
  <outline>
    <contour>
      <point x="322" y="1231" type="line"/>
      <point x="258" y="984" type="line"/>
      <point x="195" y="984" type="line"/>
      <point x="218" y="1224" type="line"/>
      <point x="218" y="1404" type="line"/>
      <point x="322" y="1404" type="line"/>
    </contour>
  </outline>
</glyph>
<glyph name="asterisk" format="1">
  <advance width="782"/>
  <unicode hex="002A"/>
  <outline>
    <contour>
      <point x="325" y="964" type="line"/>
      <point x="26" y="1061" type="line"/>
      <point x="55" y="1152" type="line"/>
      <point x="354" y="1041" type="line"/>
      <point x="350" y="1374" type="line"/>
      <point x="444" y="1374" type="line"/>
      <point x="437" y="1038" type="line"/>
      <point x="728" y="1153" type="line"/>
      <point x="758" y="1062" type="line"/>
      <point x="458" y="958" type="line"/>
      <point x="659" y="694" type="line"/>
      <point x="582" y="637" type="line"/>
      <point x="390" y="912" type="line"/>
      <point x="206" y="639" type="line"/>
      <point x="130" y="694" type="line"/>
    </contour>
  </outline>
</glyph>
<glyph name="plus" format="1">
  <advance width="1040"/>
  <unicode hex="002B"/>
  <outline>
    <contour>
      <point x="567" y="681" type="line"/>
      <point x="966" y="681" type="line"/>
      <point x="966" y="580" type="line"/>
      <point x="567" y="580" type="line"/>
      <point x="567" y="146" type="line"/>
      <point x="458" y="146" type="line"/>
      <point x="458" y="580" type="line"/>
      <point x="68" y="580" type="line"/>
      <point x="68" y="681" type="line"/>
      <point x="458" y="681" type="line"/>
      <point x="458" y="1100" type="line"/>
      <point x="567" y="1100" type="line"/>
    </contour>
  </outline>
</glyph>
<glyph name="comma" format="1">
  <advance width="353"/>
  <unicode hex="002C"/>
  <outline>
    <contour>
      <point x="244" y="-10" type="line"/>
      <point x="149" y="-258" type="line"/>
      <point x="75" y="-258" type="line"/>
      <point x="137" y="-7" type="line"/>
      <point x="137" y="143" type="line"/>
      <point x="244" y="143" type="line"/>
    </contour>
  </outline>
</glyph>
<glyph name="hyphen" format="1">
  <advance width="527"/>
  <unicode hex="002D"/>
  <outline>
    <contour>
      <point x="475" y="570" type="line"/>
      <point x="44" y="570" type="line"/>
      <point x="44" y="661" type="line"/>
      <point x="475" y="661" type="line"/>
    </contour>
  </outline>
</glyph>
<glyph name="period" format="1">
  <advance width="440"/>
  <unicode hex="002E"/>
  <outline>
    <contour>
      <point x="274" y="0" type="line"/>
      <point x="150" y="0" type="line"/>
      <point x="150" y="148" type="line"/>
      <point x="274" y="148" type="line"/>
    </contour>
  </outline>
</glyph>
<glyph name="slash" format="1">
  <advance width="732"/>
  <unicode hex="002F"/>
  <outline>
    <contour>
      <point x="125" y="-125" type="line"/>
      <point x="27" y="-125" type="line"/>
      <point x="574" y="1298" type="line"/>
      <point x="671" y="1298" type="line"/>
    </contour>
  </outline>
</glyph>
<glyph name="zero" format="1">
  <advance width="1075"/>
  <unicode hex="0030"/>
  <outline>
    <contour>
      <point x="953" y="506" type="line" smooth="yes"/>
      <point x="953" y="253"/>
      <point x="734" y="-21"/>
      <point x="538" y="-21" type="qcurve" smooth="yes"/>
      <point x="344" y="-21"/>
      <point x="122" y="254"/>
      <point x="122" y="506" type="qcurve" smooth="yes"/>
      <point x="122" y="799" type="line" smooth="yes"/>
      <point x="122" y="1052"/>
      <point x="341" y="1327"/>
      <point x="536" y="1327" type="qcurve" smooth="yes"/>
      <point x="732" y="1327"/>
      <point x="953" y="1052"/>
      <point x="953" y="799" type="qcurve" smooth="yes"/>
    </contour>
    <contour>
      <point x="845" y="817" type="line" smooth="yes"/>
      <point x="845" y="1019"/>
      <point x="687" y="1235"/>
      <point x="536" y="1235" type="qcurve" smooth="yes"/>
      <point x="386" y="1235"/>
      <point x="230" y="1019"/>
      <point x="230" y="817" type="qcurve" smooth="yes"/>
      <point x="230" y="490" type="line" smooth="yes"/>
      <point x="230" y="290"/>
      <point x="389" y="70"/>
      <point x="538" y="70" type="qcurve" smooth="yes"/>
      <point x="688" y="70"/>
      <point x="845" y="290"/>
      <point x="845" y="490" type="qcurve" smooth="yes"/>
    </contour>
  </outline>
</glyph>
<glyph name="one" format="1">
  <advance width="1022"/>
  <unicode hex="0031"/>
  <outline>
    <contour>
      <point x="610" y="-7" type="line"/>
      <point x="502" y="-7" type="line"/>
      <point x="502" y="1197" type="line"/>
      <point x="169" y="1159" type="line"/>
      <point x="169" y="1234" type="line"/>
      <point x="610" y="1313" type="line"/>
    </contour>
  </outline>
</glyph>
<glyph name="two" format="1">
  <advance width="1021"/>
  <unicode hex="0032"/>
  <outline>
    <contour>
      <point x="937" y="0" type="line"/>
      <point x="123" y="0" type="line"/>
      <point x="123" y="83" type="line"/>
      <point x="553" y="570" type="line" smooth="yes"/>
      <point x="671" y="704"/>
      <point x="770" y="885"/>
      <point x="770" y="968" type="qcurve" smooth="yes"/>
      <point x="770" y="1090"/>
      <point x="632" y="1238"/>
      <point x="506" y="1238" type="qcurve" smooth="yes"/>
      <point x="356" y="1238"/>
      <point x="202" y="1072"/>
      <point x="202" y="933" type="qcurve"/>
      <point x="102" y="933" type="line"/>
      <point x="100" y="939" type="line"/>
      <point x="95" y="1103"/>
      <point x="317" y="1329"/>
      <point x="506" y="1329" type="qcurve" smooth="yes"/>
      <point x="675" y="1329"/>
      <point x="878" y="1135"/>
      <point x="878" y="971" type="qcurve" smooth="yes"/>
      <point x="878" y="863"/>
      <point x="743" y="641"/>
      <point x="621" y="504" type="qcurve" smooth="yes"/>
      <point x="260" y="95" type="line"/>
      <point x="262" y="91" type="line"/>
      <point x="937" y="91" type="line"/>
    </contour>
  </outline>
</glyph>
<glyph name="three" format="1">
  <advance width="1021"/>
  <unicode hex="0033"/>
  <outline>
    <contour>
      <point x="363" y="712" type="line"/>
      <point x="488" y="712" type="line" smooth="yes"/>
      <point x="631" y="712"/>
      <point x="779" y="855"/>
      <point x="779" y="967" type="qcurve" smooth="yes"/>
      <point x="779" y="1090"/>
      <point x="640" y="1235"/>
      <point x="503" y="1235" type="qcurve" smooth="yes"/>
      <point x="377" y="1235"/>
      <point x="216" y="1087"/>
      <point x="216" y="965" type="qcurve"/>
      <point x="115" y="965" type="line"/>
      <point x="113" y="971" type="line"/>
      <point x="109" y="1124"/>
      <point x="332" y="1327"/>
      <point x="503" y="1327" type="qcurve" smooth="yes"/>
      <point x="679" y="1327"/>
      <point x="887" y="1135"/>
      <point x="887" y="964" type="qcurve" smooth="yes"/>
      <point x="887" y="871"/>
      <point x="771" y="708"/>
      <point x="667" y="668" type="qcurve"/>
      <point x="789" y="633"/>
      <point x="911" y="467"/>
      <point x="911" y="353" type="qcurve" smooth="yes"/>
      <point x="911" y="179"/>
      <point x="685" y="-21"/>
      <point x="508" y="-21" type="qcurve" smooth="yes"/>
      <point x="336" y="-21"/>
      <point x="89" y="174"/>
      <point x="94" y="348" type="qcurve"/>
      <point x="95" y="353" type="line"/>
      <point x="196" y="353" type="line"/>
      <point x="196" y="228"/>
      <point x="370" y="70"/>
      <point x="508" y="70" type="qcurve" smooth="yes"/>
      <point x="647" y="70"/>
      <point x="804" y="215"/>
      <point x="804" y="350" type="qcurve" smooth="yes"/>
      <point x="804" y="488"/>
      <point x="640" y="620"/>
      <point x="488" y="620" type="qcurve" smooth="yes"/>
      <point x="363" y="620" type="line"/>
    </contour>
  </outline>
</glyph>
<glyph name="four" format="1">
  <advance width="1022"/>
  <unicode hex="0034"/>
  <outline>
    <contour>
      <point x="784" y="422" type="line"/>
      <point x="989" y="422" type="line"/>
      <point x="989" y="331" type="line"/>
      <point x="784" y="331" type="line"/>
      <point x="784" y="0" type="line"/>
      <point x="677" y="0" type="line"/>
      <point x="677" y="331" type="line"/>
      <point x="62" y="331" type="line"/>
      <point x="62" y="392" type="line"/>
      <point x="666" y="1310" type="line"/>
      <point x="784" y="1310" type="line"/>
    </contour>
    <contour>
      <point x="190" y="422" type="line"/>
      <point x="677" y="422" type="line"/>
      <point x="677" y="1169" type="line"/>
      <point x="671" y="1171" type="line"/>
      <point x="626" y="1073" type="line"/>
    </contour>
  </outline>
</glyph>
<glyph name="five" format="1">
  <advance width="1022"/>
  <unicode hex="0035"/>
  <outline>
    <contour>
      <point x="170" y="591" type="line"/>
      <point x="243" y="1308" type="line"/>
      <point x="879" y="1308" type="line"/>
      <point x="879" y="1208" type="line"/>
      <point x="335" y="1208" type="line"/>
      <point x="286" y="741" type="line"/>
      <point x="336" y="786"/>
      <point x="455" y="835"/>
      <point x="556" y="838" type="qcurve" smooth="yes"/>
      <point x="724" y="840"/>
      <point x="929" y="610"/>
      <point x="929" y="416" type="qcurve" smooth="yes"/>
      <point x="929" y="217"/>
      <point x="730" y="-21"/>
      <point x="530" y="-21" type="qcurve" smooth="yes"/>
      <point x="368" y="-21"/>
      <point x="152" y="160"/>
      <point x="157" y="337" type="qcurve"/>
      <point x="158" y="343" type="line"/>
      <point x="255" y="343" type="line"/>
      <point x="255" y="210"/>
      <point x="405" y="70"/>
      <point x="530" y="70" type="qcurve" smooth="yes"/>
      <point x="676" y="70"/>
      <point x="821" y="246"/>
      <point x="821" y="414" type="qcurve" smooth="yes"/>
      <point x="821" y="560"/>
      <point x="676" y="738"/>
      <point x="545" y="738" type="qcurve" smooth="yes"/>
      <point x="419" y="738"/>
      <point x="287" y="658"/>
      <point x="257" y="577" type="qcurve"/>
    </contour>
  </outline>
</glyph>
<glyph name="six" format="1">
  <advance width="1022"/>
  <unicode hex="0036"/>
  <outline>
    <contour>
      <point x="582" y="1327" type="qcurve" smooth="yes"/>
      <point x="650" y="1327"/>
      <point x="781" y="1297"/>
      <point x="833" y="1268" type="qcurve"/>
      <point x="805" y="1180" type="line"/>
      <point x="753" y="1208"/>
      <point x="653" y="1235"/>
      <point x="582" y="1235" type="qcurve" smooth="yes"/>
      <point x="437" y="1235"/>
      <point x="245" y="1009"/>
      <point x="245" y="824" type="qcurve" smooth="yes"/>
      <point x="245" y="708" type="line"/>
      <point x="299" y="778"/>
      <point x="466" y="863"/>
      <point x="568" y="863" type="qcurve" smooth="yes"/>
      <point x="744" y="863"/>
      <point x="950" y="620"/>
      <point x="950" y="425" type="qcurve" smooth="yes"/>
      <point x="950" y="231"/>
      <point x="729" y="-21"/>
      <point x="553" y="-21" type="qcurve" smooth="yes"/>
      <point x="372" y="-21"/>
      <point x="137" y="249"/>
      <point x="137" y="484" type="qcurve" smooth="yes"/>
      <point x="137" y="814" type="line" smooth="yes"/>
      <point x="137" y="1041"/>
      <point x="394" y="1327"/>
    </contour>
    <contour>
      <point x="546" y="775" type="qcurve" smooth="yes"/>
      <point x="437" y="775"/>
      <point x="275" y="661"/>
      <point x="245" y="572" type="qcurve"/>
      <point x="245" y="476" type="line" smooth="yes"/>
      <point x="245" y="288"/>
      <point x="418" y="70"/>
      <point x="553" y="70" type="qcurve" smooth="yes"/>
      <point x="684" y="70"/>
      <point x="842" y="276"/>
      <point x="842" y="425" type="qcurve" smooth="yes"/>
      <point x="842" y="582"/>
      <point x="689" y="775"/>
    </contour>
  </outline>
</glyph>
<glyph name="seven" format="1">
  <advance width="1022"/>
  <unicode hex="0037"/>
  <outline>
    <contour>
      <point x="929" y="1219" type="line"/>
      <point x="716" y="967"/>
      <point x="491" y="447"/>
      <point x="454" y="110" type="qcurve" smooth="yes"/>
      <point x="444" y="0" type="line"/>
      <point x="336" y="0" type="line"/>
      <point x="346" y="110" type="line" smooth="yes"/>
      <point x="383" y="443"/>
      <point x="621" y="982"/>
      <point x="817" y="1219" type="qcurve"/>
      <point x="69" y="1219" type="line"/>
      <point x="69" y="1310" type="line"/>
      <point x="929" y="1310" type="line"/>
    </contour>
  </outline>
</glyph>
<glyph name="eight" format="1">
  <advance width="1022"/>
  <unicode hex="0038"/>
  <outline>
    <contour>
      <point x="896" y="971" type="qcurve" smooth="yes"/>
      <point x="896" y="865"/>
      <point x="772" y="705"/>
      <point x="669" y="669" type="qcurve"/>
      <point x="788" y="632"/>
      <point x="933" y="461"/>
      <point x="933" y="345" type="qcurve" smooth="yes"/>
      <point x="933" y="169"/>
      <point x="698" y="-21"/>
      <point x="512" y="-21" type="qcurve" smooth="yes"/>
      <point x="323" y="-21"/>
      <point x="90" y="168"/>
      <point x="90" y="345" type="qcurve" smooth="yes"/>
      <point x="90" y="461"/>
      <point x="232" y="633"/>
      <point x="352" y="670" type="qcurve"/>
      <point x="248" y="706"/>
      <point x="127" y="865"/>
      <point x="127" y="971" type="qcurve" smooth="yes"/>
      <point x="127" y="1140"/>
      <point x="340" y="1327"/>
      <point x="510" y="1327" type="qcurve" smooth="yes"/>
      <point x="680" y="1327"/>
      <point x="896" y="1139"/>
    </contour>
    <contour>
      <point x="825" y="344" type="qcurve" smooth="yes"/>
      <point x="825" y="469"/>
      <point x="645" y="624"/>
      <point x="510" y="624" type="qcurve" smooth="yes"/>
      <point x="374" y="624"/>
      <point x="197" y="469"/>
      <point x="197" y="344" type="qcurve" smooth="yes"/>
      <point x="197" y="216"/>
      <point x="372" y="70"/>
      <point x="512" y="70" type="qcurve" smooth="yes"/>
      <point x="649" y="70"/>
      <point x="825" y="217"/>
    </contour>
    <contour>
      <point x="788" y="972" type="qcurve" smooth="yes"/>
      <point x="788" y="1085"/>
      <point x="629" y="1235"/>
      <point x="510" y="1235" type="qcurve" smooth="yes"/>
      <point x="389" y="1235"/>
      <point x="234" y="1091"/>
      <point x="234" y="972" type="qcurve" smooth="yes"/>
      <point x="234" y="856"/>
      <point x="390" y="716"/>
      <point x="512" y="716" type="qcurve" smooth="yes"/>
      <point x="632" y="716"/>
      <point x="788" y="856"/>
    </contour>
  </outline>
</glyph>
<glyph name="nine" format="1">
  <advance width="1022"/>
  <unicode hex="0039"/>
  <outline>
    <contour>
      <point x="460" y="70" type="qcurve" smooth="yes"/>
      <point x="609" y="70"/>
      <point x="786" y="270"/>
      <point x="786" y="456" type="qcurve" smooth="yes"/>
      <point x="786" y="587" type="line"/>
      <point x="738" y="505"/>
      <point x="577" y="415"/>
      <point x="478" y="415" type="qcurve" smooth="yes"/>
      <point x="299" y="415"/>
      <point x="80" y="663"/>
      <point x="80" y="860" type="qcurve" smooth="yes"/>
      <point x="80" y="1059"/>
      <point x="310" y="1327"/>
      <point x="479" y="1327" type="qcurve" smooth="yes"/>
      <point x="669" y="1327"/>
      <point x="897" y="1080"/>
      <point x="897" y="844" type="qcurve" smooth="yes"/>
      <point x="897" y="458" type="line" smooth="yes"/>
      <point x="897" y="230"/>
      <point x="656" y="-21"/>
      <point x="460" y="-21" type="qcurve" smooth="yes"/>
      <point x="390" y="-21"/>
      <point x="248" y="6"/>
      <point x="185" y="34" type="qcurve"/>
      <point x="204" y="124" type="line"/>
      <point x="266" y="95"/>
      <point x="385" y="70"/>
    </contour>
    <contour>
      <point x="478" y="506" type="qcurve" smooth="yes"/>
      <point x="595" y="506"/>
      <point x="752" y="625"/>
      <point x="786" y="713" type="qcurve"/>
      <point x="786" y="852" type="line" smooth="yes"/>
      <point x="786" y="1038"/>
      <point x="623" y="1235"/>
      <point x="483" y="1235" type="qcurve" smooth="yes"/>
      <point x="356" y="1235"/>
      <point x="192" y="1016"/>
      <point x="192" y="860" type="qcurve" smooth="yes"/>
      <point x="192" y="709"/>
      <point x="347" y="506"/>
    </contour>
  </outline>
</glyph>
<glyph name="less" format="1">
  <advance width="942"/>
  <unicode hex="003C"/>
  <outline>
    <contour>
      <point x="261" y="532" type="line"/>
      <point x="164" y="507" type="line"/>
      <point x="164" y="502" type="line"/>
      <point x="261" y="477" type="line"/>
      <point x="814" y="235" type="line"/>
      <point x="814" y="122" type="line"/>
      <point x="69" y="463" type="line"/>
      <point x="69" y="550" type="line"/>
      <point x="814" y="891" type="line"/>
      <point x="814" y="777" type="line"/>
    </contour>
  </outline>
</glyph>
<glyph name="equal" format="1">
  <advance width="1032"/>
  <unicode hex="003D"/>
  <outline>
    <contour>
      <point x="885" y="792" type="line"/>
      <point x="134" y="792" type="line"/>
      <point x="134" y="887" type="line"/>
      <point x="885" y="887" type="line"/>
    </contour>
    <contour>
      <point x="885" y="422" type="line"/>
      <point x="134" y="422" type="line"/>
      <point x="134" y="517" type="line"/>
      <point x="885" y="517" type="line"/>
    </contour>
  </outline>
</glyph>
<glyph name="greater" format="1">
  <advance width="955"/>
  <unicode hex="003E"/>
  <outline>
    <contour>
      <point x="112" y="780" type="line"/>
      <point x="112" y="891" type="line"/>
      <point x="872" y="550" type="line"/>
      <point x="872" y="463" type="line"/>
      <point x="112" y="122" type="line"/>
      <point x="112" y="234" type="line"/>
      <point x="680" y="480" type="line"/>
      <point x="778" y="505" type="line"/>
      <point x="778" y="510" type="line"/>
      <point x="680" y="536" type="line"/>
    </contour>
  </outline>
</glyph>
<glyph name="at" format="1">
  <advance width="1683.0"/>
  <unicode hex="0040"/>
  <outline>
    <contour>
      <point x="1576" y="416" type="qcurve" smooth="yes"/>
      <point x="1567" y="222"/>
      <point x="1374" y="-64"/>
      <point x="1189" y="-64" type="qcurve" smooth="yes"/>
      <point x="1119" y="-64"/>
      <point x="1024" y="28"/>
      <point x="1009" y="110" type="qcurve"/>
      <point x="961" y="23"/>
      <point x="821" y="-64"/>
      <point x="729" y="-64" type="qcurve" smooth="yes"/>
      <point x="611" y="-64"/>
      <point x="489" y="152"/>
      <point x="506" y="329" type="qcurve" smooth="yes"/>
      <point x="527" y="558"/>
      <point x="739" y="834"/>
      <point x="890" y="834" type="qcurve" smooth="yes"/>
      <point x="975" y="834"/>
      <point x="1077" y="786"/>
      <point x="1139" y="737" type="qcurve"/>
      <point x="1138" y="735" type="line"/>
      <point x="1140" y="735" type="line"/>
      <point x="1095" y="218" type="line" smooth="yes"/>
      <point x="1086" y="100"/>
      <point x="1158" y="13"/>
      <point x="1208" y="13" type="qcurve" smooth="yes"/>
      <point x="1336" y="13"/>
      <point x="1484" y="237"/>
      <point x="1494" y="416" type="qcurve" smooth="yes"/>
      <point x="1510" y="767"/>
      <point x="1208" y="1154"/>
      <point x="882" y="1154" type="qcurve" smooth="yes"/>
      <point x="591" y="1154"/>
      <point x="213" y="731"/>
      <point x="198" y="385" type="qcurve" smooth="yes"/>
      <point x="181" y="44"/>
      <point x="509" y="-377"/>
      <point x="813" y="-377" type="qcurve" smooth="yes"/>
      <point x="892" y="-377"/>
      <point x="1054" y="-337"/>
      <point x="1110" y="-305" type="qcurve"/>
      <point x="1138" y="-373" type="line"/>
      <point x="1080" y="-410"/>
      <point x="895" y="-453"/>
      <point x="809" y="-453" type="qcurve" smooth="yes"/>
      <point x="467" y="-453"/>
      <point x="93" y="-4"/>
      <point x="110" y="385" type="qcurve" smooth="yes"/>
      <point x="126" y="767"/>
      <point x="548" y="1233"/>
      <point x="886" y="1233" type="qcurve" smooth="yes"/>
      <point x="1238" y="1233"/>
      <point x="1591" y="798"/>
    </contour>
    <contour>
      <point x="605" y="329" type="qcurve" smooth="yes"/>
      <point x="590" y="190"/>
      <point x="666" y="24"/>
      <point x="752" y="24" type="qcurve" smooth="yes"/>
      <point x="830" y="24"/>
      <point x="957" y="101"/>
      <point x="1004" y="204" type="qcurve"/>
      <point x="1004" y="209"/>
      <point x="1004" y="215"/>
      <point x="1004" y="218" type="qcurve"/>
      <point x="1047" y="708" type="line"/>
      <point x="1018" y="729"/>
      <point x="948" y="752"/>
      <point x="905" y="752" type="qcurve" smooth="yes"/>
      <point x="784" y="752"/>
      <point x="626" y="538"/>
    </contour>
  </outline>
</glyph>
<glyph name="A" format="1">
  <advance width="1151"/>
  <unicode hex="0041"/>
  <outline>
    <contour>
      <point x="876" y="365" type="line"/>
      <point x="275" y="365" type="line"/>
      <point x="140" y="0" type="line"/>
      <point x="29" y="0" type="line"/>
      <point x="527" y="1310" type="line"/>
      <point x="628" y="1310" type="line"/>
      <point x="1122" y="0" type="line"/>
      <point x="1011" y="0" type="line"/>
    </contour>
    <contour>
      <point x="311" y="462" type="line"/>
      <point x="841" y="462" type="line"/>
      <point x="580" y="1171" type="line"/>
      <point x="574" y="1171" type="line"/>
    </contour>
  </outline>
</glyph>
<glyph name="B" format="1">
  <advance width="1142"/>
  <unicode hex="0042"/>
  <outline>
    <contour>
      <point x="172" y="0" type="line"/>
      <point x="172" y="1310" type="line"/>
      <point x="554" y="1310" type="line" smooth="yes"/>
      <point x="759" y="1310"/>
      <point x="986" y="1139"/>
      <point x="986" y="966" type="qcurve" smooth="yes"/>
      <point x="986" y="865"/>
      <point x="872" y="716"/>
      <point x="774" y="687" type="qcurve"/>
      <point x="894" y="665"/>
      <point x="1043" y="483"/>
      <point x="1043" y="365" type="qcurve" smooth="yes"/>
      <point x="1043" y="189"/>
      <point x="815" y="0"/>
      <point x="625" y="0" type="qcurve" smooth="yes"/>
    </contour>
    <contour>
      <point x="279" y="632" type="line"/>
      <point x="279" y="91" type="line"/>
      <point x="625" y="91" type="line" smooth="yes"/>
      <point x="770" y="91"/>
      <point x="935" y="234"/>
      <point x="935" y="363" type="qcurve" smooth="yes"/>
      <point x="935" y="481"/>
      <point x="785" y="632"/>
      <point x="642" y="632" type="qcurve" smooth="yes"/>
    </contour>
    <contour>
      <point x="279" y="723" type="line"/>
      <point x="581" y="723" type="line" smooth="yes"/>
      <point x="723" y="723"/>
      <point x="878" y="848"/>
      <point x="878" y="969" type="qcurve" smooth="yes"/>
      <point x="878" y="1094"/>
      <point x="713" y="1219"/>
      <point x="554" y="1219" type="qcurve" smooth="yes"/>
      <point x="279" y="1219" type="line"/>
    </contour>
  </outline>
</glyph>
<glyph name="C" format="1">
  <advance width="1182"/>
  <unicode hex="0043"/>
  <outline>
    <contour>
      <point x="1075" y="407" type="line"/>
      <point x="1076" y="402" type="line"/>
      <point x="1059" y="205"/>
      <point x="813" y="-21"/>
      <point x="606" y="-21" type="qcurve" smooth="yes"/>
      <point x="387" y="-21"/>
      <point x="119" y="295"/>
      <point x="119" y="546" type="qcurve" smooth="yes"/>
      <point x="119" y="759" type="line" smooth="yes"/>
      <point x="119" y="1010"/>
      <point x="387" y="1327"/>
      <point x="606" y="1327" type="qcurve" smooth="yes"/>
      <point x="815" y="1327"/>
      <point x="1059" y="1106"/>
      <point x="1076" y="905" type="qcurve"/>
      <point x="1075" y="900" type="line"/>
      <point x="974" y="900" type="line"/>
      <point x="952" y="1063"/>
      <point x="771" y="1235"/>
      <point x="606" y="1235" type="qcurve" smooth="yes"/>
      <point x="434" y="1235"/>
      <point x="226" y="969"/>
      <point x="226" y="761" type="qcurve" smooth="yes"/>
      <point x="226" y="546" type="line" smooth="yes"/>
      <point x="226" y="335"/>
      <point x="434" y="70"/>
      <point x="606" y="70" type="qcurve" smooth="yes"/>
      <point x="771" y="70"/>
      <point x="953" y="239"/>
      <point x="974" y="407" type="qcurve"/>
    </contour>
  </outline>
</glyph>
<glyph name="D" format="1">
  <advance width="1210"/>
  <unicode hex="0044"/>
  <outline>
    <contour>
      <point x="172" y="0" type="line"/>
      <point x="172" y="1310" type="line"/>
      <point x="553" y="1310" type="line" smooth="yes"/>
      <point x="793" y="1310"/>
      <point x="1106" y="990"/>
      <point x="1106" y="739" type="qcurve" smooth="yes"/>
      <point x="1106" y="571" type="line" smooth="yes"/>
      <point x="1106" y="319"/>
      <point x="793" y="0"/>
      <point x="553" y="0" type="qcurve" smooth="yes"/>
    </contour>
    <contour>
      <point x="279" y="1219" type="line"/>
      <point x="279" y="91" type="line"/>
      <point x="553" y="91" type="line" smooth="yes"/>
      <point x="747" y="91"/>
      <point x="998" y="363"/>
      <point x="998" y="571" type="qcurve" smooth="yes"/>
      <point x="998" y="742" type="line" smooth="yes"/>
      <point x="998" y="947"/>
      <point x="746" y="1219"/>
      <point x="553" y="1219" type="qcurve" smooth="yes"/>
    </contour>
  </outline>
</glyph>
<glyph name="E" format="1">
  <advance width="1062.0"/>
  <unicode hex="0045"/>
  <outline>
    <contour>
      <point x="910" y="635" type="line"/>
      <point x="279" y="635" type="line"/>
      <point x="279" y="91" type="line"/>
      <point x="1002" y="91" type="line"/>
      <point x="1002" y="0" type="line"/>
      <point x="172" y="0" type="line"/>
      <point x="172" y="1310" type="line"/>
      <point x="997" y="1310" type="line"/>
      <point x="997" y="1219" type="line"/>
      <point x="279" y="1219" type="line"/>
      <point x="279" y="726" type="line"/>
      <point x="910" y="726" type="line"/>
    </contour>
  </outline>
</glyph>
<glyph name="F" format="1">
  <advance width="1063"/>
  <unicode hex="0046"/>
  <outline>
    <contour>
      <point x="916" y="614" type="line"/>
      <point x="279" y="614" type="line"/>
      <point x="279" y="0" type="line"/>
      <point x="172" y="0" type="line"/>
      <point x="172" y="1310" type="line"/>
      <point x="1008" y="1310" type="line"/>
      <point x="1008" y="1219" type="line"/>
      <point x="279" y="1219" type="line"/>
      <point x="279" y="707" type="line"/>
      <point x="916" y="707" type="line"/>
    </contour>
  </outline>
</glyph>
<glyph name="G" format="1">
  <advance width="1261"/>
  <unicode hex="0047"/>
  <outline>
    <contour>
      <point x="1107" y="154" type="line"/>
      <point x="1063" y="90"/>
      <point x="830" y="-21"/>
      <point x="653" y="-21" type="qcurve" smooth="yes"/>
      <point x="424" y="-21"/>
      <point x="131" y="290"/>
      <point x="131" y="538" type="qcurve" smooth="yes"/>
      <point x="131" y="778" type="line" smooth="yes"/>
      <point x="131" y="1021"/>
      <point x="410" y="1327"/>
      <point x="631" y="1327" type="qcurve" smooth="yes"/>
      <point x="842" y="1327"/>
      <point x="1081" y="1116"/>
      <point x="1100" y="947" type="qcurve"/>
      <point x="1098" y="941" type="line"/>
      <point x="998" y="941" type="line"/>
      <point x="975" y="1073"/>
      <point x="800" y="1235"/>
      <point x="631" y="1235" type="qcurve" smooth="yes"/>
      <point x="455" y="1235"/>
      <point x="239" y="980"/>
      <point x="239" y="780" type="qcurve" smooth="yes"/>
      <point x="239" y="538" type="line" smooth="yes"/>
      <point x="239" y="333"/>
      <point x="468" y="70"/>
      <point x="653" y="70" type="qcurve" smooth="yes"/>
      <point x="783" y="70"/>
      <point x="966" y="143"/>
      <point x="999" y="186" type="qcurve"/>
      <point x="999" y="528" type="line"/>
      <point x="651" y="528" type="line"/>
      <point x="651" y="620" type="line"/>
      <point x="1107" y="620" type="line"/>
    </contour>
  </outline>
</glyph>
<glyph name="H" format="1">
  <advance width="1303"/>
  <unicode hex="0048"/>
  <outline>
    <contour>
      <point x="1131" y="0" type="line"/>
      <point x="1024" y="0" type="line"/>
      <point x="1024" y="603" type="line"/>
      <point x="279" y="603" type="line"/>
      <point x="279" y="0" type="line"/>
      <point x="172" y="0" type="line"/>
      <point x="172" y="1310" type="line"/>
      <point x="279" y="1310" type="line"/>
      <point x="279" y="695" type="line"/>
      <point x="1024" y="695" type="line"/>
      <point x="1024" y="1310" type="line"/>
      <point x="1131" y="1310" type="line"/>
    </contour>
  </outline>
</glyph>
<glyph name="I" format="1">
  <advance width="499"/>
  <unicode hex="0049"/>
  <outline>
    <contour>
      <point x="303" y="0" type="line"/>
      <point x="195" y="0" type="line"/>
      <point x="195" y="1310" type="line"/>
      <point x="303" y="1310" type="line"/>
    </contour>
  </outline>
</glyph>
<glyph name="J" format="1">
  <advance width="1014"/>
  <unicode hex="004A"/>
  <outline>
    <contour>
      <point x="743" y="1308" type="line"/>
      <point x="851" y="1308" type="line"/>
      <point x="851" y="370" type="line" smooth="yes"/>
      <point x="851" y="191"/>
      <point x="637" y="-21"/>
      <point x="468" y="-21" type="qcurve" smooth="yes"/>
      <point x="284" y="-21"/>
      <point x="69" y="170"/>
      <point x="74" y="353" type="qcurve"/>
      <point x="76" y="359" type="line"/>
      <point x="176" y="359" type="line"/>
      <point x="176" y="217"/>
      <point x="328" y="70"/>
      <point x="468" y="70" type="qcurve" smooth="yes"/>
      <point x="588" y="70"/>
      <point x="743" y="233"/>
      <point x="743" y="370" type="qcurve" smooth="yes"/>
    </contour>
  </outline>
</glyph>
<glyph name="K" format="1">
  <advance width="1177"/>
  <unicode hex="004B"/>
  <outline>
    <contour>
      <point x="459" y="617" type="line"/>
      <point x="279" y="617" type="line"/>
      <point x="279" y="0" type="line"/>
      <point x="172" y="0" type="line"/>
      <point x="172" y="1310" type="line"/>
      <point x="279" y="1310" type="line"/>
      <point x="279" y="707" type="line"/>
      <point x="458" y="707" type="line"/>
      <point x="974" y="1310" type="line"/>
      <point x="1095" y="1310" type="line"/>
      <point x="1097" y="1306" type="line"/>
      <point x="555" y="666" type="line"/>
      <point x="1136" y="5" type="line"/>
      <point x="1134" y="0" type="line"/>
      <point x="1006" y="0" type="line"/>
    </contour>
  </outline>
</glyph>
<glyph name="L" format="1">
  <advance width="971"/>
  <unicode hex="004C"/>
  <outline>
    <contour>
      <point x="280" y="91" type="line"/>
      <point x="928" y="91" type="line"/>
      <point x="928" y="0" type="line"/>
      <point x="172" y="0" type="line"/>
      <point x="172" y="1310" type="line"/>
      <point x="280" y="1310" type="line"/>
    </contour>
  </outline>
</glyph>
<glyph name="M" format="1">
  <advance width="1598"/>
  <unicode hex="004D"/>
  <outline>
    <contour>
      <point x="313" y="1310" type="line"/>
      <point x="795" y="157" type="line"/>
      <point x="800" y="157" type="line"/>
      <point x="1283" y="1310" type="line"/>
      <point x="1426" y="1310" type="line"/>
      <point x="1426" y="0" type="line"/>
      <point x="1319" y="0" type="line"/>
      <point x="1319" y="579" type="line"/>
      <point x="1328" y="1152" type="line"/>
      <point x="1322" y="1154" type="line"/>
      <point x="835" y="0" type="line"/>
      <point x="761" y="0" type="line"/>
      <point x="275" y="1148" type="line"/>
      <point x="269" y="1148" type="line"/>
      <point x="279" y="579" type="line"/>
      <point x="279" y="0" type="line"/>
      <point x="172" y="0" type="line"/>
      <point x="172" y="1310" type="line"/>
    </contour>
  </outline>
</glyph>
<glyph name="N" format="1">
  <advance width="1309"/>
  <unicode hex="004E"/>
  <outline>
    <contour>
      <point x="1137" y="0" type="line"/>
      <point x="1030" y="0" type="line"/>
      <point x="285" y="1127" type="line"/>
      <point x="280" y="1126" type="line"/>
      <point x="280" y="0" type="line"/>
      <point x="172" y="0" type="line"/>
      <point x="172" y="1310" type="line"/>
      <point x="280" y="1310" type="line"/>
      <point x="1024" y="185" type="line"/>
      <point x="1030" y="186" type="line"/>
      <point x="1030" y="1310" type="line"/>
      <point x="1137" y="1310" type="line"/>
    </contour>
  </outline>
</glyph>
<glyph name="O" format="1">
  <advance width="1240"/>
  <unicode hex="004F"/>
  <outline>
    <contour>
      <point x="1129" y="546" type="line" smooth="yes"/>
      <point x="1129" y="292"/>
      <point x="851" y="-21"/>
      <point x="617" y="-21" type="qcurve" smooth="yes"/>
      <point x="386" y="-21"/>
      <point x="112" y="292"/>
      <point x="112" y="546" type="qcurve" smooth="yes"/>
      <point x="112" y="759" type="line" smooth="yes"/>
      <point x="112" y="1012"/>
      <point x="385" y="1327"/>
      <point x="616" y="1327" type="qcurve" smooth="yes"/>
      <point x="850" y="1327"/>
      <point x="1129" y="1012"/>
      <point x="1129" y="759" type="qcurve" smooth="yes"/>
    </contour>
    <contour>
      <point x="1022" y="761" type="line" smooth="yes"/>
      <point x="1022" y="974"/>
      <point x="806" y="1233"/>
      <point x="616" y="1233" type="qcurve" smooth="yes"/>
      <point x="428" y="1233"/>
      <point x="220" y="974"/>
      <point x="220" y="761" type="qcurve" smooth="yes"/>
      <point x="220" y="546" type="line" smooth="yes"/>
      <point x="220" y="332"/>
      <point x="429" y="73"/>
      <point x="617" y="73" type="qcurve" smooth="yes"/>
      <point x="808" y="73"/>
      <point x="1022" y="331"/>
      <point x="1022" y="546" type="qcurve" smooth="yes"/>
    </contour>
  </outline>
</glyph>
<glyph name="P" format="1">
  <advance width="1140"/>
  <unicode hex="0050"/>
  <outline>
    <contour>
      <point x="279" y="545" type="line"/>
      <point x="279" y="0" type="line"/>
      <point x="172" y="0" type="line"/>
      <point x="172" y="1310" type="line"/>
      <point x="623" y="1310" type="line" smooth="yes"/>
      <point x="829" y="1310"/>
      <point x="1055" y="1101"/>
      <point x="1055" y="928" type="qcurve" smooth="yes"/>
      <point x="1055" y="753"/>
      <point x="829" y="545"/>
      <point x="623" y="545" type="qcurve" smooth="yes"/>
    </contour>
    <contour>
      <point x="279" y="636" type="line"/>
      <point x="623" y="636" type="line" smooth="yes"/>
      <point x="785" y="636"/>
      <point x="948" y="801"/>
      <point x="948" y="926" type="qcurve" smooth="yes"/>
      <point x="948" y="1052"/>
      <point x="786" y="1219"/>
      <point x="623" y="1219" type="qcurve" smooth="yes"/>
      <point x="279" y="1219" type="line"/>
    </contour>
  </outline>
</glyph>
<glyph name="Q" format="1">
  <advance width="1241"/>
  <unicode hex="0051"/>
  <outline>
    <contour>
      <point x="1129" y="527" type="line" smooth="yes"/>
      <point x="1129" y="379"/>
      <point x="1031" y="143"/>
      <point x="940" y="68" type="qcurve"/>
      <point x="1165" y="-145" type="line"/>
      <point x="1090" y="-212" type="line"/>
      <point x="852" y="12" type="line"/>
      <point x="799" y="-14"/>
      <point x="681" y="-40"/>
      <point x="617" y="-40" type="qcurve" smooth="yes"/>
      <point x="386" y="-40"/>
      <point x="112" y="273"/>
      <point x="112" y="527" type="qcurve" smooth="yes"/>
      <point x="112" y="740" type="line" smooth="yes"/>
      <point x="112" y="993"/>
      <point x="385" y="1308"/>
      <point x="616" y="1308" type="qcurve" smooth="yes"/>
      <point x="850" y="1308"/>
      <point x="1129" y="993"/>
      <point x="1129" y="740" type="qcurve" smooth="yes"/>
    </contour>
    <contour>
      <point x="1022" y="742" type="line" smooth="yes"/>
      <point x="1022" y="954"/>
      <point x="806" y="1214"/>
      <point x="616" y="1214" type="qcurve" smooth="yes"/>
      <point x="428" y="1214"/>
      <point x="220" y="954"/>
      <point x="220" y="742" type="qcurve" smooth="yes"/>
      <point x="220" y="527" type="line" smooth="yes"/>
      <point x="220" y="313"/>
      <point x="429" y="54"/>
      <point x="617" y="54" type="qcurve" smooth="yes"/>
      <point x="808" y="54"/>
      <point x="1022" y="312"/>
      <point x="1022" y="527" type="qcurve" smooth="yes"/>
    </contour>
  </outline>
</glyph>
<glyph name="R" format="1">
  <advance width="1213"/>
  <unicode hex="0052"/>
  <outline>
    <contour>
      <point x="276" y="592" type="line"/>
      <point x="276" y="0" type="line"/>
      <point x="169" y="0" type="line"/>
      <point x="169" y="1310" type="line"/>
      <point x="613" y="1310" type="line" smooth="yes"/>
      <point x="824" y="1310"/>
      <point x="1049" y="1125"/>
      <point x="1049" y="948" type="qcurve" smooth="yes"/>
      <point x="1049" y="843"/>
      <point x="928" y="679"/>
      <point x="818" y="641" type="qcurve"/>
      <point x="940" y="610"/>
      <point x="1047" y="453"/>
      <point x="1047" y="334" type="qcurve" smooth="yes"/>
      <point x="1047" y="211" type="line" smooth="yes"/>
      <point x="1047" y="149"/>
      <point x="1076" y="52"/>
      <point x="1109" y="22" type="qcurve"/>
      <point x="1109" y="0" type="line"/>
      <point x="999" y="0" type="line"/>
      <point x="966" y="32"/>
      <point x="939" y="149"/>
      <point x="939" y="212" type="qcurve" smooth="yes"/>
      <point x="939" y="332" type="line" smooth="yes"/>
      <point x="939" y="453"/>
      <point x="783" y="592"/>
      <point x="644" y="592" type="qcurve" smooth="yes"/>
    </contour>
    <contour>
      <point x="276" y="684" type="line"/>
      <point x="599" y="684" type="line" smooth="yes"/>
      <point x="777" y="684"/>
      <point x="941" y="827"/>
      <point x="941" y="949" type="qcurve" smooth="yes"/>
      <point x="941" y="1078"/>
      <point x="778" y="1218"/>
      <point x="613" y="1218" type="qcurve" smooth="yes"/>
      <point x="276" y="1218" type="line"/>
    </contour>
  </outline>
</glyph>
<glyph name="S" format="1">
  <advance width="1108"/>
  <unicode hex="0053"/>
  <outline>
    <contour>
      <point x="922" y="319" type="qcurve" smooth="yes"/>
      <point x="922" y="426"/>
      <point x="761" y="562"/>
      <point x="563" y="614" type="qcurve" smooth="yes"/>
      <point x="347" y="668"/>
      <point x="126" y="841"/>
      <point x="126" y="988" type="qcurve" smooth="yes"/>
      <point x="126" y="1138"/>
      <point x="374" y="1327"/>
      <point x="568" y="1327" type="qcurve" smooth="yes"/>
      <point x="770" y="1327"/>
      <point x="1019" y="1102"/>
      <point x="1015" y="940" type="qcurve"/>
      <point x="1013" y="935" type="line"/>
      <point x="914" y="935" type="line"/>
      <point x="914" y="1066"/>
      <point x="727" y="1235"/>
      <point x="568" y="1235" type="qcurve" smooth="yes"/>
      <point x="410" y="1235"/>
      <point x="233" y="1095"/>
      <point x="233" y="991" type="qcurve" smooth="yes"/>
      <point x="233" y="892"/>
      <point x="397" y="759"/>
      <point x="598" y="709" type="qcurve" smooth="yes"/>
      <point x="809" y="655"/>
      <point x="1030" y="471"/>
      <point x="1030" y="321" type="qcurve" smooth="yes"/>
      <point x="1030" y="164"/>
      <point x="773" y="-21"/>
      <point x="574" y="-21" type="qcurve" smooth="yes"/>
      <point x="378" y="-21"/>
      <point x="86" y="176"/>
      <point x="90" y="365" type="qcurve"/>
      <point x="92" y="371" type="line"/>
      <point x="191" y="371" type="line"/>
      <point x="191" y="218"/>
      <point x="419" y="70"/>
      <point x="574" y="70" type="qcurve" smooth="yes"/>
      <point x="730" y="70"/>
      <point x="922" y="207"/>
    </contour>
  </outline>
</glyph>
<glyph name="T" format="1">
  <advance width="1092"/>
  <unicode hex="0054"/>
  <outline>
    <contour>
      <point x="1050" y="1219" type="line"/>
      <point x="599" y="1219" type="line"/>
      <point x="599" y="0" type="line"/>
      <point x="491" y="0" type="line"/>
      <point x="491" y="1219" type="line"/>
      <point x="41" y="1219" type="line"/>
      <point x="41" y="1310" type="line"/>
      <point x="1050" y="1310" type="line"/>
    </contour>
  </outline>
</glyph>
<glyph name="U" format="1">
  <advance width="1237"/>
  <unicode hex="0055"/>
  <outline>
    <contour>
      <point x="1088" y="1308" type="line"/>
      <point x="1088" y="420" type="line" smooth="yes"/>
      <point x="1088" y="206"/>
      <point x="826" y="-21"/>
      <point x="616" y="-21" type="qcurve" smooth="yes"/>
      <point x="408" y="-21"/>
      <point x="150" y="207"/>
      <point x="150" y="420" type="qcurve" smooth="yes"/>
      <point x="150" y="1308" type="line"/>
      <point x="258" y="1308" type="line"/>
      <point x="258" y="420" type="line" smooth="yes"/>
      <point x="258" y="253"/>
      <point x="456" y="70"/>
      <point x="616" y="70" type="qcurve" smooth="yes"/>
      <point x="778" y="70"/>
      <point x="981" y="252"/>
      <point x="981" y="420" type="qcurve" smooth="yes"/>
      <point x="981" y="1308" type="line"/>
    </contour>
  </outline>
</glyph>
<glyph name="V" format="1">
  <advance width="1137"/>
  <unicode hex="0056"/>
  <outline>
    <contour>
      <point x="540" y="221" type="line"/>
      <point x="566" y="134" type="line"/>
      <point x="572" y="134" type="line"/>
      <point x="598" y="221" type="line"/>
      <point x="991" y="1310" type="line"/>
      <point x="1108" y="1310" type="line"/>
      <point x="619" y="0" type="line"/>
      <point x="518" y="0" type="line"/>
      <point x="29" y="1310" type="line"/>
      <point x="146" y="1310" type="line"/>
    </contour>
  </outline>
</glyph>
<glyph name="W" format="1">
  <advance width="1651"/>
  <unicode hex="0057"/>
  <outline>
    <contour>
      <point x="401" y="371" type="line"/>
      <point x="440" y="170" type="line"/>
      <point x="446" y="169" type="line"/>
      <point x="495" y="371" type="line"/>
      <point x="772" y="1310" type="line"/>
      <point x="874" y="1310" type="line"/>
      <point x="1151" y="371" type="line"/>
      <point x="1199" y="168" type="line"/>
      <point x="1204" y="169" type="line"/>
      <point x="1247" y="371" type="line"/>
      <point x="1483" y="1310" type="line"/>
      <point x="1593" y="1310" type="line"/>
      <point x="1256" y="0" type="line"/>
      <point x="1155" y="0" type="line"/>
      <point x="860" y="1005" type="line"/>
      <point x="826" y="1143" type="line"/>
      <point x="821" y="1143" type="line"/>
      <point x="788" y="1005" type="line"/>
      <point x="491" y="0" type="line"/>
      <point x="388" y="0" type="line"/>
      <point x="51" y="1310" type="line"/>
      <point x="162" y="1310" type="line"/>
    </contour>
  </outline>
</glyph>
<glyph name="X" format="1">
  <advance width="1130"/>
  <unicode hex="0058"/>
  <outline>
    <contour>
      <point x="565" y="751" type="line"/>
      <point x="935" y="1310" type="line"/>
      <point x="1066" y="1310" type="line"/>
      <point x="630" y="664" type="line"/>
      <point x="1080" y="0" type="line"/>
      <point x="951" y="0" type="line"/>
      <point x="567" y="578" type="line"/>
      <point x="184" y="0" type="line"/>
      <point x="53" y="0" type="line"/>
      <point x="503" y="664" type="line"/>
      <point x="67" y="1310" type="line"/>
      <point x="197" y="1310" type="line"/>
    </contour>
  </outline>
</glyph>
<glyph name="Z" format="1">
  <advance width="1102"/>
  <unicode hex="005A"/>
  <outline>
    <contour>
      <point x="214" y="91" type="line"/>
      <point x="1018" y="91" type="line"/>
      <point x="1018" y="0" type="line"/>
      <point x="86" y="0" type="line"/>
      <point x="86" y="83" type="line"/>
      <point x="858" y="1219" type="line"/>
      <point x="110" y="1219" type="line"/>
      <point x="110" y="1310" type="line"/>
      <point x="989" y="1310" type="line"/>
      <point x="989" y="1232" type="line"/>
    </contour>
  </outline>
</glyph>
<glyph name="bracketleft" format="1">
  <advance width="622"/>
  <unicode hex="005B"/>
  <outline>
    <contour>
      <point x="517" y="1410" type="line"/>
      <point x="326" y="1410" type="line"/>
      <point x="326" y="-193" type="line"/>
      <point x="517" y="-193" type="line"/>
      <point x="517" y="-281" type="line"/>
      <point x="223" y="-281" type="line"/>
      <point x="223" y="1498" type="line"/>
      <point x="517" y="1498" type="line"/>
    </contour>
  </outline>
</glyph>
<glyph name="backslash" format="1">
  <advance width="726"/>
  <unicode hex="005C"/>
  <outline>
    <contour>
      <point x="43" y="1298" type="line"/>
      <point x="149" y="1298" type="line"/>
      <point x="696" y="-125" type="line"/>
      <point x="590" y="-125" type="line"/>
    </contour>
  </outline>
</glyph>
<glyph name="bracketright" format="1">
  <advance width="622"/>
  <unicode hex="005D"/>
  <outline>
    <contour>
      <point x="114" y="1498" type="line"/>
      <point x="407" y="1498" type="line"/>
      <point x="407" y="-281" type="line"/>
      <point x="114" y="-281" type="line"/>
      <point x="114" y="-193" type="line"/>
      <point x="304" y="-193" type="line"/>
      <point x="304" y="1410" type="line"/>
      <point x="114" y="1410" type="line"/>
    </contour>
  </outline>
</glyph>
<glyph name="asciicircum" format="1">
  <advance width="767"/>
  <unicode hex="005E"/>
  <outline>
    <contour>
      <point x="174" y="729" type="line"/>
      <point x="69" y="729" type="line"/>
      <point x="338" y="1383" type="line"/>
      <point x="419" y="1383" type="line"/>
      <point x="688" y="729" type="line"/>
      <point x="583" y="729" type="line"/>
      <point x="407" y="1165" type="line"/>
      <point x="380" y="1260" type="line"/>
      <point x="374" y="1260" type="line"/>
      <point x="347" y="1165" type="line"/>
    </contour>
  </outline>
</glyph>
<glyph name="underscore" format="1">
  <advance width="796"/>
  <unicode hex="005F"/>
  <outline>
    <contour>
      <point x="794" y="-101" type="line"/>
      <point x="1" y="-101" type="line"/>
      <point x="1" y="-10" type="line"/>
      <point x="794" y="-10" type="line"/>
    </contour>
  </outline>
</glyph>
<glyph name="grave" format="1">
  <advance width="527"/>
  <unicode hex="0060"/>
  <outline>
    <contour>
      <point x="406" y="1210" type="line"/>
      <point x="301" y="1210" type="line"/>
      <point x="84" y="1445" type="line"/>
      <point x="86" y="1449" type="line"/>
      <point x="224" y="1449" type="line"/>
    </contour>
  </outline>
</glyph>
<glyph name="a" format="1">
  <advance width="991"/>
  <unicode hex="0061"/>
  <outline>
    <contour>
      <point x="759" y="-2" type="line"/>
      <point x="748" y="47"/>
      <point x="739" y="119"/>
      <point x="739" y="156" type="qcurve"/>
      <point x="685" y="80"/>
      <point x="505" y="-21"/>
      <point x="392" y="-21" type="qcurve" smooth="yes"/>
      <point x="250" y="-21"/>
      <point x="93" y="130"/>
      <point x="93" y="257" type="qcurve" smooth="yes"/>
      <point x="93" y="392"/>
      <point x="326" y="554"/>
      <point x="524" y="554" type="qcurve" smooth="yes"/>
      <point x="739" y="554" type="line"/>
      <point x="739" y="675" type="line" smooth="yes"/>
      <point x="739" y="779"/>
      <point x="605" y="898"/>
      <point x="484" y="898" type="qcurve" smooth="yes"/>
      <point x="372" y="898"/>
      <point x="223" y="785"/>
      <point x="223" y="703" type="qcurve"/>
      <point x="124" y="704" type="line"/>
      <point x="122" y="709" type="line"/>
      <point x="117" y="818"/>
      <point x="327" y="990"/>
      <point x="489" y="990" type="qcurve" smooth="yes"/>
      <point x="650" y="990"/>
      <point x="846" y="826"/>
      <point x="846" y="673" type="qcurve" smooth="yes"/>
      <point x="846" y="194" type="line" smooth="yes"/>
      <point x="846" y="143"/>
      <point x="858" y="46"/>
      <point x="871" y="-2" type="qcurve"/>
    </contour>
    <contour>
      <point x="405" y="74" type="qcurve" smooth="yes"/>
      <point x="521" y="74"/>
      <point x="699" y="183"/>
      <point x="739" y="268" type="qcurve"/>
      <point x="739" y="471" type="line"/>
      <point x="522" y="471" type="line" smooth="yes"/>
      <point x="375" y="471"/>
      <point x="200" y="346"/>
      <point x="200" y="254" type="qcurve" smooth="yes"/>
      <point x="200" y="174"/>
      <point x="309" y="74"/>
    </contour>
  </outline>
</glyph>
<glyph name="b" format="1">
  <advance width="1026"/>
  <unicode hex="0062"/>
  <outline>
    <contour>
      <point x="927" y="458" type="line" smooth="yes"/>
      <point x="927" y="239"/>
      <point x="729" y="-21"/>
      <point x="555" y="-21" type="qcurve" smooth="yes"/>
      <point x="448" y="-21"/>
      <point x="293" y="65"/>
      <point x="246" y="145" type="qcurve"/>
      <point x="234" y="-2" type="line"/>
      <point x="141" y="-2" type="line"/>
      <point x="141" y="1402" type="line"/>
      <point x="249" y="1402" type="line"/>
      <point x="249" y="819" type="line"/>
      <point x="298" y="901"/>
      <point x="449" y="990"/>
      <point x="554" y="990" type="qcurve" smooth="yes"/>
      <point x="729" y="990"/>
      <point x="927" y="710"/>
      <point x="927" y="477" type="qcurve" smooth="yes"/>
    </contour>
    <contour>
      <point x="818" y="477" type="line" smooth="yes"/>
      <point x="818" y="663"/>
      <point x="674" y="896"/>
      <point x="533" y="896" type="qcurve" smooth="yes"/>
      <point x="420" y="896"/>
      <point x="283" y="785"/>
      <point x="249" y="697" type="qcurve"/>
      <point x="249" y="257" type="line"/>
      <point x="285" y="173"/>
      <point x="428" y="73"/>
      <point x="535" y="73" type="qcurve" smooth="yes"/>
      <point x="676" y="73"/>
      <point x="818" y="281"/>
      <point x="818" y="458" type="qcurve" smooth="yes"/>
    </contour>
  </outline>
</glyph>
<glyph name="c" format="1">
  <advance width="955"/>
  <unicode hex="0063"/>
  <outline>
    <contour>
      <point x="503" y="70" type="qcurve" smooth="yes"/>
      <point x="610" y="70"/>
      <point x="774" y="192"/>
      <point x="774" y="301" type="qcurve"/>
      <point x="869" y="301" type="line"/>
      <point x="871" y="296" type="line"/>
      <point x="876" y="161"/>
      <point x="651" y="-21"/>
      <point x="503" y="-21" type="qcurve" smooth="yes"/>
      <point x="304" y="-21"/>
      <point x="87" y="252"/>
      <point x="87" y="466" type="qcurve" smooth="yes"/>
      <point x="87" y="504" type="line" smooth="yes"/>
      <point x="87" y="716"/>
      <point x="305" y="990"/>
      <point x="502" y="990" type="qcurve" smooth="yes"/>
      <point x="662" y="990"/>
      <point x="876" y="801"/>
      <point x="872" y="647" type="qcurve"/>
      <point x="870" y="641" type="line"/>
      <point x="774" y="641" type="line"/>
      <point x="774" y="758"/>
      <point x="617" y="898"/>
      <point x="502" y="898" type="qcurve" smooth="yes"/>
      <point x="346" y="898"/>
      <point x="195" y="674"/>
      <point x="195" y="504" type="qcurve" smooth="yes"/>
      <point x="195" y="466" type="line" smooth="yes"/>
      <point x="195" y="293"/>
      <point x="345" y="70"/>
    </contour>
  </outline>
</glyph>
<glyph name="d" format="1">
  <advance width="1026"/>
  <unicode hex="0064"/>
  <outline>
    <contour>
      <point x="100" y="477" type="line" smooth="yes"/>
      <point x="100" y="710"/>
      <point x="297" y="990"/>
      <point x="473" y="990" type="qcurve" smooth="yes"/>
      <point x="575" y="990"/>
      <point x="725" y="903"/>
      <point x="774" y="824" type="qcurve"/>
      <point x="774" y="1402" type="line"/>
      <point x="881" y="1402" type="line"/>
      <point x="881" y="-2" type="line"/>
      <point x="786" y="-2" type="line"/>
      <point x="777" y="139" type="line"/>
      <point x="728" y="62"/>
      <point x="575" y="-21"/>
      <point x="472" y="-21" type="qcurve" smooth="yes"/>
      <point x="297" y="-21"/>
      <point x="100" y="239"/>
      <point x="100" y="458" type="qcurve" smooth="yes"/>
    </contour>
    <contour>
      <point x="208" y="458" type="line" smooth="yes"/>
      <point x="208" y="281"/>
      <point x="349" y="73"/>
      <point x="491" y="73" type="qcurve" smooth="yes"/>
      <point x="596" y="73"/>
      <point x="735" y="166"/>
      <point x="774" y="249" type="qcurve"/>
      <point x="774" y="706" type="line"/>
      <point x="737" y="791"/>
      <point x="602" y="896"/>
      <point x="493" y="896" type="qcurve" smooth="yes"/>
      <point x="351" y="896"/>
      <point x="208" y="663"/>
      <point x="208" y="477" type="qcurve" smooth="yes"/>
    </contour>
  </outline>
</glyph>
<glyph name="e" format="1">
  <advance width="950"/>
  <unicode hex="0065"/>
  <outline>
    <contour>
      <point x="508" y="-21" type="qcurve" smooth="yes"/>
      <point x="325" y="-21"/>
      <point x="83" y="249"/>
      <point x="83" y="456" type="qcurve" smooth="yes"/>
      <point x="83" y="506" type="line" smooth="yes"/>
      <point x="83" y="714"/>
      <point x="323" y="990"/>
      <point x="494" y="990" type="qcurve" smooth="yes"/>
      <point x="673" y="990"/>
      <point x="878" y="763"/>
      <point x="878" y="574" type="qcurve" smooth="yes"/>
      <point x="878" y="482" type="line"/>
      <point x="191" y="482" type="line"/>
      <point x="191" y="456" type="line" smooth="yes"/>
      <point x="191" y="291"/>
      <point x="365" y="70"/>
      <point x="508" y="70" type="qcurve" smooth="yes"/>
      <point x="608" y="70"/>
      <point x="751" y="126"/>
      <point x="801" y="178" type="qcurve"/>
      <point x="847" y="104" type="line"/>
      <point x="792" y="47"/>
      <point x="624" y="-21"/>
    </contour>
    <contour>
      <point x="494" y="898" type="qcurve" smooth="yes"/>
      <point x="374" y="898"/>
      <point x="212" y="715"/>
      <point x="199" y="578" type="qcurve"/>
      <point x="201" y="573" type="line"/>
      <point x="771" y="573" type="line"/>
      <point x="771" y="600" type="line" smooth="yes"/>
      <point x="771" y="727"/>
      <point x="622" y="898"/>
    </contour>
  </outline>
</glyph>
<glyph name="f" format="1">
  <advance width="606"/>
  <unicode hex="0066"/>
  <outline>
    <contour>
      <point x="221" y="0" type="line"/>
      <point x="221" y="886" type="line"/>
      <point x="59" y="886" type="line"/>
      <point x="59" y="974" type="line"/>
      <point x="221" y="974" type="line"/>
      <point x="221" y="1116" type="line" smooth="yes"/>
      <point x="221" y="1263"/>
      <point x="367" y="1423"/>
      <point x="500" y="1423" type="qcurve" smooth="yes"/>
      <point x="529" y="1423"/>
      <point x="590" y="1414"/>
      <point x="622" y="1406" type="qcurve"/>
      <point x="608" y="1317" type="line"/>
      <point x="587" y="1322"/>
      <point x="541" y="1328"/>
      <point x="510" y="1328" type="qcurve" smooth="yes"/>
      <point x="422" y="1328"/>
      <point x="329" y="1217"/>
      <point x="329" y="1116" type="qcurve" smooth="yes"/>
      <point x="329" y="974" type="line"/>
      <point x="561" y="974" type="line"/>
      <point x="561" y="886" type="line"/>
      <point x="329" y="886" type="line"/>
      <point x="329" y="0" type="line"/>
    </contour>
  </outline>
</glyph>
<glyph name="g" format="1">
  <advance width="1027"/>
  <unicode hex="0067"/>
  <outline>
    <contour>
      <point x="100" y="435" type="line" smooth="yes"/>
      <point x="100" y="668"/>
      <point x="299" y="948"/>
      <point x="476" y="948" type="qcurve" smooth="yes"/>
      <point x="580" y="948"/>
      <point x="731" y="857"/>
      <point x="780" y="774" type="qcurve"/>
      <point x="793" y="930" type="line"/>
      <point x="884" y="930" type="line"/>
      <point x="884" y="-31" type="line" smooth="yes"/>
      <point x="884" y="-219"/>
      <point x="676" y="-437"/>
      <point x="491" y="-437" type="qcurve" smooth="yes"/>
      <point x="420" y="-437"/>
      <point x="262" y="-403"/>
      <point x="203" y="-373" type="qcurve"/>
      <point x="230" y="-282" type="line"/>
      <point x="288" y="-311"/>
      <point x="416" y="-341"/>
      <point x="489" y="-341" type="qcurve" smooth="yes"/>
      <point x="631" y="-341"/>
      <point x="776" y="-177"/>
      <point x="776" y="-31" type="qcurve" smooth="yes"/>
      <point x="776" y="91" type="line"/>
      <point x="726" y="18"/>
      <point x="575" y="-63"/>
      <point x="474" y="-63" type="qcurve" smooth="yes"/>
      <point x="299" y="-63"/>
      <point x="100" y="198"/>
      <point x="100" y="416" type="qcurve" smooth="yes"/>
    </contour>
    <contour>
      <point x="208" y="416" type="line" smooth="yes"/>
      <point x="208" y="241"/>
      <point x="352" y="31"/>
      <point x="494" y="31" type="qcurve" smooth="yes"/>
      <point x="599" y="31"/>
      <point x="738" y="126"/>
      <point x="776" y="210" type="qcurve"/>
      <point x="776" y="662" type="line"/>
      <point x="741" y="747"/>
      <point x="605" y="855"/>
      <point x="496" y="855" type="qcurve" smooth="yes"/>
      <point x="354" y="855"/>
      <point x="208" y="621"/>
      <point x="208" y="435" type="qcurve" smooth="yes"/>
    </contour>
  </outline>
</glyph>
<glyph name="h" format="1">
  <advance width="1026"/>
  <unicode hex="0068"/>
  <outline>
    <contour>
      <point x="250" y="807" type="line"/>
      <point x="299" y="895"/>
      <point x="461" y="992"/>
      <point x="569" y="992" type="qcurve" smooth="yes"/>
      <point x="723" y="992"/>
      <point x="887" y="801"/>
      <point x="887" y="600" type="qcurve" smooth="yes"/>
      <point x="887" y="0" type="line"/>
      <point x="779" y="0" type="line"/>
      <point x="779" y="602" type="line" smooth="yes"/>
      <point x="779" y="761"/>
      <point x="654" y="898"/>
      <point x="545" y="898" type="qcurve" smooth="yes"/>
      <point x="434" y="898"/>
      <point x="285" y="782"/>
      <point x="250" y="686" type="qcurve"/>
      <point x="250" y="0" type="line"/>
      <point x="142" y="0" type="line"/>
      <point x="142" y="1404" type="line"/>
      <point x="250" y="1404" type="line"/>
    </contour>
  </outline>
</glyph>
<glyph name="i" format="1">
  <advance width="419"/>
  <unicode hex="0069"/>
  <outline>
    <contour>
      <point x="263" y="0" type="line"/>
      <point x="156" y="0" type="line"/>
      <point x="156" y="974" type="line"/>
      <point x="263" y="974" type="line"/>
    </contour>
    <contour>
      <point x="263" y="1253" type="line"/>
      <point x="156" y="1253" type="line"/>
      <point x="156" y="1404" type="line"/>
      <point x="263" y="1404" type="line"/>
    </contour>
  </outline>
</glyph>
<glyph name="j" format="1">
  <advance width="436"/>
  <unicode hex="006A"/>
  <outline>
    <contour>
      <point x="269" y="930" type="line"/>
      <point x="269" y="-124" type="line" smooth="yes"/>
      <point x="269" y="-274"/>
      <point x="125" y="-437"/>
      <point x="-3" y="-437" type="qcurve" smooth="yes"/>
      <point x="-30" y="-437"/>
      <point x="-77" y="-428"/>
      <point x="-104" y="-420" type="qcurve"/>
      <point x="-92" y="-329" type="line"/>
      <point x="-77" y="-334"/>
      <point x="-27" y="-343"/>
      <point x="-8" y="-343" type="qcurve" smooth="yes"/>
      <point x="72" y="-343"/>
      <point x="162" y="-232"/>
      <point x="162" y="-124" type="qcurve" smooth="yes"/>
      <point x="162" y="930" type="line"/>
    </contour>
    <contour>
      <point x="264" y="1213" type="line"/>
      <point x="157" y="1213" type="line"/>
      <point x="157" y="1360" type="line"/>
      <point x="264" y="1360" type="line"/>
    </contour>
  </outline>
</glyph>
<glyph name="k" format="1">
  <advance width="905"/>
  <unicode hex="006B"/>
  <outline>
    <contour>
      <point x="375" y="474" type="line"/>
      <point x="251" y="474" type="line"/>
      <point x="251" y="0" type="line"/>
      <point x="143" y="0" type="line"/>
      <point x="143" y="1404" type="line"/>
      <point x="251" y="1404" type="line"/>
      <point x="251" y="567" type="line"/>
      <point x="365" y="567" type="line"/>
      <point x="726" y="974" type="line"/>
      <point x="852" y="974" type="line"/>
      <point x="854" y="969" type="line"/>
      <point x="464" y="530" type="line"/>
      <point x="895" y="5" type="line"/>
      <point x="892" y="0" type="line"/>
      <point x="769" y="0" type="line"/>
    </contour>
  </outline>
</glyph>
<glyph name="m" format="1">
  <advance width="1634"/>
  <unicode hex="006D"/>
  <outline>
    <contour>
      <point x="233" y="974" type="line"/>
      <point x="243" y="813" type="line"/>
      <point x="290" y="898"/>
      <point x="446" y="992"/>
      <point x="554" y="992" type="qcurve" smooth="yes"/>
      <point x="665" y="992"/>
      <point x="815" y="884"/>
      <point x="848" y="773" type="qcurve"/>
      <point x="892" y="876"/>
      <point x="1055" y="992"/>
      <point x="1172" y="992" type="qcurve" smooth="yes"/>
      <point x="1328" y="992"/>
      <point x="1497" y="785"/>
      <point x="1497" y="568" type="qcurve" smooth="yes"/>
      <point x="1497" y="0" type="line"/>
      <point x="1389" y="0" type="line"/>
      <point x="1389" y="570" type="line" smooth="yes"/>
      <point x="1389" y="750"/>
      <point x="1262" y="898"/>
      <point x="1148" y="898" type="qcurve" smooth="yes"/>
      <point x="1023" y="898"/>
      <point x="887" y="742"/>
      <point x="870" y="619" type="qcurve"/>
      <point x="870" y="613"/>
      <point x="871" y="590"/>
      <point x="871" y="584" type="qcurve" smooth="yes"/>
      <point x="871" y="0" type="line"/>
      <point x="762" y="0" type="line"/>
      <point x="762" y="570" type="line" smooth="yes"/>
      <point x="762" y="746"/>
      <point x="634" y="898"/>
      <point x="521" y="898" type="qcurve" smooth="yes"/>
      <point x="407" y="898"/>
      <point x="273" y="782"/>
      <point x="246" y="684" type="qcurve"/>
      <point x="246" y="0" type="line"/>
      <point x="137" y="0" type="line"/>
      <point x="137" y="974" type="line"/>
    </contour>
  </outline>
</glyph>
<glyph name="n" format="1">
  <advance width="1026"/>
  <unicode hex="006E"/>
  <outline>
    <contour>
      <point x="238" y="974" type="line"/>
      <point x="247" y="804" type="line"/>
      <point x="294" y="894"/>
      <point x="454" y="992"/>
      <point x="563" y="992" type="qcurve" smooth="yes"/>
      <point x="721" y="992"/>
      <point x="887" y="798"/>
      <point x="887" y="593" type="qcurve" smooth="yes"/>
      <point x="887" y="0" type="line"/>
      <point x="779" y="0" type="line"/>
      <point x="779" y="592" type="line" smooth="yes"/>
      <point x="779" y="760"/>
      <point x="653" y="898"/>
      <point x="538" y="898" type="qcurve" smooth="yes"/>
      <point x="425" y="898"/>
      <point x="282" y="779"/>
      <point x="250" y="680" type="qcurve"/>
      <point x="250" y="0" type="line"/>
      <point x="142" y="0" type="line"/>
      <point x="142" y="974" type="line"/>
    </contour>
  </outline>
</glyph>
<glyph name="o" format="1">
  <advance width="1026"/>
  <unicode hex="006F"/>
  <outline>
    <contour>
      <point x="82" y="499" type="line" smooth="yes"/>
      <point x="82" y="714"/>
      <point x="318" y="990"/>
      <point x="512" y="990" type="qcurve" smooth="yes"/>
      <point x="707" y="990"/>
      <point x="943" y="714"/>
      <point x="943" y="499" type="qcurve" smooth="yes"/>
      <point x="943" y="470" type="line" smooth="yes"/>
      <point x="943" y="254"/>
      <point x="708" y="-21"/>
      <point x="514" y="-21" type="qcurve" smooth="yes"/>
      <point x="318" y="-21"/>
      <point x="82" y="254"/>
      <point x="82" y="470" type="qcurve" smooth="yes"/>
    </contour>
    <contour>
      <point x="190" y="470" type="line" smooth="yes"/>
      <point x="190" y="300"/>
      <point x="361" y="70"/>
      <point x="514" y="70" type="qcurve" smooth="yes"/>
      <point x="664" y="70"/>
      <point x="836" y="300"/>
      <point x="836" y="470" type="qcurve" smooth="yes"/>
      <point x="836" y="499" type="line" smooth="yes"/>
      <point x="836" y="666"/>
      <point x="663" y="898"/>
      <point x="512" y="898" type="qcurve" smooth="yes"/>
      <point x="361" y="898"/>
      <point x="190" y="666"/>
      <point x="190" y="499" type="qcurve" smooth="yes"/>
    </contour>
  </outline>
</glyph>
<glyph name="p" format="1">
  <advance width="1026"/>
  <unicode hex="0070"/>
  <outline>
    <contour>
      <point x="926" y="418" type="line" smooth="yes"/>
      <point x="926" y="200"/>
      <point x="728" y="-60"/>
      <point x="554" y="-60" type="qcurve" smooth="yes"/>
      <point x="452" y="-60"/>
      <point x="298" y="17"/>
      <point x="249" y="89" type="qcurve"/>
      <point x="249" y="-416" type="line"/>
      <point x="141" y="-416" type="line"/>
      <point x="141" y="932" type="line"/>
      <point x="232" y="932" type="line"/>
      <point x="246" y="781" type="line"/>
      <point x="294" y="862"/>
      <point x="448" y="950"/>
      <point x="553" y="950" type="qcurve" smooth="yes"/>
      <point x="728" y="950"/>
      <point x="926" y="670"/>
      <point x="926" y="437" type="qcurve" smooth="yes"/>
    </contour>
    <contour>
      <point x="818" y="437" type="line" smooth="yes"/>
      <point x="818" y="623"/>
      <point x="671" y="857"/>
      <point x="528" y="857" type="qcurve" smooth="yes"/>
      <point x="419" y="857"/>
      <point x="284" y="753"/>
      <point x="249" y="670" type="qcurve"/>
      <point x="249" y="202" type="line"/>
      <point x="286" y="122"/>
      <point x="426" y="30"/>
      <point x="530" y="30" type="qcurve" smooth="yes"/>
      <point x="671" y="30"/>
      <point x="818" y="243"/>
      <point x="818" y="418" type="qcurve" smooth="yes"/>
    </contour>
  </outline>
</glyph>
<glyph name="q" format="1">
  <advance width="1026"/>
  <unicode hex="0071"/>
  <outline>
    <contour>
      <point x="100" y="437" type="line" smooth="yes"/>
      <point x="100" y="670"/>
      <point x="297" y="950"/>
      <point x="473" y="950" type="qcurve" smooth="yes"/>
      <point x="573" y="950"/>
      <point x="724" y="867"/>
      <point x="772" y="789" type="qcurve"/>
      <point x="783" y="932" type="line"/>
      <point x="877" y="932" type="line"/>
      <point x="877" y="-416" type="line"/>
      <point x="770" y="-416" type="line"/>
      <point x="770" y="86" type="line"/>
      <point x="720" y="15"/>
      <point x="571" y="-60"/>
      <point x="472" y="-60" type="qcurve" smooth="yes"/>
      <point x="297" y="-60"/>
      <point x="100" y="200"/>
      <point x="100" y="418" type="qcurve" smooth="yes"/>
    </contour>
    <contour>
      <point x="208" y="418" type="line" smooth="yes"/>
      <point x="208" y="242"/>
      <point x="349" y="30"/>
      <point x="491" y="30" type="qcurve" smooth="yes"/>
      <point x="592" y="30"/>
      <point x="730" y="121"/>
      <point x="770" y="200" type="qcurve"/>
      <point x="770" y="677" type="line"/>
      <point x="733" y="757"/>
      <point x="597" y="858"/>
      <point x="493" y="858" type="qcurve" smooth="yes"/>
      <point x="351" y="858"/>
      <point x="208" y="624"/>
      <point x="208" y="437" type="qcurve" smooth="yes"/>
    </contour>
  </outline>
</glyph>
<glyph name="r" format="1">
  <advance width="627"/>
  <unicode hex="0072"/>
  <outline>
    <contour>
      <point x="590" y="881" type="line"/>
      <point x="510" y="887" type="line"/>
      <point x="409" y="887"/>
      <point x="278" y="772"/>
      <point x="250" y="672" type="qcurve"/>
      <point x="250" y="0" type="line"/>
      <point x="142" y="0" type="line"/>
      <point x="142" y="974" type="line"/>
      <point x="237" y="974" type="line"/>
      <point x="250" y="812" type="line"/>
      <point x="250" y="801" type="line"/>
      <point x="293" y="891"/>
      <point x="435" y="992"/>
      <point x="533" y="992" type="qcurve" smooth="yes"/>
      <point x="554" y="992"/>
      <point x="592" y="986"/>
      <point x="605" y="982" type="qcurve"/>
    </contour>
  </outline>
</glyph>
<glyph name="s" format="1">
  <advance width="939"/>
  <unicode hex="0073"/>
  <outline>
    <contour>
      <point x="725" y="245" type="qcurve" smooth="yes"/>
      <point x="725" y="314"/>
      <point x="613" y="416"/>
      <point x="466" y="449" type="qcurve" smooth="yes"/>
      <point x="292" y="487"/>
      <point x="125" y="611"/>
      <point x="125" y="724" type="qcurve" smooth="yes"/>
      <point x="125" y="836"/>
      <point x="313" y="990"/>
      <point x="468" y="990" type="qcurve" smooth="yes"/>
      <point x="633" y="990"/>
      <point x="825" y="827"/>
      <point x="821" y="704" type="qcurve"/>
      <point x="819" y="699" type="line"/>
      <point x="719" y="699" type="line"/>
      <point x="719" y="779"/>
      <point x="583" y="898"/>
      <point x="468" y="898" type="qcurve" smooth="yes"/>
      <point x="350" y="898"/>
      <point x="232" y="796"/>
      <point x="232" y="728" type="qcurve" smooth="yes"/>
      <point x="232" y="660"/>
      <point x="334" y="572"/>
      <point x="486" y="539" type="qcurve" smooth="yes"/>
      <point x="660" y="500"/>
      <point x="833" y="366"/>
      <point x="833" y="251" type="qcurve" smooth="yes"/>
      <point x="833" y="129"/>
      <point x="635" y="-21"/>
      <point x="473" y="-21" type="qcurve" smooth="yes"/>
      <point x="296" y="-21"/>
      <point x="94" y="148"/>
      <point x="99" y="265" type="qcurve"/>
      <point x="101" y="271" type="line"/>
      <point x="200" y="271" type="line"/>
      <point x="206" y="165"/>
      <point x="365" y="70"/>
      <point x="473" y="70" type="qcurve" smooth="yes"/>
      <point x="590" y="70"/>
      <point x="725" y="173"/>
    </contour>
  </outline>
</glyph>
<glyph name="t" format="1">
  <advance width="612.0"/>
  <unicode hex="0074"/>
  <outline>
    <contour>
      <point x="311" y="1221" type="line"/>
      <point x="311" y="972" type="line"/>
      <point x="526" y="972" type="line"/>
      <point x="526" y="884" type="line"/>
      <point x="311" y="884" type="line"/>
      <point x="311" y="249" type="line" smooth="yes"/>
      <point x="311" y="154"/>
      <point x="381" y="74"/>
      <point x="438" y="74" type="qcurve" smooth="yes"/>
      <point x="464" y="74"/>
      <point x="514" y="78"/>
      <point x="546" y="83" type="qcurve"/>
      <point x="563" y="3" type="line"/>
      <point x="536" y="-8"/>
      <point x="458" y="-21"/>
      <point x="419" y="-21" type="qcurve" smooth="yes"/>
      <point x="317" y="-21"/>
      <point x="203" y="109"/>
      <point x="203" y="249" type="qcurve" smooth="yes"/>
      <point x="203" y="884" type="line"/>
      <point x="34" y="884" type="line"/>
      <point x="34" y="972" type="line"/>
      <point x="203" y="972" type="line"/>
      <point x="203" y="1221" type="line"/>
    </contour>
  </outline>
</glyph>
<glyph name="u" format="1">
  <advance width="1026"/>
  <unicode hex="0075"/>
  <outline>
    <contour>
      <point x="780" y="157" type="line"/>
      <point x="734" y="72"/>
      <point x="575" y="-21"/>
      <point x="467" y="-21" type="qcurve" smooth="yes"/>
      <point x="313" y="-21"/>
      <point x="139" y="188"/>
      <point x="139" y="407" type="qcurve" smooth="yes"/>
      <point x="139" y="972" type="line"/>
      <point x="247" y="972" type="line"/>
      <point x="247" y="406" type="line" smooth="yes"/>
      <point x="247" y="227"/>
      <point x="368" y="73"/>
      <point x="480" y="73" type="qcurve" smooth="yes"/>
      <point x="602" y="73"/>
      <point x="748" y="182"/>
      <point x="777" y="279" type="qcurve"/>
      <point x="777" y="972" type="line"/>
      <point x="885" y="972" type="line"/>
      <point x="885" y="-2" type="line"/>
      <point x="789" y="-2" type="line"/>
    </contour>
  </outline>
</glyph>
<glyph name="v" format="1">
  <advance width="902"/>
  <unicode hex="0076"/>
  <outline>
    <contour>
      <point x="419" y="244" type="line"/>
      <point x="451" y="130" type="line"/>
      <point x="456" y="130" type="line"/>
      <point x="491" y="244" type="line"/>
      <point x="755" y="974" type="line"/>
      <point x="867" y="974" type="line"/>
      <point x="497" y="0" type="line"/>
      <point x="410" y="0" type="line"/>
      <point x="40" y="974" type="line"/>
      <point x="151" y="974" type="line"/>
    </contour>
  </outline>
</glyph>
<glyph name="w" format="1">
  <advance width="1395"/>
  <unicode hex="0077"/>
  <outline>
    <contour>
      <point x="352" y="316" type="line"/>
      <point x="389" y="142" type="line"/>
      <point x="394" y="142" type="line"/>
      <point x="440" y="316" type="line"/>
      <point x="647" y="974" type="line"/>
      <point x="740" y="974" type="line"/>
      <point x="947" y="316" type="line"/>
      <point x="994" y="138" type="line"/>
      <point x="999" y="138" type="line"/>
      <point x="1040" y="316" type="line"/>
      <point x="1217" y="974" type="line"/>
      <point x="1328" y="974" type="line"/>
      <point x="1045" y="0" type="line"/>
      <point x="953" y="0" type="line"/>
      <point x="737" y="666" type="line"/>
      <point x="695" y="834" type="line"/>
      <point x="689" y="834" type="line"/>
      <point x="646" y="666" type="line"/>
      <point x="434" y="0" type="line"/>
      <point x="341" y="0" type="line"/>
      <point x="59" y="974" type="line"/>
      <point x="170" y="974" type="line"/>
    </contour>
  </outline>
</glyph>
<glyph name="x" format="1">
  <advance width="902"/>
  <unicode hex="0078"/>
  <outline>
    <contour>
      <point x="448" y="576" type="line"/>
      <point x="712" y="974" type="line"/>
      <point x="840" y="974" type="line"/>
      <point x="509" y="496" type="line"/>
      <point x="853" y="0" type="line"/>
      <point x="727" y="0" type="line"/>
      <point x="450" y="415" type="line"/>
      <point x="173" y="0" type="line"/>
      <point x="45" y="0" type="line"/>
      <point x="390" y="496" type="line"/>
      <point x="59" y="974" type="line"/>
      <point x="186" y="974" type="line"/>
    </contour>
  </outline>
</glyph>
<glyph name="y" format="1">
  <advance width="902"/>
  <unicode hex="0079"/>
  <outline>
    <contour>
      <point x="419" y="220" type="line"/>
      <point x="453" y="104" type="line"/>
      <point x="458" y="104" type="line"/>
      <point x="752" y="930" type="line"/>
      <point x="873" y="930" type="line"/>
      <point x="450" y="-199" type="line" smooth="yes"/>
      <point x="412" y="-298"/>
      <point x="292" y="-437"/>
      <point x="176" y="-437" type="qcurve" smooth="yes"/>
      <point x="157" y="-437"/>
      <point x="103" y="-429"/>
      <point x="90" y="-424" type="qcurve"/>
      <point x="103" y="-334" type="line"/>
      <point x="113" y="-336"/>
      <point x="161" y="-341"/>
      <point x="172" y="-341" type="qcurve" smooth="yes"/>
      <point x="242" y="-341"/>
      <point x="327" y="-241"/>
      <point x="356" y="-163" type="qcurve" smooth="yes"/>
      <point x="408" y="-31" type="line"/>
      <point x="32" y="930" type="line"/>
      <point x="151" y="930" type="line"/>
    </contour>
  </outline>
</glyph>
<glyph name="z" format="1">
  <advance width="902"/>
  <unicode hex="007A"/>
  <outline>
    <contour>
      <point x="214" y="91" type="line"/>
      <point x="847" y="91" type="line"/>
      <point x="847" y="0" type="line"/>
      <point x="81" y="0" type="line"/>
      <point x="81" y="79" type="line"/>
      <point x="668" y="881" type="line"/>
      <point x="99" y="881" type="line"/>
      <point x="99" y="974" type="line"/>
      <point x="804" y="974" type="line"/>
      <point x="804" y="894" type="line"/>
    </contour>
  </outline>
</glyph>
<glyph name="braceleft" format="1">
  <advance width="794"/>
  <unicode hex="007B"/>
  <outline>
    <contour>
      <point x="648" y="-368" type="line"/>
      <point x="484" y="-318"/>
      <point x="346" y="-104"/>
      <point x="346" y="49" type="qcurve"/>
      <point x="346" y="254" type="line"/>
      <point x="346" y="365"/>
      <point x="243" y="489"/>
      <point x="137" y="489" type="qcurve"/>
      <point x="137" y="579" type="line"/>
      <point x="243" y="579"/>
      <point x="346" y="701"/>
      <point x="346" y="812" type="qcurve"/>
      <point x="346" y="1019" type="line"/>
      <point x="346" y="1173"/>
      <point x="484" y="1388"/>
      <point x="648" y="1437" type="qcurve"/>
      <point x="671" y="1369" type="line"/>
      <point x="555" y="1332"/>
      <point x="449" y="1150"/>
      <point x="449" y="1019" type="qcurve"/>
      <point x="449" y="812" type="line"/>
      <point x="449" y="710"/>
      <point x="363" y="564"/>
      <point x="274" y="533" type="qcurve"/>
      <point x="363" y="503"/>
      <point x="449" y="355"/>
      <point x="449" y="254" type="qcurve"/>
      <point x="449" y="49" type="line"/>
      <point x="449" y="-81"/>
      <point x="557" y="-259"/>
      <point x="674" y="-299" type="qcurve"/>
    </contour>
  </outline>
</glyph>
<glyph name="bar" format="1">
  <advance width="553"/>
  <unicode hex="007C"/>
  <outline>
    <contour>
      <point x="323" y="-243" type="line"/>
      <point x="235" y="-243" type="line"/>
      <point x="235" y="1310" type="line"/>
      <point x="323" y="1310" type="line"/>
    </contour>
  </outline>
</glyph>
<glyph name="asciitilde" format="1">
  <advance width="1262"/>
  <unicode hex="007E"/>
  <outline>
    <contour>
      <point x="1131" y="708" type="line"/>
      <point x="1131" y="592"/>
      <point x="986" y="423"/>
      <point x="877" y="423" type="qcurve" smooth="yes"/>
      <point x="797" y="423"/>
      <point x="667" y="487"/>
      <point x="588" y="558" type="qcurve" smooth="yes"/>
      <point x="530" y="607"/>
      <point x="432" y="654"/>
      <point x="382" y="654" type="qcurve" smooth="yes"/>
      <point x="311" y="654"/>
      <point x="216" y="545"/>
      <point x="216" y="455" type="qcurve"/>
      <point x="129" y="469" type="line"/>
      <point x="129" y="587"/>
      <point x="271" y="751"/>
      <point x="382" y="751" type="qcurve" smooth="yes"/>
      <point x="460" y="751"/>
      <point x="592" y="684"/>
      <point x="672" y="616" type="qcurve" smooth="yes"/>
      <point x="729" y="564"/>
      <point x="825" y="518"/>
      <point x="877" y="518" type="qcurve" smooth="yes"/>
      <point x="946" y="518"/>
      <point x="1043" y="634"/>
      <point x="1043" y="722" type="qcurve"/>
    </contour>
  </outline>
</glyph>
<glyph name="exclamdown" format="1">
  <advance width="407"/>
  <unicode hex="00A1"/>
  <outline>
    <contour>
      <point x="157" y="585" type="line"/>
      <point x="257" y="585" type="line"/>
      <point x="263" y="-359" type="line"/>
      <point x="151" y="-359" type="line"/>
    </contour>
    <contour>
      <point x="275" y="884" type="qcurve" smooth="yes"/>
      <point x="275" y="853"/>
      <point x="235" y="812"/>
      <point x="201" y="812" type="qcurve" smooth="yes" name="inserted"/>
      <point x="167" y="812"/>
      <point x="126" y="853"/>
      <point x="126" y="884" type="qcurve" smooth="yes" name="inserted"/>
      <point x="126" y="915"/>
      <point x="167" y="956"/>
      <point x="201" y="956" type="qcurve" smooth="yes" name="inserted"/>
      <point x="235" y="956"/>
      <point x="275" y="915"/>
    </contour>
  </outline>
</glyph>
<glyph name="cent" format="1">
  <advance width="1004"/>
  <unicode hex="00A2"/>
  <outline>
    <contour>
      <point x="523" y="48" type="qcurve" smooth="yes"/>
      <point x="634" y="48"/>
      <point x="786" y="174"/>
      <point x="794" y="276" type="qcurve"/>
      <point x="897" y="276" type="line"/>
      <point x="890" y="151"/>
      <point x="706" y="-25"/>
      <point x="572" y="-40" type="qcurve"/>
      <point x="572" y="-245" type="line"/>
      <point x="464" y="-245" type="line"/>
      <point x="464" y="-39" type="line"/>
      <point x="298" y="-18"/>
      <point x="107" y="239"/>
      <point x="107" y="449" type="qcurve" smooth="yes"/>
      <point x="107" y="481" type="line" smooth="yes"/>
      <point x="107" y="681"/>
      <point x="297" y="943"/>
      <point x="464" y="964" type="qcurve"/>
      <point x="464" y="1162" type="line"/>
      <point x="572" y="1162" type="line"/>
      <point x="572" y="965" type="line"/>
      <point x="712" y="950"/>
      <point x="892" y="761"/>
      <point x="897" y="621" type="qcurve"/>
      <point x="794" y="621" type="line"/>
      <point x="787" y="735"/>
      <point x="636" y="876"/>
      <point x="522" y="876" type="qcurve" smooth="yes"/>
      <point x="376" y="876"/>
      <point x="215" y="665"/>
      <point x="215" y="475" type="qcurve" smooth="yes"/>
      <point x="215" y="444" type="line" smooth="yes"/>
      <point x="215" y="257"/>
      <point x="376" y="48"/>
    </contour>
  </outline>
</glyph>
<glyph name="sterling" format="1">
  <advance width="1053.0"/>
  <unicode hex="00A3"/>
  <outline>
    <contour>
      <point x="364" y="581" type="line"/>
      <point x="372" y="331" type="line" smooth="yes"/>
      <point x="373" y="253" name="inserted"/>
      <point x="344" y="134"/>
      <point x="314" y="94" type="qcurve"/>
      <point x="985" y="94" type="line"/>
      <point x="985" y="0" type="line"/>
      <point x="87" y="0" type="line"/>
      <point x="87" y="94" type="line"/>
      <point x="176" y="94" type="line"/>
      <point x="198" y="99" name="inserted"/>
      <point x="233" y="148"/>
      <point x="245" y="190" type="qcurve" smooth="yes"/>
      <point x="254" y="223" name="inserted"/>
      <point x="262" y="293"/>
      <point x="261" y="330" type="qcurve" smooth="yes"/>
      <point x="253" y="581" type="line"/>
      <point x="84" y="581" type="line"/>
      <point x="84" y="674" type="line"/>
      <point x="249" y="674" type="line"/>
      <point x="241" y="935" type="line" smooth="yes"/>
      <point x="241" y="1115"/>
      <point x="440" y="1328"/>
      <point x="607" y="1328" type="qcurve" smooth="yes"/>
      <point x="770" y="1328"/>
      <point x="960" y="1139"/>
      <point x="960" y="979" type="qcurve"/>
      <point x="850" y="979" type="line"/>
      <point x="850" y="1101"/>
      <point x="715" y="1234"/>
      <point x="599" y="1234" type="qcurve" smooth="yes"/>
      <point x="486" y="1234"/>
      <point x="353" y="1075"/>
      <point x="353" y="935" type="qcurve" smooth="yes"/>
      <point x="361" y="674" type="line"/>
      <point x="671" y="674" type="line"/>
      <point x="671" y="581" type="line"/>
    </contour>
  </outline>
</glyph>
<glyph name="currency" format="1">
  <advance width="1333"/>
  <unicode hex="00A4"/>
  <outline>
    <contour>
      <point x="1018" y="117" type="line"/>
      <point x="948" y="52"/>
      <point x="768" y="-21"/>
      <point x="666" y="-21" type="qcurve" smooth="yes"/>
      <point x="564" y="-21" name="inserted"/>
      <point x="388" y="48"/>
      <point x="314" y="116" type="qcurve"/>
      <point x="175" y="-26" type="line"/>
      <point x="98" y="51" type="line"/>
      <point x="241" y="196" type="line"/>
      <point x="185" y="272" name="inserted"/>
      <point x="130" y="446"/>
      <point x="130" y="545" type="qcurve" smooth="yes"/>
      <point x="130" y="647" name="inserted"/>
      <point x="189" y="826"/>
      <point x="249" y="903" type="qcurve"/>
      <point x="98" y="1057" type="line"/>
      <point x="175" y="1135" type="line"/>
      <point x="325" y="982" type="line"/>
      <point x="473" y="1108"/>
      <point x="859" y="1108"/>
      <point x="1007" y="980" type="qcurve"/>
      <point x="1160" y="1136" type="line"/>
      <point x="1238" y="1057" type="line"/>
      <point x="1084" y="899" type="line"/>
      <point x="1142" y="823" name="inserted"/>
      <point x="1201" y="645"/>
      <point x="1201" y="545" type="qcurve" smooth="yes"/>
      <point x="1201" y="448" name="inserted"/>
      <point x="1146" y="275"/>
      <point x="1091" y="199" type="qcurve"/>
      <point x="1238" y="51" type="line"/>
      <point x="1160" y="-27" type="line"/>
    </contour>
    <contour>
      <point x="231" y="545" type="qcurve" smooth="yes"/>
      <point x="231" y="420"/>
      <point x="347" y="204"/>
      <point x="449" y="142" type="qcurve" smooth="yes" name="inserted"/>
      <point x="500" y="110" name="inserted"/>
      <point x="608" y="79"/>
      <point x="666" y="79" type="qcurve" smooth="yes"/>
      <point x="782" y="79"/>
      <point x="984" y="205"/>
      <point x="1041" y="313" type="qcurve" smooth="yes" name="inserted"/>
      <point x="1070" y="367" name="inserted"/>
      <point x="1099" y="482"/>
      <point x="1099" y="545" type="qcurve" smooth="yes"/>
      <point x="1099" y="670"/>
      <point x="981" y="885"/>
      <point x="881" y="946" type="qcurve" smooth="yes" name="inserted"/>
      <point x="781" y="1007"/>
      <point x="551" y="1007"/>
      <point x="450" y="946" type="qcurve" smooth="yes" name="inserted"/>
      <point x="349" y="885"/>
      <point x="231" y="670"/>
    </contour>
  </outline>
</glyph>
<glyph name="yen" format="1">
  <advance width="1101"/>
  <unicode hex="00A5"/>
  <outline>
    <contour>
      <point x="546" y="661" type="line"/>
      <point x="925" y="1310" type="line"/>
      <point x="1054" y="1310" type="line"/>
      <point x="646" y="635" type="line"/>
      <point x="977" y="635" type="line"/>
      <point x="977" y="554" type="line"/>
      <point x="600" y="554" type="line"/>
      <point x="600" y="371" type="line"/>
      <point x="977" y="371" type="line"/>
      <point x="977" y="292" type="line"/>
      <point x="600" y="292" type="line"/>
      <point x="600" y="0" type="line"/>
      <point x="490" y="0" type="line"/>
      <point x="490" y="292" type="line"/>
      <point x="117" y="292" type="line"/>
      <point x="117" y="371" type="line"/>
      <point x="490" y="371" type="line"/>
      <point x="490" y="554" type="line"/>
      <point x="117" y="554" type="line"/>
      <point x="117" y="635" type="line"/>
      <point x="446" y="635" type="line"/>
      <point x="40" y="1310" type="line"/>
      <point x="168" y="1310" type="line"/>
    </contour>
  </outline>
</glyph>
<glyph name="brokenbar" format="1">
  <advance width="400"/>
  <unicode hex="00A6"/>
  <outline>
    <contour>
      <point x="143" y="-270" type="line"/>
      <point x="143" y="424" type="line"/>
      <point x="251" y="424" type="line"/>
      <point x="251" y="-270" type="line"/>
    </contour>
    <contour>
      <point x="251" y="601" type="line"/>
      <point x="143" y="601" type="line"/>
      <point x="143" y="1283" type="line"/>
      <point x="251" y="1283" type="line"/>
    </contour>
  </outline>
</glyph>
<glyph name="section" format="1">
  <advance width="1115"/>
  <unicode hex="00A7"/>
  <outline>
    <contour>
      <point x="1007" y="338" type="qcurve" smooth="yes"/>
      <point x="1007" y="248"/>
      <point x="896" y="123"/>
      <point x="798" y="94" type="qcurve"/>
      <point x="880" y="50"/>
      <point x="968" y="-76"/>
      <point x="968" y="-175" type="qcurve" smooth="yes"/>
      <point x="968" y="-322"/>
      <point x="741" y="-495"/>
      <point x="545" y="-495" type="qcurve" smooth="yes"/>
      <point x="447" y="-495"/>
      <point x="274" y="-445"/>
      <point x="212" y="-393" type="qcurve" smooth="yes"/>
      <point x="152" y="-342" name="inserted"/>
      <point x="92" y="-199"/>
      <point x="92" y="-107" type="qcurve"/>
      <point x="200" y="-105" type="line"/>
      <point x="200" y="-246"/>
      <point x="386" y="-403"/>
      <point x="545" y="-403" type="qcurve" smooth="yes"/>
      <point x="689" y="-403"/>
      <point x="859" y="-278"/>
      <point x="859" y="-176" type="qcurve" smooth="yes"/>
      <point x="859" y="-107"/>
      <point x="797" y="-23"/>
      <point x="725" y="13" type="qcurve" smooth="yes" name="inserted"/>
      <point x="653" y="48"/>
      <point x="334" y="134"/>
      <point x="256" y="180" type="qcurve" smooth="yes" name="inserted"/>
      <point x="177" y="227"/>
      <point x="97" y="356"/>
      <point x="97" y="446" type="qcurve" smooth="yes"/>
      <point x="97" y="536"/>
      <point x="203" y="663"/>
      <point x="298" y="693" type="qcurve"/>
      <point x="221" y="735"/>
      <point x="138" y="861"/>
      <point x="138" y="959" type="qcurve" smooth="yes"/>
      <point x="138" y="1103"/>
      <point x="370" y="1279"/>
      <point x="562" y="1279" type="qcurve" smooth="yes"/>
      <point x="763" y="1279"/>
      <point x="987" y="1076"/>
      <point x="987" y="891" type="qcurve"/>
      <point x="879" y="891" type="line"/>
      <point x="879" y="1022"/>
      <point x="707" y="1187"/>
      <point x="562" y="1187" type="qcurve" smooth="yes"/>
      <point x="413" y="1187"/>
      <point x="246" y="1064"/>
      <point x="246" y="960" type="qcurve" smooth="yes"/>
      <point x="246" y="889"/>
      <point x="302" y="805"/>
      <point x="370" y="770" type="qcurve" smooth="yes" name="inserted"/>
      <point x="404" y="753" name="inserted"/>
      <point x="510" y="716"/>
      <point x="581" y="696" type="qcurve" smooth="yes"/>
      <point x="758" y="650"/>
      <point x="928" y="557"/>
      <point x="968" y="493" type="qcurve" smooth="yes" name="inserted"/>
      <point x="987" y="461" name="inserted"/>
      <point x="1007" y="384"/>
    </contour>
    <contour>
      <point x="409" y="644" type="line"/>
      <point x="311" y="633"/>
      <point x="205" y="528"/>
      <point x="205" y="448" type="qcurve" smooth="yes"/>
      <point x="205" y="374"/>
      <point x="269" y="287"/>
      <point x="342" y="253" type="qcurve" smooth="yes" name="inserted"/>
      <point x="378" y="236" name="inserted"/>
      <point x="505" y="194"/>
      <point x="597" y="168" type="qcurve" smooth="yes"/>
      <point x="680" y="143" type="line"/>
      <point x="780" y="155"/>
      <point x="899" y="258"/>
      <point x="899" y="336" type="qcurve" smooth="yes"/>
      <point x="899" y="424"/>
      <point x="779" y="530"/>
      <point x="623" y="581" type="qcurve" smooth="yes"/>
    </contour>
  </outline>
</glyph>
<glyph name="dieresis" format="1">
  <advance width="793"/>
  <unicode hex="00A8"/>
  <outline>
    <contour>
      <point x="129" y="1388" type="qcurve" smooth="yes"/>
      <point x="129" y="1419"/>
      <point x="167" y="1461"/>
      <point x="203" y="1461" type="qcurve" smooth="yes"/>
      <point x="237" y="1461"/>
      <point x="277" y="1419"/>
      <point x="277" y="1388" type="qcurve" smooth="yes"/>
      <point x="277" y="1358"/>
      <point x="237" y="1317"/>
      <point x="203" y="1317" type="qcurve" smooth="yes"/>
      <point x="167" y="1317"/>
      <point x="129" y="1358"/>
    </contour>
    <contour>
      <point x="522" y="1387" type="qcurve" smooth="yes"/>
      <point x="522" y="1418"/>
      <point x="562" y="1460"/>
      <point x="596" y="1460" type="qcurve" smooth="yes"/>
      <point x="631" y="1460"/>
      <point x="671" y="1418"/>
      <point x="671" y="1387" type="qcurve" smooth="yes"/>
      <point x="671" y="1357"/>
      <point x="631" y="1316"/>
      <point x="596" y="1316" type="qcurve" smooth="yes"/>
      <point x="562" y="1316"/>
      <point x="522" y="1357"/>
    </contour>
  </outline>
</glyph>
<glyph name="copyright" format="1">
  <advance width="1473"/>
  <unicode hex="00A9"/>
  <outline>
    <contour>
      <point x="1002" y="534" type="line"/>
      <point x="1004" y="529" type="line"/>
      <point x="1007" y="394"/>
      <point x="859" y="252"/>
      <point x="726" y="252" type="qcurve" smooth="yes"/>
      <point x="590" y="252"/>
      <point x="427" y="443"/>
      <point x="427" y="600" type="qcurve" smooth="yes"/>
      <point x="427" y="707" type="line" smooth="yes"/>
      <point x="427" y="862"/>
      <point x="590" y="1055"/>
      <point x="726" y="1055" type="qcurve" smooth="yes"/>
      <point x="859" y="1055"/>
      <point x="1008" y="913"/>
      <point x="1004" y="779" type="qcurve"/>
      <point x="1003" y="774" type="line"/>
      <point x="921" y="774" type="line"/>
      <point x="921" y="875"/>
      <point x="822" y="974"/>
      <point x="726" y="974" type="qcurve" smooth="yes"/>
      <point x="627" y="974"/>
      <point x="516" y="824"/>
      <point x="516" y="708" type="qcurve" smooth="yes"/>
      <point x="516" y="600" type="line" smooth="yes"/>
      <point x="516" y="481"/>
      <point x="626" y="333"/>
      <point x="726" y="333" type="qcurve" smooth="yes"/>
      <point x="823" y="333"/>
      <point x="920" y="430"/>
      <point x="920" y="534" type="qcurve"/>
    </contour>
    <contour>
      <point x="173" y="654" type="qcurve" smooth="yes"/>
      <point x="173" y="403"/>
      <point x="501" y="56"/>
      <point x="735" y="56" type="qcurve" smooth="yes"/>
      <point x="967" y="56"/>
      <point x="1297" y="403"/>
      <point x="1297" y="654" type="qcurve" smooth="yes"/>
      <point x="1297" y="903"/>
      <point x="968" y="1248"/>
      <point x="735" y="1248" type="qcurve" smooth="yes"/>
      <point x="501" y="1248"/>
      <point x="173" y="903"/>
    </contour>
    <contour>
      <point x="96" y="654" type="qcurve" smooth="yes"/>
      <point x="96" y="938"/>
      <point x="469" y="1326"/>
      <point x="735" y="1326" type="qcurve" smooth="yes"/>
      <point x="1001" y="1326"/>
      <point x="1373" y="938"/>
      <point x="1373" y="654" type="qcurve" smooth="yes"/>
      <point x="1373" y="370"/>
      <point x="1000" y="-21"/>
      <point x="735" y="-21" type="qcurve" smooth="yes"/>
      <point x="469" y="-21"/>
      <point x="96" y="370"/>
    </contour>
  </outline>
</glyph>
<glyph name="ordfeminine" format="1">
  <advance width="815"/>
  <unicode hex="00AA"/>
  <outline>
    <contour>
      <point x="584" y="704" type="line"/>
      <point x="577" y="723" name="inserted"/>
      <point x="568" y="765"/>
      <point x="565" y="788" type="qcurve"/>
      <point x="526" y="740" name="inserted"/>
      <point x="426" y="691"/>
      <point x="365" y="691" type="qcurve" smooth="yes"/>
      <point x="260" y="691"/>
      <point x="141" y="796"/>
      <point x="141" y="886" type="qcurve" smooth="yes"/>
      <point x="141" y="985"/>
      <point x="292" y="1095"/>
      <point x="437" y="1095" type="qcurve" smooth="yes"/>
      <point x="563" y="1095" type="line"/>
      <point x="563" y="1150" type="line" smooth="yes"/>
      <point x="563" y="1227"/>
      <point x="491" y="1311"/>
      <point x="418" y="1311" type="qcurve" smooth="yes"/>
      <point x="337" y="1311"/>
      <point x="244" y="1247"/>
      <point x="244" y="1182" type="qcurve"/>
      <point x="148" y="1188" type="line"/>
      <point x="148" y="1280"/>
      <point x="297" y="1398"/>
      <point x="418" y="1398" type="qcurve" smooth="yes"/>
      <point x="529" y="1398"/>
      <point x="661" y="1269"/>
      <point x="661" y="1148" type="qcurve" smooth="yes"/>
      <point x="661" y="865" type="line" smooth="yes"/>
      <point x="661" y="823" name="inserted"/>
      <point x="672" y="743"/>
      <point x="684" y="704" type="qcurve"/>
    </contour>
    <contour>
      <point x="383" y="777" type="qcurve" smooth="yes"/>
      <point x="431" y="777"/>
      <point x="535" y="831"/>
      <point x="563" y="870" type="qcurve"/>
      <point x="563" y="1021" type="line"/>
      <point x="446" y="1021" type="line" smooth="yes"/>
      <point x="343" y="1021" name="inserted"/>
      <point x="239" y="956"/>
      <point x="239" y="890" type="qcurve" smooth="yes"/>
      <point x="239" y="833" name="inserted"/>
      <point x="311" y="777"/>
    </contour>
  </outline>
</glyph>
<glyph name="logicalnot" format="1">
  <advance width="1005"/>
  <unicode hex="00AC"/>
  <outline>
    <contour>
      <point x="842" y="386" type="line"/>
      <point x="734" y="386" type="line"/>
      <point x="734" y="642" type="line"/>
      <point x="112" y="642" type="line"/>
      <point x="112" y="737" type="line"/>
      <point x="842" y="737" type="line"/>
    </contour>
  </outline>
</glyph>
<glyph name="registered" format="1">
  <advance width="1478"/>
  <unicode hex="00AE"/>
  <outline>
    <contour>
      <point x="92" y="654" type="qcurve" smooth="yes"/>
      <point x="92" y="836"/>
      <point x="260" y="1147"/>
      <point x="409" y="1237" type="qcurve" smooth="yes" name="inserted"/>
      <point x="558" y="1326"/>
      <point x="904" y="1326"/>
      <point x="1053" y="1237" type="qcurve" smooth="yes" name="inserted"/>
      <point x="1202" y="1147"/>
      <point x="1370" y="836"/>
      <point x="1370" y="654" type="qcurve" smooth="yes"/>
      <point x="1370" y="475"/>
      <point x="1206" y="165"/>
      <point x="1057" y="72" type="qcurve" smooth="yes" name="inserted"/>
      <point x="908" y="-21"/>
      <point x="554" y="-21"/>
      <point x="405" y="72" type="qcurve" smooth="yes" name="inserted"/>
      <point x="256" y="165"/>
      <point x="92" y="475"/>
    </contour>
    <contour>
      <point x="168" y="654" type="qcurve" smooth="yes"/>
      <point x="168" y="493"/>
      <point x="319" y="216"/>
      <point x="450" y="136" type="qcurve" smooth="yes" name="inserted"/>
      <point x="581" y="56"/>
      <point x="881" y="56"/>
      <point x="1013" y="136" type="qcurve" smooth="yes" name="inserted"/>
      <point x="1144" y="216"/>
      <point x="1292" y="494"/>
      <point x="1292" y="654" type="qcurve" smooth="yes"/>
      <point x="1292" y="812"/>
      <point x="1147" y="1086"/>
      <point x="1016" y="1167" type="qcurve" smooth="yes" name="inserted"/>
      <point x="950" y="1208" name="inserted"/>
      <point x="808" y="1248"/>
      <point x="731" y="1248" type="qcurve" smooth="yes"/>
      <point x="580" y="1248"/>
      <point x="318" y="1089"/>
      <point x="243" y="951" type="qcurve" smooth="yes" name="inserted"/>
      <point x="206" y="883" name="inserted"/>
      <point x="168" y="734"/>
    </contour>
    <contour>
      <point x="585" y="597" type="line"/>
      <point x="585" y="287" type="line"/>
      <point x="497" y="287" type="line"/>
      <point x="497" y="1042" type="line"/>
      <point x="729" y="1042" type="line" smooth="yes"/>
      <point x="861" y="1042"/>
      <point x="1004" y="931"/>
      <point x="1004" y="819" type="qcurve" smooth="yes"/>
      <point x="1004" y="759" name="inserted"/>
      <point x="940" y="670"/>
      <point x="877" y="641" type="qcurve"/>
      <point x="941" y="618"/>
      <point x="992" y="520"/>
      <point x="992" y="452" type="qcurve" smooth="yes" name="inserted"/>
      <point x="992" y="383"/>
      <point x="999" y="322"/>
      <point x="1007" y="301" type="qcurve"/>
      <point x="1007" y="287" type="line"/>
      <point x="915" y="287" type="line"/>
      <point x="909" y="303" name="inserted"/>
      <point x="903" y="385"/>
      <point x="903" y="451" type="qcurve" smooth="yes"/>
      <point x="903" y="531"/>
      <point x="835" y="597"/>
      <point x="754" y="597" type="qcurve" smooth="yes"/>
    </contour>
    <contour>
      <point x="585" y="679" type="line"/>
      <point x="748" y="679" type="line" smooth="yes"/>
      <point x="821" y="679"/>
      <point x="915" y="755"/>
      <point x="915" y="817" type="qcurve" smooth="yes"/>
      <point x="915" y="893"/>
      <point x="837" y="959"/>
      <point x="742" y="961" type="qcurve" smooth="yes"/>
      <point x="585" y="961" type="line"/>
    </contour>
  </outline>
</glyph>
<glyph name="macron" format="1">
  <advance width="787"/>
  <unicode hex="00AF"/>
  <outline>
    <contour>
      <point x="698" y="1359" type="line"/>
      <point x="95" y="1359" type="line"/>
      <point x="95" y="1446" type="line"/>
      <point x="698" y="1446" type="line"/>
    </contour>
  </outline>
</glyph>
<glyph name="degree" format="1">
  <advance width="697"/>
  <unicode hex="00B0"/>
  <outline>
    <contour>
      <point x="567" y="1201" type="qcurve" smooth="yes"/>
      <point x="567" y="1108"/>
      <point x="439" y="980"/>
      <point x="349" y="980" type="qcurve" smooth="yes"/>
      <point x="258" y="980"/>
      <point x="129" y="1109"/>
      <point x="129" y="1201" type="qcurve" smooth="yes" name="inserted"/>
      <point x="129" y="1294"/>
      <point x="260" y="1426"/>
      <point x="349" y="1426" type="qcurve" smooth="yes" name="inserted"/>
      <point x="438" y="1426"/>
      <point x="567" y="1294"/>
    </contour>
    <contour>
      <point x="210" y="1201" type="qcurve" smooth="yes"/>
      <point x="210" y="1141"/>
      <point x="290" y="1062"/>
      <point x="349" y="1062" type="qcurve" smooth="yes" name="inserted"/>
      <point x="409" y="1062"/>
      <point x="486" y="1141"/>
      <point x="486" y="1201" type="qcurve" smooth="yes"/>
      <point x="486" y="1264"/>
      <point x="409" y="1345"/>
      <point x="349" y="1345" type="qcurve" smooth="yes"/>
      <point x="291" y="1345"/>
      <point x="210" y="1264"/>
    </contour>
  </outline>
</glyph>
<glyph name="plusminus" format="1">
  <advance width="977"/>
  <unicode hex="00B1"/>
  <outline>
    <contour>
      <point x="548" y="746" type="line"/>
      <point x="900" y="746" type="line"/>
      <point x="900" y="654" type="line"/>
      <point x="548" y="654" type="line"/>
      <point x="548" y="260" type="line"/>
      <point x="448" y="260" type="line"/>
      <point x="448" y="654" type="line"/>
      <point x="76" y="654" type="line"/>
      <point x="76" y="746" type="line"/>
      <point x="448" y="746" type="line"/>
      <point x="448" y="1140" type="line"/>
      <point x="548" y="1140" type="line"/>
    </contour>
    <contour>
      <point x="867" y="0" type="line"/>
      <point x="115" y="0" type="line"/>
      <point x="115" y="91" type="line"/>
      <point x="867" y="91" type="line"/>
    </contour>
  </outline>
</glyph>
<glyph name="acute" format="1">
  <advance width="518"/>
  <unicode hex="00B4"/>
  <outline>
    <contour>
      <point x="284" y="1496" type="line"/>
      <point x="414" y="1496" type="line"/>
      <point x="206" y="1245" type="line"/>
      <point x="112" y="1245" type="line"/>
    </contour>
  </outline>
</glyph>
<glyph name="uni00B5" format="1">
  <advance width="1026.0"/>
  <unicode hex="00B5"/>
  <outline>
    <contour>
      <point x="253" y="932" type="line"/>
      <point x="253" y="360" type="line" smooth="yes"/>
      <point x="253" y="198"/>
      <point x="366" y="31"/>
      <point x="490" y="31" type="qcurve" smooth="yes"/>
      <point x="608" y="31"/>
      <point x="747" y="135"/>
      <point x="773" y="239" type="qcurve"/>
      <point x="773" y="932" type="line"/>
      <point x="881" y="932" type="line"/>
      <point x="881" y="-42" type="line"/>
      <point x="783" y="-42" type="line"/>
      <point x="777" y="97" type="line"/>
      <point x="733" y="19" name="inserted"/>
      <point x="593" y="-60"/>
      <point x="497" y="-60" type="qcurve" smooth="yes"/>
      <point x="414" y="-60" name="inserted"/>
      <point x="292" y="-3"/>
      <point x="253" y="53" type="qcurve"/>
      <point x="253" y="-416" type="line"/>
      <point x="146" y="-416" type="line"/>
      <point x="146" y="932" type="line"/>
    </contour>
  </outline>
</glyph>
<glyph name="paragraph" format="1">
  <advance width="876"/>
  <unicode hex="00B6"/>
  <outline>
    <contour>
      <point x="613" y="0" type="line"/>
      <point x="613" y="468" type="line"/>
      <point x="516" y="468" type="line" smooth="yes"/>
      <point x="381" y="468"/>
      <point x="181" y="572"/>
      <point x="128" y="668" type="qcurve" smooth="yes" name="inserted"/>
      <point x="101" y="716" name="inserted"/>
      <point x="75" y="827"/>
      <point x="75" y="889" type="qcurve" smooth="yes"/>
      <point x="75" y="1081"/>
      <point x="314" y="1310"/>
      <point x="519" y="1310" type="qcurve" smooth="yes"/>
      <point x="721" y="1310" type="line"/>
      <point x="721" y="0" type="line"/>
    </contour>
  </outline>
</glyph>
<glyph name="periodcentered" format="1">
  <advance width="453"/>
  <unicode hex="00B7"/>
  <outline>
    <contour>
      <point x="147" y="709" type="qcurve" smooth="yes"/>
      <point x="147" y="740"/>
      <point x="186" y="784"/>
      <point x="222" y="784" type="qcurve" smooth="yes" name="inserted"/>
      <point x="258" y="784"/>
      <point x="300" y="740"/>
      <point x="300" y="709" type="qcurve" smooth="yes" name="inserted"/>
      <point x="300" y="677"/>
      <point x="258" y="635"/>
      <point x="222" y="635" type="qcurve" smooth="yes" name="inserted"/>
      <point x="186" y="635"/>
      <point x="147" y="677"/>
    </contour>
  </outline>
</glyph>
<glyph name="cedilla" format="1">
  <advance width="448"/>
  <unicode hex="00B8"/>
  <outline>
    <contour>
      <point x="221" y="-44" type="line"/>
      <point x="211" y="-101" type="line"/>
      <point x="285" y="-111" name="inserted"/>
      <point x="359" y="-188"/>
      <point x="359" y="-255" type="qcurve" smooth="yes"/>
      <point x="359" y="-338"/>
      <point x="217" y="-435"/>
      <point x="95" y="-435" type="qcurve"/>
      <point x="88" y="-365" type="line"/>
      <point x="168" y="-365"/>
      <point x="270" y="-306"/>
      <point x="270" y="-257" type="qcurve" smooth="yes"/>
      <point x="270" y="-205"/>
      <point x="192" y="-165"/>
      <point x="112" y="-158" type="qcurve"/>
      <point x="138" y="-44" type="line"/>
    </contour>
  </outline>
</glyph>
<glyph name="ordmasculine" format="1">
  <advance width="830"/>
  <unicode hex="00BA"/>
  <outline>
    <contour>
      <point x="122" y="1088" type="line" smooth="yes"/>
      <point x="122" y="1226"/>
      <point x="281" y="1397"/>
      <point x="412" y="1397" type="qcurve" smooth="yes"/>
      <point x="545" y="1397"/>
      <point x="704" y="1226"/>
      <point x="704" y="1083" type="qcurve" smooth="yes"/>
      <point x="704" y="999" type="line" smooth="yes"/>
      <point x="704" y="861"/>
      <point x="545" y="690"/>
      <point x="414" y="690" type="qcurve" smooth="yes"/>
      <point x="282" y="690"/>
      <point x="122" y="860"/>
      <point x="122" y="1003" type="qcurve" smooth="yes"/>
    </contour>
    <contour>
      <point x="219" y="999" type="line" smooth="yes"/>
      <point x="219" y="896"/>
      <point x="320" y="776"/>
      <point x="414" y="776" type="qcurve" smooth="yes"/>
      <point x="503" y="776"/>
      <point x="607" y="894"/>
      <point x="607" y="1002" type="qcurve" smooth="yes"/>
      <point x="607" y="1088" type="line" smooth="yes"/>
      <point x="607" y="1191"/>
      <point x="502" y="1311"/>
      <point x="412" y="1311" type="qcurve" smooth="yes" name="inserted"/>
      <point x="322" y="1311"/>
      <point x="219" y="1189"/>
      <point x="219" y="1083" type="qcurve" smooth="yes"/>
    </contour>
  </outline>
</glyph>
<glyph name="questiondown" format="1">
  <advance width="846.0"/>
  <unicode hex="00BF"/>
  <outline>
    <contour>
      <point x="496" y="580" type="line"/>
      <point x="494" y="469"/>
      <point x="449" y="363"/>
      <point x="365" y="279" type="qcurve" smooth="yes" name="inserted"/>
      <point x="322" y="236" name="inserted"/>
      <point x="270" y="180"/>
      <point x="259" y="167" type="qcurve" smooth="yes"/>
      <point x="223" y="120" name="inserted"/>
      <point x="186" y="13"/>
      <point x="186" y="-46" type="qcurve" smooth="yes"/>
      <point x="186" y="-162"/>
      <point x="307" y="-288"/>
      <point x="422" y="-288" type="qcurve" smooth="yes"/>
      <point x="529" y="-288"/>
      <point x="657" y="-162"/>
      <point x="659" y="-56" type="qcurve"/>
      <point x="767" y="-56" type="line"/>
      <point x="765" y="-206"/>
      <point x="576" y="-383"/>
      <point x="422" y="-383" type="qcurve" smooth="yes"/>
      <point x="262" y="-383"/>
      <point x="79" y="-203"/>
      <point x="79" y="-47" type="qcurve" smooth="yes"/>
      <point x="79" y="53"/>
      <point x="175" y="234"/>
      <point x="303" y="356" type="qcurve"/>
      <point x="342" y="388" name="inserted"/>
      <point x="383" y="469"/>
      <point x="386" y="518" type="qcurve" smooth="yes"/>
      <point x="388" y="580" type="line"/>
    </contour>
    <contour>
      <point x="510" y="882" type="qcurve" smooth="yes"/>
      <point x="510" y="851"/>
      <point x="471" y="809"/>
      <point x="437" y="809" type="qcurve" smooth="yes" name="inserted"/>
      <point x="402" y="809"/>
      <point x="362" y="851"/>
      <point x="362" y="882" type="qcurve" smooth="yes"/>
      <point x="362" y="911"/>
      <point x="402" y="953"/>
      <point x="437" y="953" type="qcurve" smooth="yes" name="inserted"/>
      <point x="471" y="953"/>
      <point x="510" y="911"/>
    </contour>
  </outline>
</glyph>
<glyph name="AE" format="1">
  <advance width="1679"/>
  <unicode hex="00C6"/>
  <outline>
    <contour>
      <point x="1641" y="0" type="line"/>
      <point x="905" y="0" type="line"/>
      <point x="890" y="350" type="line"/>
      <point x="354" y="350" type="line"/>
      <point x="147" y="0" type="line"/>
      <point x="15" y="0" type="line"/>
      <point x="808" y="1310" type="line"/>
      <point x="1586" y="1310" type="line"/>
      <point x="1586" y="1219" type="line"/>
      <point x="961" y="1219" type="line"/>
      <point x="982" y="728" type="line"/>
      <point x="1512" y="728" type="line"/>
      <point x="1512" y="636" type="line"/>
      <point x="986" y="636" type="line"/>
      <point x="1009" y="91" type="line"/>
      <point x="1641" y="91" type="line"/>
    </contour>
    <contour>
      <point x="414" y="452" type="line"/>
      <point x="887" y="452" type="line"/>
      <point x="855" y="1198" type="line"/>
    </contour>
  </outline>
</glyph>
<glyph name="Eth" format="1">
  <advance width="1234"/>
  <unicode hex="00D0"/>
  <outline>
    <contour>
      <point x="193" y="0" type="line"/>
      <point x="193" y="620" type="line"/>
      <point x="30" y="620" type="line"/>
      <point x="30" y="712" type="line"/>
      <point x="193" y="712" type="line"/>
      <point x="193" y="1310" type="line"/>
      <point x="559" y="1310" type="line" smooth="yes"/>
      <point x="720" y="1310"/>
      <point x="976" y="1164"/>
      <point x="1047" y="1027" type="qcurve" smooth="yes" name="inserted"/>
      <point x="1083" y="959" name="inserted"/>
      <point x="1119" y="803"/>
      <point x="1119" y="716" type="qcurve" smooth="yes"/>
      <point x="1119" y="595" type="line" smooth="yes"/>
      <point x="1119" y="419"/>
      <point x="977" y="148"/>
      <point x="847" y="74" type="qcurve" smooth="yes" name="inserted"/>
      <point x="783" y="37" name="inserted"/>
      <point x="635" y="0"/>
      <point x="551" y="0" type="qcurve" smooth="yes"/>
    </contour>
    <contour>
      <point x="581" y="620" type="line"/>
      <point x="303" y="620" type="line"/>
      <point x="303" y="94" type="line"/>
      <point x="547" y="94" type="line" smooth="yes"/>
      <point x="759" y="94"/>
      <point x="1009" y="368"/>
      <point x="1009" y="602" type="qcurve" smooth="yes"/>
      <point x="1009" y="717" type="line" smooth="yes"/>
      <point x="1009" y="943"/>
      <point x="762" y="1215"/>
      <point x="561" y="1216" type="qcurve" smooth="yes"/>
      <point x="303" y="1216" type="line"/>
      <point x="303" y="712" type="line"/>
      <point x="581" y="712" type="line"/>
    </contour>
  </outline>
</glyph>
<glyph name="multiply" format="1">
  <advance width="965"/>
  <unicode hex="00D7"/>
  <outline>
    <contour>
      <point x="84" y="310" type="line"/>
      <point x="406" y="639" type="line"/>
      <point x="97" y="954" type="line"/>
      <point x="168" y="1026" type="line"/>
      <point x="476" y="711" type="line"/>
      <point x="785" y="1026" type="line"/>
      <point x="856" y="954" type="line"/>
      <point x="547" y="639" type="line"/>
      <point x="869" y="310" type="line"/>
      <point x="798" y="239" type="line"/>
      <point x="476" y="567" type="line"/>
      <point x="155" y="239" type="line"/>
    </contour>
  </outline>
</glyph>
<glyph name="Oslash" format="1">
  <advance width="1247"/>
  <unicode hex="00D8"/>
  <outline>
    <contour>
      <point x="1134" y="576" type="line" smooth="yes"/>
      <point x="1134" y="395"/>
      <point x="1009" y="121"/>
      <point x="893" y="48" type="qcurve" smooth="yes" name="inserted"/>
      <point x="835" y="11" name="inserted"/>
      <point x="701" y="-26"/>
      <point x="625" y="-26" type="qcurve" smooth="yes"/>
      <point x="541" y="-26" name="inserted"/>
      <point x="397" y="17"/>
      <point x="338" y="61" type="qcurve"/>
      <point x="247" y="-83" type="line"/>
      <point x="153" y="-83" type="line"/>
      <point x="276" y="112" type="line"/>
      <point x="194" y="195" name="inserted"/>
      <point x="113" y="431"/>
      <point x="113" y="584" type="qcurve" smooth="yes"/>
      <point x="113" y="716" type="line" smooth="yes"/>
      <point x="113" y="895"/>
      <point x="239" y="1172"/>
      <point x="356" y="1246" type="qcurve" smooth="yes" name="inserted"/>
      <point x="414" y="1283" name="inserted"/>
      <point x="547" y="1320"/>
      <point x="623" y="1320" type="qcurve" smooth="yes"/>
      <point x="724" y="1320" name="inserted"/>
      <point x="891" y="1257"/>
      <point x="958" y="1194" type="qcurve"/>
      <point x="1054" y="1346" type="line"/>
      <point x="1147" y="1346" type="line"/>
      <point x="1013" y="1133" type="line"/>
      <point x="1073" y="1052" name="inserted"/>
      <point x="1134" y="844"/>
      <point x="1134" y="718" type="qcurve" smooth="yes"/>
    </contour>
    <contour>
      <point x="223" y="576" type="line" smooth="yes"/>
      <point x="223" y="458" name="inserted"/>
      <point x="278" y="272"/>
      <point x="333" y="203" type="qcurve"/>
      <point x="902" y="1105" type="line"/>
      <point x="848" y="1164" name="inserted"/>
      <point x="709" y="1223"/>
      <point x="623" y="1223" type="qcurve" smooth="yes"/>
      <point x="440" y="1223"/>
      <point x="223" y="954"/>
      <point x="223" y="713" type="qcurve" smooth="yes"/>
    </contour>
    <contour>
      <point x="1023" y="718" type="line" smooth="yes"/>
      <point x="1023" y="813" name="inserted"/>
      <point x="987" y="972"/>
      <point x="951" y="1036" type="qcurve"/>
      <point x="391" y="146" type="line"/>
      <point x="439" y="108" name="inserted"/>
      <point x="556" y="70"/>
      <point x="625" y="70" type="qcurve" smooth="yes"/>
      <point x="813" y="70"/>
      <point x="1023" y="339"/>
      <point x="1023" y="579" type="qcurve" smooth="yes"/>
    </contour>
  </outline>
</glyph>
<glyph name="Thorn" format="1">
  <advance width="1093"/>
  <unicode hex="00DE"/>
  <outline>
    <contour>
      <point x="273" y="1310" type="line"/>
      <point x="273" y="1037" type="line"/>
      <point x="565" y="1037" type="line" smooth="yes"/>
      <point x="694" y="1037"/>
      <point x="885" y="945"/>
      <point x="936" y="860" type="qcurve" smooth="yes" name="inserted"/>
      <point x="961" y="817" name="inserted"/>
      <point x="986" y="720"/>
      <point x="986" y="664" type="qcurve" smooth="yes"/>
      <point x="986" y="498"/>
      <point x="767" y="295"/>
      <point x="577" y="292" type="qcurve" smooth="yes"/>
      <point x="273" y="292" type="line"/>
      <point x="273" y="0" type="line"/>
      <point x="165" y="0" type="line"/>
      <point x="165" y="1310" type="line"/>
    </contour>
    <contour>
      <point x="273" y="946" type="line"/>
      <point x="273" y="383" type="line"/>
      <point x="564" y="383" type="line" smooth="yes"/>
      <point x="706" y="383"/>
      <point x="878" y="536"/>
      <point x="878" y="662" type="qcurve" smooth="yes" name="inserted"/>
      <point x="878" y="788"/>
      <point x="714" y="942"/>
      <point x="578" y="946" type="qcurve" smooth="yes"/>
    </contour>
  </outline>
</glyph>
<glyph name="germandbls" format="1">
  <advance width="1080.0"/>
  <unicode hex="00DF"/>
  <outline>
    <contour>
      <point x="244" y="-2" type="line"/>
      <point x="136" y="-2" type="line"/>
      <point x="136" y="1012" type="line" smooth="yes"/>
      <point x="136" y="1192"/>
      <point x="308" y="1388"/>
      <point x="461" y="1388" type="qcurve" smooth="yes"/>
      <point x="599" y="1388"/>
      <point x="770" y="1236"/>
      <point x="770" y="1111" type="qcurve" smooth="yes"/>
      <point x="770" y="1059"/>
      <point x="746" y="973"/>
      <point x="714" y="915" type="qcurve" smooth="yes" name="inserted"/>
      <point x="682" y="857"/>
      <point x="660" y="783"/>
      <point x="660" y="740" type="qcurve" smooth="yes"/>
      <point x="660" y="689"/>
      <point x="734" y="596"/>
      <point x="820" y="532" type="qcurve" smooth="yes" name="inserted"/>
      <point x="906" y="468"/>
      <point x="986" y="345"/>
      <point x="986" y="273" type="qcurve" smooth="yes"/>
      <point x="986" y="142"/>
      <point x="796" y="-20"/>
      <point x="648" y="-20" type="qcurve" smooth="yes"/>
      <point x="572" y="-20"/>
      <point x="409" y="23"/>
      <point x="373" y="52" type="qcurve"/>
      <point x="403" y="143" type="line"/>
      <point x="437" y="117"/>
      <point x="575" y="70"/>
      <point x="635" y="70" type="qcurve" smooth="yes"/>
      <point x="745" y="70"/>
      <point x="878" y="185"/>
      <point x="878" y="273" type="qcurve" smooth="yes"/>
      <point x="878" y="328"/>
      <point x="799" y="430"/>
      <point x="717" y="490" type="qcurve" smooth="yes" name="inserted"/>
      <point x="635" y="551"/>
      <point x="552" y="672"/>
      <point x="552" y="741" type="qcurve" smooth="yes"/>
      <point x="552" y="828"/>
      <point x="665" y="1029"/>
      <point x="665" y="1105" type="qcurve" smooth="yes"/>
      <point x="665" y="1189"/>
      <point x="552" y="1296"/>
      <point x="470" y="1296" type="qcurve" smooth="yes"/>
      <point x="359" y="1296" name="inserted"/>
      <point x="246" y="1158"/>
      <point x="244" y="1020" type="qcurve"/>
    </contour>
  </outline>
</glyph>
<glyph name="ae" format="1">
  <advance width="1559"/>
  <unicode hex="00E6"/>
  <outline>
    <contour>
      <point x="1139" y="-20" type="qcurve" smooth="yes"/>
      <point x="1013" y="-20"/>
      <point x="834" y="78"/>
      <point x="780" y="165" type="qcurve"/>
      <point x="726" y="77"/>
      <point x="521" y="-20"/>
      <point x="396" y="-20" type="qcurve" smooth="yes"/>
      <point x="244" y="-20"/>
      <point x="77" y="132"/>
      <point x="77" y="262" type="qcurve" smooth="yes"/>
      <point x="77" y="403"/>
      <point x="275" y="564"/>
      <point x="460" y="567" type="qcurve" smooth="yes"/>
      <point x="703" y="567" type="line"/>
      <point x="703" y="646" type="line" smooth="yes"/>
      <point x="703" y="765"/>
      <point x="589" y="898"/>
      <point x="475" y="898" type="qcurve" smooth="yes"/>
      <point x="358" y="898"/>
      <point x="209" y="781"/>
      <point x="209" y="687" type="qcurve"/>
      <point x="102" y="698" type="line"/>
      <point x="102" y="828"/>
      <point x="311" y="990"/>
      <point x="475" y="990" type="qcurve" smooth="yes"/>
      <point x="588" y="990"/>
      <point x="747" y="894"/>
      <point x="783" y="798" type="qcurve"/>
      <point x="837" y="888"/>
      <point x="1007" y="990"/>
      <point x="1112" y="990" type="qcurve" smooth="yes"/>
      <point x="1288" y="990"/>
      <point x="1490" y="773"/>
      <point x="1492" y="578" type="qcurve" smooth="yes"/>
      <point x="1492" y="482" type="line"/>
      <point x="811" y="482" type="line"/>
      <point x="811" y="456" type="line" smooth="yes"/>
      <point x="811" y="275"/>
      <point x="984" y="71"/>
      <point x="1139" y="71" type="qcurve" smooth="yes"/>
      <point x="1222" y="71" name="inserted"/>
      <point x="1368" y="124"/>
      <point x="1430" y="177" type="qcurve"/>
      <point x="1472" y="99" type="line"/>
      <point x="1407" y="39" name="inserted"/>
      <point x="1240" y="-20"/>
    </contour>
    <contour>
      <point x="412" y="70" type="qcurve" smooth="yes"/>
      <point x="494" y="70"/>
      <point x="662" y="153"/>
      <point x="703" y="210" type="qcurve"/>
      <point x="703" y="480" type="line"/>
      <point x="473" y="480" type="line" smooth="yes"/>
      <point x="349" y="480"/>
      <point x="194" y="371"/>
      <point x="186" y="276" type="qcurve" smooth="yes"/>
      <point x="185" y="258" type="line"/>
      <point x="185" y="171"/>
      <point x="303" y="70"/>
    </contour>
    <contour>
      <point x="1112" y="898" type="qcurve" smooth="yes"/>
      <point x="993" y="898"/>
      <point x="831" y="722"/>
      <point x="814" y="570" type="qcurve"/>
      <point x="1385" y="570" type="line"/>
      <point x="1385" y="598" type="line" smooth="yes"/>
      <point x="1385" y="737"/>
      <point x="1240" y="898"/>
    </contour>
  </outline>
</glyph>
<glyph name="eth" format="1">
  <advance width="1072"/>
  <unicode hex="00F0"/>
  <outline>
    <contour>
      <point x="730" y="1171" type="line"/>
      <point x="837" y="1058" name="inserted"/>
      <point x="947" y="762"/>
      <point x="950" y="579" type="qcurve" smooth="yes"/>
      <point x="950" y="480" type="line" smooth="yes"/>
      <point x="950" y="336"/>
      <point x="849" y="107"/>
      <point x="758" y="43" type="qcurve" smooth="yes" name="inserted"/>
      <point x="712" y="12" name="inserted"/>
      <point x="610" y="-20"/>
      <point x="554" y="-20" type="qcurve" smooth="yes"/>
      <point x="437" y="-20"/>
      <point x="246" y="91"/>
      <point x="190" y="193" type="qcurve" smooth="yes" name="inserted"/>
      <point x="162" y="244" name="inserted"/>
      <point x="134" y="356"/>
      <point x="134" y="417" type="qcurve" smooth="yes"/>
      <point x="134" y="624"/>
      <point x="349" y="867"/>
      <point x="528" y="867" type="qcurve" smooth="yes"/>
      <point x="618" y="867"/>
      <point x="774" y="797"/>
      <point x="827" y="737" type="qcurve"/>
      <point x="808" y="850" name="inserted"/>
      <point x="714" y="1038"/>
      <point x="638" y="1114" type="qcurve"/>
      <point x="436" y="989" type="line"/>
      <point x="390" y="1055" type="line"/>
      <point x="575" y="1170" type="line"/>
      <point x="513" y="1218" name="inserted"/>
      <point x="359" y="1295"/>
      <point x="266" y="1326" type="qcurve"/>
      <point x="302" y="1418" type="line"/>
      <point x="410" y="1386" name="inserted"/>
      <point x="594" y="1290"/>
      <point x="670" y="1227" type="qcurve"/>
      <point x="844" y="1336" type="line"/>
      <point x="890" y="1271" type="line"/>
    </contour>
    <contour>
      <point x="842" y="561" type="line"/>
      <point x="840" y="612" type="line"/>
      <point x="805" y="687"/>
      <point x="648" y="773"/>
      <point x="548" y="773" type="qcurve" smooth="yes"/>
      <point x="403" y="773"/>
      <point x="242" y="584"/>
      <point x="242" y="417" type="qcurve" smooth="yes"/>
      <point x="242" y="325"/>
      <point x="323" y="164"/>
      <point x="395" y="118" type="qcurve" smooth="yes" name="inserted"/>
      <point x="430" y="95" name="inserted"/>
      <point x="512" y="73"/>
      <point x="557" y="73" type="qcurve" smooth="yes"/>
      <point x="684" y="73"/>
      <point x="842" y="297"/>
      <point x="842" y="487" type="qcurve" smooth="yes"/>
    </contour>
  </outline>
</glyph>
<glyph name="divide" format="1">
  <advance width="1048"/>
  <unicode hex="00F7"/>
  <outline>
    <contour>
      <point x="963" y="601" type="line"/>
      <point x="65" y="601" type="line"/>
      <point x="65" y="705" type="line"/>
      <point x="963" y="705" type="line"/>
    </contour>
    <contour>
      <point x="583" y="930" type="line"/>
      <point x="455" y="930" type="line"/>
      <point x="455" y="1074" type="line"/>
      <point x="583" y="1074" type="line"/>
    </contour>
    <contour>
      <point x="583" y="212" type="line"/>
      <point x="455" y="212" type="line"/>
      <point x="455" y="356" type="line"/>
      <point x="583" y="356" type="line"/>
    </contour>
  </outline>
</glyph>
<glyph name="oslash" format="1">
  <advance width="1026.0"/>
  <unicode hex="00F8"/>
  <outline>
    <contour>
      <point x="80" y="487" type="line" smooth="yes"/>
      <point x="80" y="628"/>
      <point x="189" y="853"/>
      <point x="288" y="915" type="qcurve" smooth="yes" name="inserted"/>
      <point x="338" y="947" name="inserted"/>
      <point x="451" y="978"/>
      <point x="514" y="978" type="qcurve" smooth="yes"/>
      <point x="565" y="978" name="inserted"/>
      <point x="662" y="956"/>
      <point x="707" y="935" type="qcurve"/>
      <point x="777" y="1079" type="line"/>
      <point x="861" y="1079" type="line"/>
      <point x="771" y="895" type="line"/>
      <point x="856" y="830"/>
      <point x="950" y="620"/>
      <point x="950" y="487" type="qcurve" smooth="yes"/>
      <point x="950" y="458" type="line" smooth="yes"/>
      <point x="950" y="317"/>
      <point x="840" y="90"/>
      <point x="741" y="29" type="qcurve" smooth="yes" name="inserted"/>
      <point x="691" y="-1" name="inserted"/>
      <point x="579" y="-32"/>
      <point x="516" y="-32" type="qcurve" smooth="yes"/>
      <point x="467" y="-32" name="inserted"/>
      <point x="377" y="-14"/>
      <point x="336" y="5" type="qcurve"/>
      <point x="265" y="-140" type="line"/>
      <point x="180" y="-140" type="line"/>
      <point x="269" y="43" type="line"/>
      <point x="179" y="107"/>
      <point x="80" y="321"/>
      <point x="80" y="458" type="qcurve" smooth="yes"/>
    </contour>
    <contour>
      <point x="187" y="458" type="line" smooth="yes"/>
      <point x="187" y="359"/>
      <point x="251" y="188"/>
      <point x="313" y="133" type="qcurve"/>
      <point x="663" y="847" type="line"/>
      <point x="630" y="867" name="inserted"/>
      <point x="555" y="886"/>
      <point x="514" y="886" type="qcurve" smooth="yes"/>
      <point x="369" y="886"/>
      <point x="187" y="660"/>
      <point x="187" y="477" type="qcurve" smooth="yes"/>
    </contour>
    <contour>
      <point x="842" y="487" type="line" smooth="yes"/>
      <point x="842" y="580"/>
      <point x="782" y="744"/>
      <point x="725" y="801" type="qcurve"/>
      <point x="377" y="90" type="line"/>
      <point x="408" y="74" name="inserted"/>
      <point x="477" y="59"/>
      <point x="516" y="59" type="qcurve" smooth="yes"/>
      <point x="661" y="59"/>
      <point x="842" y="283"/>
      <point x="842" y="467" type="qcurve" smooth="yes"/>
    </contour>
  </outline>
</glyph>
<glyph name="thorn" format="1">
  <advance width="1035.0"/>
  <unicode hex="00FE"/>
  <outline>
    <contour>
      <point x="928" y="435" type="line" smooth="yes"/>
      <point x="928" y="208"/>
      <point x="726" y="-60"/>
      <point x="556" y="-60" type="qcurve" smooth="yes"/>
      <point x="457" y="-60" name="inserted"/>
      <point x="304" y="11"/>
      <point x="251" y="81" type="qcurve"/>
      <point x="251" y="-416" type="line"/>
      <point x="143" y="-416" type="line"/>
      <point x="143" y="1341" type="line"/>
      <point x="251" y="1341" type="line"/>
      <point x="251" y="797" type="line"/>
      <point x="304" y="874" name="inserted"/>
      <point x="455" y="950"/>
      <point x="554" y="950" type="qcurve" smooth="yes"/>
      <point x="727" y="950"/>
      <point x="928" y="687"/>
      <point x="928" y="452" type="qcurve" smooth="yes"/>
    </contour>
    <contour>
      <point x="820" y="454" type="qcurve" smooth="yes"/>
      <point x="820" y="641"/>
      <point x="667" y="857"/>
      <point x="530" y="857" type="qcurve" smooth="yes"/>
      <point x="431" y="857"/>
      <point x="289" y="761"/>
      <point x="251" y="670" type="qcurve"/>
      <point x="251" y="201" type="line"/>
      <point x="289" y="120"/>
      <point x="431" y="31"/>
      <point x="532" y="31" type="qcurve" smooth="yes"/>
      <point x="668" y="31"/>
      <point x="820" y="248"/>
    </contour>
  </outline>
</glyph>
<glyph name="Aogonek" format="1">
  <advance width="1151"/>
  <unicode hex="0104"/>
  <outline>
    <contour>
      <point x="628" y="1269" type="line"/>
      <point x="1124" y="-41" type="line"/>
      <point x="1107" y="-41" type="line"/>
      <point x="1013" y="-113"/>
      <point x="946" y="-208"/>
      <point x="946" y="-252" type="qcurve" smooth="yes"/>
      <point x="946" y="-290" name="inserted"/>
      <point x="984" y="-328"/>
      <point x="1022" y="-328" type="qcurve" smooth="yes"/>
      <point x="1047" y="-328" name="inserted"/>
      <point x="1094" y="-313"/>
      <point x="1117" y="-298" type="qcurve"/>
      <point x="1130" y="-373" type="line"/>
      <point x="1101" y="-393" name="inserted"/>
      <point x="1037" y="-413"/>
      <point x="1002" y="-413" type="qcurve" smooth="yes"/>
      <point x="930" y="-413"/>
      <point x="849" y="-333"/>
      <point x="849" y="-261" type="qcurve" smooth="yes"/>
      <point x="849" y="-202"/>
      <point x="933" y="-85"/>
      <point x="1007" y="-37" type="qcurve"/>
      <point x="873" y="326" type="line"/>
      <point x="278" y="326" type="line"/>
      <point x="143" y="-41" type="line"/>
      <point x="27" y="-41" type="line"/>
      <point x="523" y="1269" type="line"/>
    </contour>
    <contour>
      <point x="312" y="420" type="line"/>
      <point x="838" y="420" type="line"/>
      <point x="575" y="1134" type="line"/>
    </contour>
  </outline>
</glyph>
<glyph name="aogonek" format="1">
  <advance width="987"/>
  <unicode hex="0105"/>
  <outline>
    <contour>
      <point x="753" y="-38" type="qcurve"/>
      <point x="746" y="-15" name="inserted"/>
      <point x="737" y="51"/>
      <point x="734" y="95" type="qcurve"/>
      <point x="678" y="21"/>
      <point x="502" y="-59"/>
      <point x="404" y="-59" type="qcurve" smooth="yes"/>
      <point x="264" y="-59"/>
      <point x="90" y="97"/>
      <point x="90" y="217" type="qcurve" smooth="yes"/>
      <point x="90" y="359"/>
      <point x="327" y="525"/>
      <point x="538" y="525" type="qcurve" smooth="yes"/>
      <point x="734" y="525" type="line"/>
      <point x="734" y="636" type="line" smooth="yes"/>
      <point x="734" y="740"/>
      <point x="605" y="860"/>
      <point x="482" y="860" type="qcurve" smooth="yes"/>
      <point x="369" y="860"/>
      <point x="221" y="744"/>
      <point x="221" y="663" type="qcurve"/>
      <point x="113" y="664" type="line"/>
      <point x="113" y="780"/>
      <point x="329" y="951"/>
      <point x="487" y="951" type="qcurve" smooth="yes"/>
      <point x="650" y="951"/>
      <point x="838" y="788"/>
      <point x="841" y="642" type="qcurve" smooth="yes"/>
      <point x="841" y="181" type="line" smooth="yes"/>
      <point x="841" y="110" name="inserted"/>
      <point x="855" y="5"/>
      <point x="870" y="-31" type="qcurve"/>
      <point x="870" y="-41" type="line"/>
      <point x="856" y="-41" type="line"/>
      <point x="761" y="-113"/>
      <point x="695" y="-208"/>
      <point x="695" y="-252" type="qcurve" smooth="yes"/>
      <point x="695" y="-290" name="inserted"/>
      <point x="733" y="-328"/>
      <point x="771" y="-328" type="qcurve" smooth="yes"/>
      <point x="796" y="-328" name="inserted"/>
      <point x="843" y="-313"/>
      <point x="866" y="-298" type="qcurve"/>
      <point x="879" y="-373" type="line"/>
      <point x="850" y="-393" name="inserted"/>
      <point x="786" y="-413"/>
      <point x="751" y="-413" type="qcurve" smooth="yes"/>
      <point x="679" y="-413"/>
      <point x="598" y="-333"/>
      <point x="598" y="-261" type="qcurve" smooth="yes"/>
      <point x="598" y="-202"/>
      <point x="680" y="-86"/>
    </contour>
    <contour>
      <point x="417" y="36" type="qcurve" smooth="yes"/>
      <point x="525" y="36"/>
      <point x="695" y="141"/>
      <point x="734" y="228" type="qcurve"/>
      <point x="734" y="442" type="line"/>
      <point x="541" y="442" type="line" smooth="yes"/>
      <point x="380" y="440"/>
      <point x="198" y="326"/>
      <point x="198" y="226" type="qcurve" smooth="yes"/>
      <point x="198" y="144"/>
      <point x="320" y="36"/>
    </contour>
  </outline>
</glyph>
<glyph name="dcroat" format="1">
  <advance width="1051"/>
  <unicode hex="0111"/>
  <outline>
    <contour>
      <point x="1039" y="1129" type="line"/>
      <point x="881" y="1129" type="line"/>
      <point x="881" y="-2" type="line"/>
      <point x="780" y="-2" type="line"/>
      <point x="776" y="128" type="line"/>
      <point x="724" y="54" name="inserted"/>
      <point x="572" y="-20"/>
      <point x="472" y="-20" type="qcurve" smooth="yes"/>
      <point x="303" y="-20"/>
      <point x="97" y="251"/>
      <point x="97" y="481" type="qcurve" smooth="yes"/>
      <point x="97" y="494" type="line" smooth="yes"/>
      <point x="97" y="721"/>
      <point x="300" y="990"/>
      <point x="473" y="990" type="qcurve" smooth="yes"/>
      <point x="572" y="990" name="inserted"/>
      <point x="722" y="912"/>
      <point x="774" y="834" type="qcurve"/>
      <point x="774" y="1129" type="line"/>
      <point x="488" y="1129" type="line"/>
      <point x="488" y="1221" type="line"/>
      <point x="774" y="1221" type="line"/>
      <point x="774" y="1380" type="line"/>
      <point x="881" y="1380" type="line"/>
      <point x="881" y="1221" type="line"/>
      <point x="1039" y="1221" type="line"/>
    </contour>
    <contour>
      <point x="206" y="475" type="qcurve" smooth="yes"/>
      <point x="206" y="289"/>
      <point x="356" y="74"/>
      <point x="491" y="74" type="qcurve" smooth="yes"/>
      <point x="591" y="74" name="inserted"/>
      <point x="732" y="161"/>
      <point x="774" y="249" type="qcurve"/>
      <point x="774" y="706" type="line"/>
      <point x="732" y="801" name="inserted"/>
      <point x="592" y="896"/>
      <point x="493" y="896" type="qcurve" smooth="yes"/>
      <point x="357" y="896"/>
      <point x="206" y="683"/>
    </contour>
  </outline>
</glyph>
<glyph name="Eogonek" format="1">
  <advance width="1049"/>
  <unicode hex="0118"/>
  <outline>
    <contour>
      <point x="889" y="587" type="line"/>
      <point x="276" y="587" type="line"/>
      <point x="276" y="52" type="line"/>
      <point x="981" y="52" type="line"/>
      <point x="981" y="-41" type="line"/>
      <point x="922" y="-41" type="line"/>
      <point x="827" y="-113"/>
      <point x="761" y="-208"/>
      <point x="761" y="-252" type="qcurve" smooth="yes"/>
      <point x="761" y="-290" name="inserted"/>
      <point x="799" y="-328"/>
      <point x="837" y="-328" type="qcurve" smooth="yes"/>
      <point x="861" y="-328" name="inserted"/>
      <point x="909" y="-313"/>
      <point x="932" y="-298" type="qcurve"/>
      <point x="945" y="-373" type="line"/>
      <point x="916" y="-393" name="inserted"/>
      <point x="851" y="-413"/>
      <point x="816" y="-413" type="qcurve" smooth="yes"/>
      <point x="744" y="-413"/>
      <point x="663" y="-333"/>
      <point x="663" y="-261" type="qcurve" smooth="yes"/>
      <point x="663" y="-203"/>
      <point x="744" y="-90"/>
      <point x="815" y="-41" type="qcurve"/>
      <point x="166" y="-41" type="line"/>
      <point x="166" y="1269" type="line"/>
      <point x="977" y="1269" type="line"/>
      <point x="977" y="1175" type="line"/>
      <point x="276" y="1175" type="line"/>
      <point x="276" y="681" type="line"/>
      <point x="889" y="681" type="line"/>
    </contour>
  </outline>
</glyph>
<glyph name="eogonek" format="1">
  <advance width="952"/>
  <unicode hex="0119"/>
  <outline>
    <contour>
      <point x="518" y="-55" type="line"/>
      <point x="393" y="-55"/>
      <point x="193" y="67"/>
      <point x="137" y="177" type="qcurve" smooth="yes" name="inserted"/>
      <point x="109" y="231" name="inserted"/>
      <point x="81" y="354"/>
      <point x="81" y="422" type="qcurve" smooth="yes"/>
      <point x="81" y="461" type="line" smooth="yes"/>
      <point x="81" y="601"/>
      <point x="190" y="826"/>
      <point x="287" y="890" type="qcurve" smooth="yes" name="inserted"/>
      <point x="336" y="923" name="inserted"/>
      <point x="441" y="955"/>
      <point x="498" y="955" type="qcurve" smooth="yes"/>
      <point x="675" y="955"/>
      <point x="883" y="713"/>
      <point x="883" y="503" type="qcurve" smooth="yes"/>
      <point x="883" y="443" type="line"/>
      <point x="188" y="443" type="line"/>
      <point x="188" y="422" type="line" smooth="yes"/>
      <point x="188" y="256"/>
      <point x="378" y="36"/>
      <point x="522" y="36" type="qcurve" smooth="yes"/>
      <point x="608" y="36"/>
      <point x="741" y="99"/>
      <point x="795" y="168" type="qcurve"/>
      <point x="862" y="117" type="line"/>
      <point x="837" y="79" name="inserted"/>
      <point x="774" y="20"/>
      <point x="737" y="-1" type="qcurve"/>
      <point x="681" y="-46" type="line" smooth="yes"/>
      <point x="630" y="-88" name="inserted"/>
      <point x="579" y="-170"/>
      <point x="579" y="-210" type="qcurve" smooth="yes"/>
      <point x="579" y="-248" name="inserted"/>
      <point x="617" y="-286"/>
      <point x="655" y="-286" type="qcurve" smooth="yes"/>
      <point x="680" y="-286" name="inserted"/>
      <point x="727" y="-271"/>
      <point x="750" y="-256" type="qcurve"/>
      <point x="763" y="-331" type="line"/>
      <point x="734" y="-351" name="inserted"/>
      <point x="670" y="-371"/>
      <point x="635" y="-371" type="qcurve" smooth="yes"/>
      <point x="563" y="-371"/>
      <point x="482" y="-291"/>
      <point x="482" y="-219" type="qcurve" smooth="yes"/>
      <point x="482" y="-177" name="inserted"/>
      <point x="524" y="-94"/>
      <point x="566" y="-52" type="qcurve"/>
    </contour>
    <contour>
      <point x="498" y="863" type="qcurve" smooth="yes"/>
      <point x="376" y="863"/>
      <point x="210" y="685"/>
      <point x="192" y="534" type="qcurve"/>
      <point x="776" y="534" type="line"/>
      <point x="776" y="546" type="line" smooth="yes"/>
      <point x="771" y="687"/>
      <point x="620" y="863"/>
    </contour>
  </outline>
</glyph>
<glyph name="Lslash" format="1">
  <advance width="974"/>
  <unicode hex="0141"/>
  <outline>
    <contour>
      <point x="274" y="735" type="line"/>
      <point x="550" y="823" type="line"/>
      <point x="550" y="742" type="line"/>
      <point x="274" y="654" type="line"/>
      <point x="274" y="94" type="line"/>
      <point x="920" y="94" type="line"/>
      <point x="920" y="0" type="line"/>
      <point x="162" y="0" type="line"/>
      <point x="162" y="618" type="line"/>
      <point x="19" y="573" type="line"/>
      <point x="19" y="654" type="line"/>
      <point x="162" y="699" type="line"/>
      <point x="162" y="1310" type="line"/>
      <point x="274" y="1310" type="line"/>
    </contour>
  </outline>
</glyph>
<glyph name="lslash" format="1">
  <advance width="476"/>
  <unicode hex="0142"/>
  <outline>
    <contour>
      <point x="293" y="774" type="line"/>
      <point x="454" y="837" type="line"/>
      <point x="454" y="755" type="line"/>
      <point x="293" y="692" type="line"/>
      <point x="293" y="0" type="line"/>
      <point x="185" y="0" type="line"/>
      <point x="185" y="650" type="line"/>
      <point x="23" y="587" type="line"/>
      <point x="23" y="669" type="line"/>
      <point x="185" y="732" type="line"/>
      <point x="185" y="1382" type="line"/>
      <point x="293" y="1382" type="line"/>
    </contour>
  </outline>
</glyph>
<glyph name="OE" format="1">
  <advance width="1722"/>
  <unicode hex="0152"/>
  <outline>
    <contour>
      <point x="1621" y="-2" type="line"/>
      <point x="861" y="-2" type="line"/>
      <point x="776" y="-12" name="inserted"/>
      <point x="636" y="-21"/>
      <point x="581" y="-21" type="qcurve" smooth="yes"/>
      <point x="441" y="-21"/>
      <point x="221" y="112"/>
      <point x="160" y="233" type="qcurve" smooth="yes" name="inserted"/>
      <point x="130" y="294" name="inserted"/>
      <point x="98" y="431"/>
      <point x="97" y="507" type="qcurve" smooth="yes"/>
      <point x="97" y="790" type="line" smooth="yes"/>
      <point x="97" y="945"/>
      <point x="218" y="1191"/>
      <point x="329" y="1259" type="qcurve" smooth="yes" name="inserted"/>
      <point x="384" y="1293" name="inserted"/>
      <point x="509" y="1326"/>
      <point x="580" y="1326" type="qcurve" smooth="yes"/>
      <point x="639" y="1326" name="inserted"/>
      <point x="780" y="1317"/>
      <point x="861" y="1308" type="qcurve"/>
      <point x="1616" y="1308" type="line"/>
      <point x="1616" y="1214" type="line"/>
      <point x="916" y="1214" type="line"/>
      <point x="916" y="720" type="line"/>
      <point x="1529" y="720" type="line"/>
      <point x="1529" y="626" type="line"/>
      <point x="916" y="626" type="line"/>
      <point x="916" y="92" type="line"/>
      <point x="1621" y="92" type="line"/>
    </contour>
    <contour>
      <point x="581" y="70" type="qcurve" smooth="yes"/>
      <point x="641" y="70" name="inserted"/>
      <point x="753" y="76"/>
      <point x="806" y="83" type="qcurve"/>
      <point x="806" y="1222" type="line"/>
      <point x="752" y="1228" name="inserted"/>
      <point x="639" y="1235"/>
      <point x="580" y="1235" type="qcurve" smooth="yes"/>
      <point x="408" y="1235"/>
      <point x="206" y="997"/>
      <point x="205" y="794" type="qcurve"/>
      <point x="205" y="516" type="line" smooth="yes"/>
      <point x="205" y="312"/>
      <point x="409" y="70"/>
    </contour>
  </outline>
</glyph>
<glyph name="oe" format="1">
  <advance width="1703"/>
  <unicode hex="0153"/>
  <outline>
    <contour>
      <point x="85" y="499" type="line" smooth="yes"/>
      <point x="85" y="641"/>
      <point x="194" y="867"/>
      <point x="292" y="929" type="qcurve" smooth="yes" name="inserted"/>
      <point x="341" y="959" name="inserted"/>
      <point x="453" y="990"/>
      <point x="515" y="990" type="qcurve" smooth="yes"/>
      <point x="643" y="990"/>
      <point x="841" y="865"/>
      <point x="896" y="745" type="qcurve"/>
      <point x="950" y="858"/>
      <point x="1143" y="990"/>
      <point x="1256" y="990" type="qcurve" smooth="yes"/>
      <point x="1434" y="990"/>
      <point x="1641" y="766"/>
      <point x="1641" y="569" type="qcurve" smooth="yes"/>
      <point x="1641" y="482" type="line"/>
      <point x="953" y="482" type="line"/>
      <point x="953" y="456" type="line" smooth="yes"/>
      <point x="953" y="290"/>
      <point x="1131" y="71"/>
      <point x="1270" y="71" type="qcurve" smooth="yes"/>
      <point x="1364" y="71" name="inserted"/>
      <point x="1511" y="124"/>
      <point x="1562" y="178" type="qcurve"/>
      <point x="1609" y="104" type="line"/>
      <point x="1549" y="42" name="inserted"/>
      <point x="1380" y="-20"/>
      <point x="1270" y="-20" type="qcurve" smooth="yes"/>
      <point x="1148" y="-20"/>
      <point x="948" y="110"/>
      <point x="896" y="221" type="qcurve"/>
      <point x="841" y="104"/>
      <point x="644" y="-20"/>
      <point x="517" y="-20" type="qcurve" smooth="yes"/>
      <point x="323" y="-20"/>
      <point x="85" y="253"/>
      <point x="85" y="478" type="qcurve" smooth="yes"/>
    </contour>
    <contour>
      <point x="193" y="470" type="line" smooth="yes"/>
      <point x="193" y="292"/>
      <point x="371" y="71"/>
      <point x="517" y="71" type="qcurve" smooth="yes"/>
      <point x="661" y="71"/>
      <point x="838" y="292"/>
      <point x="838" y="479" type="qcurve" smooth="yes"/>
      <point x="838" y="499" type="line" smooth="yes"/>
      <point x="838" y="675"/>
      <point x="659" y="898"/>
      <point x="515" y="898" type="qcurve" smooth="yes" name="inserted"/>
      <point x="371" y="898"/>
      <point x="193" y="675"/>
      <point x="193" y="489" type="qcurve" smooth="yes"/>
    </contour>
    <contour>
      <point x="1256" y="898" type="qcurve" smooth="yes"/>
      <point x="1139" y="898"/>
      <point x="974" y="716"/>
      <point x="957" y="573" type="qcurve"/>
      <point x="1533" y="573" type="line"/>
      <point x="1533" y="600" type="line" smooth="yes"/>
      <point x="1533" y="732"/>
      <point x="1382" y="898"/>
    </contour>
  </outline>
</glyph>
<glyph name="Uogonek" format="1">
  <advance width="1211"/>
  <unicode hex="0172"/>
  <outline>
    <contour>
      <point x="1068" y="1273" type="line"/>
      <point x="1068" y="385" type="line" smooth="yes"/>
      <point x="1068" y="249"/>
      <point x="951" y="46"/>
      <point x="840" y="-7" type="qcurve"/>
      <point x="748" y="-76"/>
      <point x="683" y="-170"/>
      <point x="683" y="-214" type="qcurve" smooth="yes"/>
      <point x="683" y="-252" name="inserted"/>
      <point x="721" y="-290"/>
      <point x="760" y="-290" type="qcurve" smooth="yes"/>
      <point x="784" y="-290" name="inserted"/>
      <point x="831" y="-275"/>
      <point x="854" y="-260" type="qcurve"/>
      <point x="868" y="-335" type="line"/>
      <point x="838" y="-355" name="inserted"/>
      <point x="774" y="-375"/>
      <point x="739" y="-375" type="qcurve" smooth="yes"/>
      <point x="667" y="-375"/>
      <point x="586" y="-295"/>
      <point x="586" y="-223" type="qcurve" smooth="yes"/>
      <point x="586" y="-180" name="inserted"/>
      <point x="631" y="-94"/>
      <point x="677" y="-51" type="qcurve"/>
      <point x="607" y="-56" type="line"/>
      <point x="400" y="-56"/>
      <point x="150" y="170"/>
      <point x="146" y="370" type="qcurve" smooth="yes"/>
      <point x="146" y="1273" type="line"/>
      <point x="256" y="1273" type="line"/>
      <point x="256" y="386" type="line" smooth="yes"/>
      <point x="256" y="221"/>
      <point x="445" y="38"/>
      <point x="607" y="38" type="qcurve" smooth="yes" name="inserted"/>
      <point x="769" y="38"/>
      <point x="957" y="222"/>
      <point x="957" y="386" type="qcurve" smooth="yes"/>
      <point x="957" y="1273" type="line"/>
    </contour>
  </outline>
</glyph>
<glyph name="uogonek" format="1">
  <advance width="1013"/>
  <unicode hex="0173"/>
  <outline>
    <contour>
      <point x="868" y="-41" type="line"/>
      <point x="773" y="-113"/>
      <point x="707" y="-208"/>
      <point x="707" y="-252" type="qcurve" smooth="yes"/>
      <point x="707" y="-290" name="inserted"/>
      <point x="745" y="-328"/>
      <point x="783" y="-328" type="qcurve" smooth="yes"/>
      <point x="807" y="-328" name="inserted"/>
      <point x="855" y="-313"/>
      <point x="878" y="-298" type="qcurve"/>
      <point x="891" y="-373" type="line"/>
      <point x="862" y="-393" name="inserted"/>
      <point x="797" y="-413"/>
      <point x="762" y="-413" type="qcurve" smooth="yes"/>
      <point x="690" y="-413"/>
      <point x="609" y="-333"/>
      <point x="609" y="-261" type="qcurve" smooth="yes"/>
      <point x="609" y="-202"/>
      <point x="694" y="-85"/>
      <point x="769" y="-36" type="qcurve"/>
      <point x="767" y="82" type="line"/>
      <point x="718" y="11" name="inserted"/>
      <point x="563" y="-59"/>
      <point x="456" y="-59" type="qcurve" smooth="yes"/>
      <point x="301" y="-59"/>
      <point x="139" y="122"/>
      <point x="137" y="299" type="qcurve" smooth="yes"/>
      <point x="137" y="933" type="line"/>
      <point x="244" y="933" type="line"/>
      <point x="244" y="312" type="line" smooth="yes"/>
      <point x="244" y="173" name="inserted"/>
      <point x="356" y="34"/>
      <point x="469" y="34" type="qcurve" smooth="yes"/>
      <point x="586" y="34" name="inserted"/>
      <point x="734" y="131"/>
      <point x="765" y="228" type="qcurve"/>
      <point x="765" y="933" type="line"/>
      <point x="873" y="933" type="line"/>
      <point x="873" y="-41" type="line"/>
    </contour>
  </outline>
</glyph>
<glyph name="florin" format="1">
  <advance width="603.0"/>
  <unicode hex="0192"/>
  <outline>
    <contour>
      <point x="540" y="842" type="line"/>
      <point x="320" y="842" type="line"/>
      <point x="320" y="-124" type="line" smooth="yes"/>
      <point x="320" y="-277"/>
      <point x="176" y="-437"/>
      <point x="47" y="-437" type="qcurve" smooth="yes"/>
      <point x="22" y="-437" name="inserted"/>
      <point x="-28" y="-428"/>
      <point x="-53" y="-420" type="qcurve"/>
      <point x="-41" y="-331" type="line"/>
      <point x="-24" y="-338" name="inserted"/>
      <point x="20" y="-345"/>
      <point x="47" y="-345" type="qcurve" smooth="yes"/>
      <point x="126" y="-345"/>
      <point x="212" y="-230"/>
      <point x="212" y="-124" type="qcurve" smooth="yes"/>
      <point x="212" y="842" type="line"/>
      <point x="50" y="842" type="line"/>
      <point x="50" y="930" type="line"/>
      <point x="212" y="930" type="line"/>
      <point x="212" y="1048" type="line" smooth="yes"/>
      <point x="212" y="1125" name="inserted"/>
      <point x="252" y="1243"/>
      <point x="293" y="1284" type="qcurve" smooth="yes"/>
      <point x="329" y="1321" name="inserted"/>
      <point x="429" y="1358"/>
      <point x="491" y="1358" type="qcurve" smooth="yes"/>
      <point x="520" y="1358" name="inserted"/>
      <point x="581" y="1349"/>
      <point x="614" y="1341" type="qcurve"/>
      <point x="600" y="1251" type="line"/>
      <point x="580" y="1257" name="inserted"/>
      <point x="531" y="1263"/>
      <point x="502" y="1263" type="qcurve" smooth="yes"/>
      <point x="414" y="1263"/>
      <point x="320" y="1152"/>
      <point x="320" y="1051" type="qcurve" smooth="yes"/>
      <point x="320" y="930" type="line"/>
      <point x="540" y="930" type="line"/>
    </contour>
  </outline>
</glyph>
<glyph name="circumflex" format="1">
  <advance width="792.0"/>
  <unicode hex="02C6"/>
  <outline>
    <contour>
      <point x="644" y="1267" type="line"/>
      <point x="644" y="1258" type="line"/>
      <point x="544" y="1258" type="line"/>
      <point x="392" y="1423" type="line"/>
      <point x="242" y="1258" type="line"/>
      <point x="144" y="1258" type="line"/>
      <point x="144" y="1270" type="line"/>
      <point x="358" y="1499" type="line"/>
      <point x="427" y="1499" type="line"/>
    </contour>
  </outline>
</glyph>
<glyph name="caron" format="1">
  <advance width="752"/>
  <unicode hex="02C7"/>
  <outline>
    <contour>
      <point x="375" y="1318" type="line"/>
      <point x="530" y="1493" type="line"/>
      <point x="626" y="1493" type="line"/>
      <point x="626" y="1482" type="line"/>
      <point x="413" y="1247" type="line"/>
      <point x="336" y="1247" type="line"/>
      <point x="124" y="1483" type="line"/>
      <point x="124" y="1493" type="line"/>
      <point x="221" y="1493" type="line"/>
    </contour>
  </outline>
</glyph>
<glyph name="breve" format="1">
  <advance width="779"/>
  <unicode hex="02D8"/>
  <outline>
    <contour>
      <point x="644" y="1464" type="line"/>
      <point x="644" y="1361"/>
      <point x="503" y="1233"/>
      <point x="384" y="1233" type="qcurve" smooth="yes"/>
      <point x="267" y="1233"/>
      <point x="124" y="1360"/>
      <point x="124" y="1464" type="qcurve"/>
      <point x="216" y="1464" type="line"/>
      <point x="216" y="1390"/>
      <point x="305" y="1310"/>
      <point x="384" y="1310" type="qcurve" smooth="yes" name="inserted"/>
      <point x="464" y="1310"/>
      <point x="553" y="1393"/>
      <point x="553" y="1464" type="qcurve"/>
    </contour>
  </outline>
</glyph>
<glyph name="dotaccent" format="1">
  <advance width="413"/>
  <unicode hex="02D9"/>
  <outline>
    <contour>
      <point x="133" y="1374" type="qcurve" smooth="yes"/>
      <point x="133" y="1405"/>
      <point x="173" y="1447"/>
      <point x="207" y="1447" type="qcurve" smooth="yes"/>
      <point x="242" y="1447"/>
      <point x="282" y="1405"/>
      <point x="282" y="1374" type="qcurve" smooth="yes"/>
      <point x="282" y="1344"/>
      <point x="242" y="1303"/>
      <point x="207" y="1303" type="qcurve" smooth="yes"/>
      <point x="173" y="1303"/>
      <point x="133" y="1344"/>
    </contour>
  </outline>
</glyph>
<glyph name="ring" format="1">
  <advance width="572"/>
  <unicode hex="02DA"/>
  <outline>
    <contour>
      <point x="105" y="1376" type="qcurve" smooth="yes"/>
      <point x="105" y="1448"/>
      <point x="207" y="1547"/>
      <point x="279" y="1547" type="qcurve" smooth="yes"/>
      <point x="350" y="1547"/>
      <point x="453" y="1448"/>
      <point x="453" y="1376" type="qcurve" smooth="yes"/>
      <point x="453" y="1305"/>
      <point x="354" y="1208"/>
      <point x="279" y="1208" type="qcurve" smooth="yes" name="inserted"/>
      <point x="204" y="1208"/>
      <point x="105" y="1305"/>
    </contour>
    <contour>
      <point x="175" y="1376" type="qcurve" smooth="yes"/>
      <point x="175" y="1331"/>
      <point x="234" y="1272"/>
      <point x="279" y="1272" type="qcurve" smooth="yes"/>
      <point x="323" y="1272"/>
      <point x="384" y="1330"/>
      <point x="384" y="1376" type="qcurve" smooth="yes"/>
      <point x="384" y="1424"/>
      <point x="321" y="1483"/>
      <point x="279" y="1483" type="qcurve" smooth="yes"/>
      <point x="235" y="1483"/>
      <point x="175" y="1422"/>
    </contour>
  </outline>
</glyph>
<glyph name="ogonek" format="1">
  <advance width="461"/>
  <unicode hex="02DB"/>
  <outline>
    <contour>
      <point x="312" y="-41" type="line"/>
      <point x="218" y="-113"/>
      <point x="151" y="-208"/>
      <point x="151" y="-252" type="qcurve" smooth="yes"/>
      <point x="151" y="-290" name="inserted"/>
      <point x="189" y="-328"/>
      <point x="228" y="-328" type="qcurve" smooth="yes"/>
      <point x="252" y="-328" name="inserted"/>
      <point x="299" y="-313"/>
      <point x="322" y="-298" type="qcurve"/>
      <point x="336" y="-373" type="line"/>
      <point x="306" y="-393" name="inserted"/>
      <point x="242" y="-413"/>
      <point x="207" y="-413" type="qcurve" smooth="yes"/>
      <point x="135" y="-413"/>
      <point x="54" y="-333"/>
      <point x="54" y="-261" type="qcurve" smooth="yes"/>
      <point x="54" y="-194"/>
      <point x="166" y="-60"/>
      <point x="259" y="-8" type="qcurve"/>
    </contour>
  </outline>
</glyph>
<glyph name="tilde" format="1">
  <advance width="802"/>
  <unicode hex="02DC"/>
  <outline>
    <contour>
      <point x="701" y="1463" type="line"/>
      <point x="701" y="1377"/>
      <point x="599" y="1271"/>
      <point x="526" y="1271" type="qcurve" smooth="yes"/>
      <point x="457" y="1271"/>
      <point x="327" y="1370"/>
      <point x="275" y="1370" type="qcurve" smooth="yes"/>
      <point x="233" y="1370"/>
      <point x="176" y="1314"/>
      <point x="176" y="1264" type="qcurve"/>
      <point x="95" y="1267" type="line"/>
      <point x="95" y="1350"/>
      <point x="194" y="1458"/>
      <point x="271" y="1458" type="qcurve" smooth="yes"/>
      <point x="314" y="1458"/>
      <point x="375" y="1427"/>
      <point x="402" y="1408" type="qcurve" smooth="yes" name="inserted"/>
      <point x="429" y="1389"/>
      <point x="484" y="1359"/>
      <point x="521" y="1359" type="qcurve" smooth="yes"/>
      <point x="563" y="1359"/>
      <point x="621" y="1418"/>
      <point x="621" y="1468" type="qcurve"/>
    </contour>
  </outline>
</glyph>
<glyph name="hungarumlaut" format="1">
  <advance width="696"/>
  <unicode hex="02DD"/>
  <outline>
    <contour>
      <point x="570" y="1505" type="line"/>
      <point x="699" y="1505" type="line"/>
      <point x="448" y="1232" type="line"/>
      <point x="339" y="1232" type="line"/>
    </contour>
    <contour>
      <point x="291" y="1505" type="line"/>
      <point x="414" y="1505" type="line"/>
      <point x="206" y="1232" type="line"/>
      <point x="108" y="1232" type="line"/>
    </contour>
  </outline>
</glyph>
<glyph name="pi" format="1">
  <advance width="1097"/>
  <unicode hex="03C0"/>
  <outline>
    <contour>
      <point x="1020" y="880" type="line"/>
      <point x="853" y="880" type="line"/>
      <point x="853" y="245" type="line" smooth="yes"/>
      <point x="853" y="164"/>
      <point x="911" y="85"/>
      <point x="980" y="85" type="qcurve" smooth="yes"/>
      <point x="1001" y="85" name="inserted"/>
      <point x="1045" y="89"/>
      <point x="1067" y="94" type="qcurve"/>
      <point x="1072" y="4" type="line"/>
      <point x="1047" y="-3" name="inserted"/>
      <point x="990" y="-10"/>
      <point x="957" y="-10" type="qcurve" smooth="yes"/>
      <point x="848" y="-10"/>
      <point x="747" y="114"/>
      <point x="745" y="235" type="qcurve" smooth="yes"/>
      <point x="745" y="880" type="line"/>
      <point x="318" y="880" type="line"/>
      <point x="318" y="-1" type="line"/>
      <point x="210" y="-1" type="line"/>
      <point x="210" y="880" type="line"/>
      <point x="46" y="880" type="line"/>
      <point x="46" y="973" type="line"/>
      <point x="1020" y="973" type="line"/>
    </contour>
  </outline>
</glyph>
<glyph name="invertedcandrabindu" format="1">
  <advance width="0"/>
  <unicode hex="0900"/>
  <outline>
    <component base="candrabindudeva" xScale="-1.0" yScale="-1.0" xOffset="-1065" yOffset="3207"/>
    <contour>
      <point x="-371.0" y="1279.0" type="move" name="_top"/>
    </contour>
  </outline>
</glyph>
<glyph name="anusvaradeva" format="1">
  <advance width="0"/>
  <unicode hex="0902"/>
  <outline>
    <contour>
      <point x="-223" y="1478" type="line"/>
      <point x="-340" y="1478" type="line"/>
      <point x="-340" y="1641" type="line"/>
      <point x="-223" y="1641" type="line"/>
    </contour>
    <contour>
      <point x="-345.0" y="1271.0" type="move" name="_top"/>
    </contour>
  </outline>
</glyph>
<glyph name="ideva" format="1">
  <advance width="1017"/>
  <unicode hex="0907"/>
  <outline>
    <contour>
      <point x="1047" y="1188" type="line"/>
      <point x="-30" y="1188" type="line"/>
      <point x="-30" y="1276" type="line"/>
      <point x="1047" y="1276" type="line"/>
    </contour>
    <contour>
      <point x="572" y="-213" type="line"/>
      <point x="347" y="81" type="line"/>
      <point x="444" y="43" type="line"/>
      <point x="376" y="43" type="line"/>
      <point x="286" y="43"/>
      <point x="158" y="102"/>
      <point x="158" y="148" type="qcurve" smooth="yes"/>
      <point x="158" y="194"/>
      <point x="215" y="251"/>
      <point x="258" y="251" type="qcurve" smooth="yes"/>
      <point x="305" y="251"/>
      <point x="389" y="192"/>
      <point x="441" y="124" type="qcurve"/>
      <point x="445" y="103" type="line"/>
      <point x="653" y="-170" type="line"/>
    </contour>
    <contour>
      <point x="433" y="951" type="qcurve" smooth="yes"/>
      <point x="718" y="951" type="line"/>
      <point x="673" y="907" type="line"/>
      <point x="673" y="1229" type="line"/>
      <point x="777" y="1229" type="line"/>
      <point x="777" y="863" type="line"/>
      <point x="435" y="863" type="line"/>
      <point x="331" y="863"/>
      <point x="222" y="779"/>
      <point x="222" y="705" type="qcurve" smooth="yes"/>
      <point x="222" y="642"/>
      <point x="309" y="548"/>
      <point x="389" y="534" type="qcurve"/>
      <point x="304" y="534" type="line"/>
      <point x="362" y="571"/>
      <point x="497" y="613"/>
      <point x="570" y="613" type="qcurve" smooth="yes"/>
      <point x="711" y="613"/>
      <point x="882" y="465"/>
      <point x="882" y="346" type="qcurve" smooth="yes"/>
      <point x="882" y="213"/>
      <point x="660" y="45"/>
      <point x="480" y="45" type="qcurve" smooth="yes"/>
      <point x="394" y="45"/>
      <point x="287" y="76"/>
      <point x="230" y="102" type="qcurve"/>
      <point x="253" y="184" type="line"/>
      <point x="300" y="160"/>
      <point x="418" y="130"/>
      <point x="474" y="130" type="qcurve" smooth="yes"/>
      <point x="612" y="130"/>
      <point x="778" y="253"/>
      <point x="778" y="350" type="qcurve" smooth="yes"/>
      <point x="778" y="431"/>
      <point x="664" y="525"/>
      <point x="573" y="525" type="qcurve" smooth="yes"/>
      <point x="502" y="525"/>
      <point x="387" y="485"/>
      <point x="346" y="456" type="qcurve"/>
      <point x="332" y="456" type="line"/>
      <point x="245" y="480"/>
      <point x="120" y="624"/>
      <point x="120" y="717" type="qcurve" smooth="yes"/>
      <point x="120" y="820"/>
      <point x="282" y="951"/>
    </contour>
  </outline>
</glyph>
<glyph name="udeva" format="1">
  <advance width="916"/>
  <unicode hex="0909"/>
  <outline>
    <contour>
      <point x="-30" y="1188" type="line"/>
      <point x="-30" y="1276" type="line"/>
      <point x="946" y="1276" type="line"/>
      <point x="946" y="1188" type="line"/>
    </contour>
    <contour>
      <point x="212" y="657" type="line"/>
      <point x="212" y="747" type="line"/>
      <point x="223" y="747" type="line"/>
      <point x="418" y="747"/>
      <point x="582" y="875"/>
      <point x="582" y="990" type="qcurve" smooth="yes"/>
      <point x="582" y="1078"/>
      <point x="470" y="1189"/>
      <point x="351" y="1189" type="qcurve" smooth="yes"/>
      <point x="131" y="1189" type="line"/>
      <point x="119" y="1267" type="line"/>
      <point x="351" y="1267" type="line"/>
      <point x="499" y="1267"/>
      <point x="679" y="1117"/>
      <point x="679" y="987" type="qcurve" smooth="yes"/>
      <point x="679" y="829"/>
      <point x="455" y="657"/>
      <point x="234" y="657" type="qcurve" smooth="yes"/>
    </contour>
    <contour>
      <point x="366" y="750" type="line"/>
      <point x="544" y="757"/>
      <point x="767" y="554"/>
      <point x="767" y="415" type="qcurve" smooth="yes"/>
      <point x="767" y="254"/>
      <point x="567" y="73"/>
      <point x="390" y="73" type="qcurve" smooth="yes"/>
      <point x="310" y="73"/>
      <point x="159" y="112"/>
      <point x="71" y="148" type="qcurve"/>
      <point x="87" y="238" type="line"/>
      <point x="171" y="199"/>
      <point x="305" y="164"/>
      <point x="380" y="164" type="qcurve" smooth="yes"/>
      <point x="522" y="164"/>
      <point x="668" y="302"/>
      <point x="668" y="422" type="qcurve" smooth="yes"/>
      <point x="668" y="520"/>
      <point x="501" y="672"/>
      <point x="345" y="672" type="qcurve"/>
    </contour>
    <contour>
      <point x="483.0" y="1271.0" type="move" name="top"/>
    </contour>
  </outline>
</glyph>
<glyph name="lvocalicdeva" format="1">
  <advance width="1405"/>
  <unicode hex="090C"/>
  <outline>
    <contour>
      <point x="1060" y="1219" type="line"/>
      <point x="1164" y="1219" type="line"/>
      <point x="1164" y="773" type="line"/>
      <point x="1060" y="773" type="line"/>
    </contour>
    <contour>
      <point x="-30" y="1188" type="line"/>
      <point x="-30" y="1276" type="line"/>
      <point x="1435" y="1276" type="line"/>
      <point x="1435" y="1188" type="line"/>
    </contour>
    <contour>
      <point x="740" y="519" type="qcurve"/>
      <point x="647" y="472" type="line"/>
      <point x="639" y="624"/>
      <point x="486" y="774"/>
      <point x="396" y="774" type="qcurve" smooth="yes"/>
      <point x="317" y="774"/>
      <point x="199" y="646"/>
      <point x="199" y="532" type="qcurve" smooth="yes"/>
      <point x="199" y="414"/>
      <point x="294" y="209"/>
      <point x="397" y="87" type="qcurve"/>
      <point x="311" y="50" type="line"/>
      <point x="204" y="175"/>
      <point x="96" y="408"/>
      <point x="96" y="542" type="qcurve" smooth="yes"/>
      <point x="96" y="686"/>
      <point x="262" y="870"/>
      <point x="387" y="870" type="qcurve" smooth="yes"/>
      <point x="530" y="870"/>
      <point x="728" y="683"/>
    </contour>
    <contour>
      <point x="1222" y="425" type="line"/>
      <point x="1165" y="390" type="line"/>
      <point x="1171" y="424"/>
      <point x="1184" y="495"/>
      <point x="1184" y="536" type="qcurve" smooth="yes"/>
      <point x="1184" y="647"/>
      <point x="1071" y="781"/>
      <point x="980" y="781" type="qcurve" smooth="yes"/>
      <point x="891" y="781"/>
      <point x="749" y="623"/>
      <point x="749" y="462" type="qcurve" smooth="yes"/>
      <point x="749" y="337" type="line"/>
      <point x="646" y="337" type="line"/>
      <point x="646" y="484" type="line"/>
      <point x="646" y="655"/>
      <point x="839" y="871"/>
      <point x="979" y="871" type="qcurve" smooth="yes"/>
      <point x="1114" y="871"/>
      <point x="1286" y="690"/>
      <point x="1286" y="546" type="qcurve" smooth="yes"/>
      <point x="1286" y="494"/>
      <point x="1267" y="388"/>
      <point x="1255" y="344" type="qcurve"/>
      <point x="1201" y="344" type="line"/>
      <point x="1104" y="344"/>
      <point x="1016" y="265"/>
      <point x="1016" y="203" type="qcurve" smooth="yes"/>
      <point x="1016" y="140"/>
      <point x="1112" y="63"/>
      <point x="1187" y="63" type="qcurve" smooth="yes"/>
      <point x="1223" y="63"/>
      <point x="1286" y="75"/>
      <point x="1316" y="85" type="qcurve"/>
      <point x="1328" y="9" type="line"/>
      <point x="1297" y="-3"/>
      <point x="1225" y="-14"/>
      <point x="1187" y="-14" type="qcurve" smooth="yes"/>
      <point x="1062" y="-14"/>
      <point x="919" y="110"/>
      <point x="919" y="211" type="qcurve" smooth="yes"/>
      <point x="919" y="306"/>
      <point x="1062" y="425"/>
      <point x="1182" y="425" type="qcurve" smooth="yes"/>
    </contour>
    <contour>
      <point x="904" y="1265" type="move" name="mark0"/>
    </contour>
  </outline>
</glyph>
<glyph name="gadeva" format="1">
  <advance width="1171"/>
  <unicode hex="0917"/>
  <outline>
    <contour>
      <point x="827" y="1220" type="line"/>
      <point x="931" y="1220" type="line"/>
      <point x="931" y="0" type="line"/>
      <point x="827" y="0" type="line"/>
    </contour>
    <contour>
      <point x="1201" y="1188" type="line"/>
      <point x="-30" y="1188" type="line"/>
      <point x="-30" y="1276" type="line"/>
      <point x="1201" y="1276" type="line"/>
    </contour>
    <contour>
      <point x="383" y="1235" type="line"/>
      <point x="383" y="544" type="line"/>
      <point x="383" y="489"/>
      <point x="346" y="441"/>
      <point x="314" y="441" type="qcurve" smooth="yes"/>
      <point x="255" y="441"/>
      <point x="156" y="559"/>
      <point x="156" y="627" type="qcurve" smooth="yes"/>
      <point x="156" y="662"/>
      <point x="202" y="701"/>
      <point x="247" y="701" type="qcurve" smooth="yes"/>
      <point x="295" y="701" type="line"/>
      <point x="280" y="651" type="line"/>
      <point x="280" y="1235" type="line"/>
    </contour>
    <contour>
      <point x="822.0" y="1271.0" type="move" name="top"/>
    </contour>
  </outline>
</glyph>
<glyph name="ngadeva" format="1">
  <advance width="1183"/>
  <unicode hex="0919"/>
  <outline>
    <contour>
      <point x="958" y="1188" type="line"/>
      <point x="958" y="1276" type="line"/>
      <point x="1213" y="1276" type="line"/>
      <point x="1213" y="1188" type="line"/>
    </contour>
    <contour>
      <point x="1090" y="615" type="line"/>
      <point x="970" y="615" type="line"/>
      <point x="970" y="777" type="line"/>
      <point x="1090" y="777" type="line"/>
    </contour>
    <component base="ddadeva"/>
    <contour>
      <point x="463" y="65" type="move" name="btm"/>
    </contour>
    <contour>
      <point x="676" y="1291" type="move" name="top"/>
    </contour>
  </outline>
</glyph>
<glyph name="cadeva" format="1">
  <advance width="1278"/>
  <unicode hex="091A"/>
  <outline>
    <contour>
      <point x="59" y="765" type="line"/>
      <point x="59" y="853" type="line"/>
      <point x="729" y="853" type="line"/>
      <point x="729" y="765" type="line"/>
    </contour>
    <contour>
      <point x="-30" y="1188" type="line"/>
      <point x="-30" y="1276" type="line"/>
      <point x="1308" y="1276" type="line"/>
      <point x="1308" y="1188" type="line"/>
    </contour>
    <contour>
      <point x="934" y="1222" type="line"/>
      <point x="1037" y="1222" type="line"/>
      <point x="1037" y="0" type="line"/>
      <point x="934" y="0" type="line"/>
    </contour>
    <contour>
      <point x="976" y="366" type="line"/>
      <point x="931" y="321"/>
      <point x="749" y="239"/>
      <point x="640" y="239" type="qcurve" smooth="yes"/>
      <point x="476" y="239"/>
      <point x="271" y="413"/>
      <point x="271" y="551" type="qcurve" smooth="yes"/>
      <point x="271" y="678"/>
      <point x="461" y="850"/>
      <point x="651" y="850" type="qcurve"/>
      <point x="651" y="765" type="line"/>
      <point x="516" y="765"/>
      <point x="375" y="637"/>
      <point x="375" y="542" type="qcurve" smooth="yes"/>
      <point x="375" y="447"/>
      <point x="515" y="331"/>
      <point x="639" y="331" type="qcurve" smooth="yes"/>
      <point x="734" y="331"/>
      <point x="916" y="419"/>
      <point x="976" y="489" type="qcurve"/>
    </contour>
    <contour>
      <point x="926" y="1271" type="move" name="top"/>
    </contour>
  </outline>
</glyph>
<glyph name="jadeva" format="1">
  <advance width="1320"/>
  <unicode hex="091C"/>
  <outline>
    <contour>
      <point x="-30" y="1188" type="line"/>
      <point x="-30" y="1276" type="line"/>
      <point x="1350" y="1276" type="line"/>
      <point x="1350" y="1188" type="line"/>
    </contour>
    <contour>
      <point x="389" y="816" type="line"/>
      <point x="506" y="800"/>
      <point x="691" y="610"/>
      <point x="691" y="477" type="qcurve" smooth="yes"/>
      <point x="691" y="320"/>
      <point x="497" y="135"/>
      <point x="339" y="135" type="qcurve" smooth="yes"/>
      <point x="256" y="135"/>
      <point x="132" y="167"/>
      <point x="62" y="201" type="qcurve"/>
      <point x="83" y="287" type="line"/>
      <point x="153" y="253"/>
      <point x="255" y="226"/>
      <point x="327" y="226" type="qcurve" smooth="yes"/>
      <point x="440" y="227"/>
      <point x="587" y="358"/>
      <point x="587" y="479" type="qcurve" smooth="yes"/>
      <point x="587" y="594"/>
      <point x="400" y="768"/>
      <point x="263" y="768" type="qcurve" smooth="yes"/>
      <point x="186" y="768" type="line"/>
      <point x="186" y="856" type="line"/>
      <point x="1020" y="856" type="line"/>
      <point x="1020" y="768" type="line"/>
      <point x="388" y="768" type="line"/>
    </contour>
    <contour>
      <point x="976" y="1220" type="line"/>
      <point x="1079" y="1220" type="line"/>
      <point x="1079" y="0" type="line"/>
      <point x="976" y="0" type="line"/>
    </contour>
    <contour>
      <point x="972" y="1271" type="move" name="top"/>
    </contour>
  </outline>
</glyph>
<glyph name="jhadeva" format="1">
  <advance width="1554"/>
  <unicode hex="091D"/>
  <outline>
    <contour>
      <point x="810" y="483" type="line"/>
      <point x="1263" y="483" type="line"/>
      <point x="1263" y="394" type="line"/>
      <point x="834" y="394" type="line"/>
    </contour>
    <component base="ideva" xOffset="11"/>
    <component base="aavowelsigndeva" xOffset="1026"/>
    <contour>
      <point x="1208.0" y="1271.0" type="move" name="top"/>
    </contour>
  </outline>
</glyph>
<glyph name="ttadeva" format="1">
  <advance width="1003"/>
  <unicode hex="091F"/>
  <outline>
    <contour>
      <point x="1033" y="1188" type="line"/>
      <point x="-30" y="1188" type="line"/>
      <point x="-30" y="1276" type="line"/>
      <point x="1033" y="1276" type="line"/>
    </contour>
    <contour>
      <point x="75" y="515" type="qcurve" smooth="yes"/>
      <point x="75" y="685"/>
      <point x="312" y="895"/>
      <point x="521" y="895" type="qcurve" smooth="yes"/>
      <point x="682" y="895" type="line"/>
      <point x="658" y="859" type="line"/>
      <point x="658" y="1221" type="line"/>
      <point x="762" y="1221" type="line"/>
      <point x="762" y="807" type="line"/>
      <point x="540" y="807" type="line"/>
      <point x="371" y="807"/>
      <point x="178" y="645"/>
      <point x="178" y="510" type="qcurve" smooth="yes"/>
      <point x="178" y="361"/>
      <point x="404" y="196"/>
      <point x="563" y="196" type="qcurve" smooth="yes"/>
      <point x="649" y="196"/>
      <point x="760" y="217"/>
      <point x="829" y="240" type="qcurve"/>
      <point x="838" y="147" type="line"/>
      <point x="773" y="126"/>
      <point x="659" y="103"/>
      <point x="567" y="103" type="qcurve" smooth="yes"/>
      <point x="357" y="103"/>
      <point x="75" y="323"/>
    </contour>
    <contour>
      <point x="470.0" y="52.0" type="move" name="btm"/>
    </contour>
    <contour>
      <point x="644.0" y="1271.0" type="move" name="top"/>
    </contour>
  </outline>
</glyph>
<glyph name="tthadeva" format="1">
  <advance width="1154"/>
  <unicode hex="0920"/>
  <outline>
    <contour>
      <point x="1184" y="1188" type="line"/>
      <point x="-30" y="1188" type="line"/>
      <point x="-30" y="1276" type="line"/>
      <point x="1184" y="1276" type="line"/>
    </contour>
    <contour>
      <point x="860" y="799" type="line"/>
      <point x="559" y="799" type="line"/>
      <point x="393" y="799"/>
      <point x="193" y="645"/>
      <point x="193" y="504" type="qcurve" smooth="yes"/>
      <point x="193" y="364"/>
      <point x="399" y="184"/>
      <point x="562" y="184" type="qcurve" smooth="yes"/>
      <point x="737" y="184"/>
      <point x="938" y="356"/>
      <point x="938" y="496" type="qcurve" smooth="yes"/>
      <point x="938" y="592"/>
      <point x="864" y="748"/>
      <point x="786" y="810" type="qcurve"/>
      <point x="874" y="865" type="line"/>
      <point x="947" y="797"/>
      <point x="1038" y="612"/>
      <point x="1038" y="494" type="qcurve" smooth="yes"/>
      <point x="1039" y="319"/>
      <point x="785" y="93"/>
      <point x="571" y="93" type="qcurve" smooth="yes"/>
      <point x="353" y="93"/>
      <point x="91" y="329"/>
      <point x="91" y="510" type="qcurve" smooth="yes"/>
      <point x="91" y="689"/>
      <point x="350" y="887"/>
      <point x="535" y="887" type="qcurve" smooth="yes"/>
      <point x="840" y="887" type="line"/>
      <point x="810" y="853" type="line"/>
      <point x="810" y="1217" type="line"/>
      <point x="913" y="1217" type="line"/>
      <point x="913" y="799" type="line"/>
    </contour>
    <contour>
      <point x="510.0" y="52.0" type="move" name="btm"/>
    </contour>
    <contour>
      <point x="773.0" y="1271.0" type="move" name="top"/>
    </contour>
  </outline>
</glyph>
<glyph name="ddadeva" format="1">
  <advance width="1046"/>
  <unicode hex="0921"/>
  <outline>
    <contour>
      <point x="701" y="1229" type="line"/>
      <point x="806" y="1229" type="line"/>
      <point x="806" y="863" type="line"/>
      <point x="446" y="863" type="line"/>
      <point x="344" y="863"/>
      <point x="239" y="780"/>
      <point x="239" y="706" type="qcurve" smooth="yes"/>
      <point x="239" y="639"/>
      <point x="332" y="545"/>
      <point x="410" y="532" type="qcurve"/>
      <point x="321" y="532" type="line"/>
      <point x="397" y="574"/>
      <point x="522" y="612"/>
      <point x="599" y="612" type="qcurve" smooth="yes"/>
      <point x="743" y="612"/>
      <point x="915" y="460"/>
      <point x="915" y="342" type="qcurve" smooth="yes"/>
      <point x="915" y="208"/>
      <point x="705" y="48"/>
      <point x="526" y="48" type="qcurve" smooth="yes"/>
      <point x="422" y="48"/>
      <point x="210" y="109"/>
      <point x="112" y="162" type="qcurve"/>
      <point x="135" y="253" type="line"/>
      <point x="222" y="199"/>
      <point x="432" y="134"/>
      <point x="519" y="134" type="qcurve" smooth="yes"/>
      <point x="657" y="134"/>
      <point x="814" y="249"/>
      <point x="814" y="347" type="qcurve" smooth="yes"/>
      <point x="814" y="426"/>
      <point x="697" y="526"/>
      <point x="602" y="526" type="qcurve" smooth="yes"/>
      <point x="530" y="526"/>
      <point x="410" y="487"/>
      <point x="363" y="454" type="qcurve"/>
      <point x="349" y="454" type="line"/>
      <point x="264" y="477"/>
      <point x="138" y="623"/>
      <point x="138" y="718" type="qcurve" smooth="yes"/>
      <point x="138" y="820"/>
      <point x="298" y="951"/>
      <point x="444" y="951" type="qcurve" smooth="yes"/>
      <point x="746" y="951" type="line"/>
      <point x="701" y="907" type="line"/>
    </contour>
    <contour>
      <point x="1076" y="1188" type="line"/>
      <point x="-30" y="1188" type="line"/>
      <point x="-30" y="1276" type="line"/>
      <point x="1076" y="1276" type="line"/>
    </contour>
    <contour>
      <point x="466.0" y="38.0" type="move" name="btm"/>
    </contour>
    <contour>
      <point x="693.0" y="1271.0" type="move" name="top"/>
    </contour>
  </outline>
</glyph>
<glyph name="nnadeva" format="1">
  <advance width="1431"/>
  <unicode hex="0923"/>
  <outline>
    <contour>
      <point x="647" y="1222" type="line"/>
      <point x="751" y="1222" type="line"/>
      <point x="751" y="769" type="line"/>
      <point x="751" y="616"/>
      <point x="607" y="441"/>
      <point x="460" y="441" type="qcurve" smooth="yes"/>
      <point x="319" y="441"/>
      <point x="159" y="613"/>
      <point x="159" y="768" type="qcurve" smooth="yes"/>
      <point x="159" y="1222" type="line"/>
      <point x="263" y="1222" type="line"/>
      <point x="263" y="763" type="line"/>
      <point x="263" y="645"/>
      <point x="367" y="530"/>
      <point x="453" y="530" type="qcurve" smooth="yes"/>
      <point x="547" y="530"/>
      <point x="647" y="646"/>
      <point x="647" y="769" type="qcurve" smooth="yes"/>
    </contour>
    <contour>
      <point x="-30" y="1276" type="line"/>
      <point x="1461" y="1276" type="line"/>
      <point x="1461" y="1188" type="line"/>
      <point x="-30" y="1188" type="line"/>
    </contour>
    <contour>
      <point x="1087" y="1219" type="line"/>
      <point x="1190" y="1219" type="line"/>
      <point x="1190" y="0" type="line"/>
      <point x="1087" y="0" type="line"/>
    </contour>
    <contour>
      <point x="699.0" y="1271.0" type="move" name="top"/>
    </contour>
  </outline>
</glyph>
<glyph name="dadeva" format="1">
  <advance width="1013"/>
  <unicode hex="0926"/>
  <outline>
    <contour>
      <point x="1043" y="1188" type="line"/>
      <point x="-30" y="1188" type="line"/>
      <point x="-30" y="1276" type="line"/>
      <point x="1043" y="1276" type="line"/>
    </contour>
    <contour>
      <point x="644" y="210" type="line"/>
      <point x="729" y="243" type="line"/>
      <point x="870" y="-112" type="line"/>
      <point x="776" y="-134" type="line"/>
    </contour>
    <contour>
      <point x="102" y="550" type="qcurve" smooth="yes"/>
      <point x="102" y="702"/>
      <point x="328" y="893"/>
      <point x="519" y="893" type="qcurve" smooth="yes"/>
      <point x="713" y="893" type="line"/>
      <point x="669" y="844" type="line"/>
      <point x="669" y="1232" type="line"/>
      <point x="773" y="1232" type="line"/>
      <point x="773" y="805" type="line"/>
      <point x="533" y="805" type="line"/>
      <point x="373" y="805"/>
      <point x="204" y="657"/>
      <point x="204" y="541" type="qcurve" smooth="yes"/>
      <point x="204" y="417"/>
      <point x="392" y="258"/>
      <point x="535" y="258" type="qcurve" smooth="yes"/>
      <point x="565" y="258"/>
      <point x="644" y="266"/>
      <point x="677" y="274" type="qcurve"/>
      <point x="637" y="227" type="line"/>
      <point x="630" y="245"/>
      <point x="617" y="279"/>
      <point x="617" y="309" type="qcurve" smooth="yes"/>
      <point x="618" y="345"/>
      <point x="675" y="403"/>
      <point x="733" y="403" type="qcurve" smooth="yes"/>
      <point x="789" y="403"/>
      <point x="855" y="341"/>
      <point x="855" y="304" type="qcurve" smooth="yes"/>
      <point x="854" y="249"/>
      <point x="698" y="169"/>
      <point x="552" y="169" type="qcurve" smooth="yes"/>
      <point x="356" y="169"/>
      <point x="102" y="377"/>
    </contour>
    <contour>
      <point x="773.0" y="-124.0" type="move" name="btm"/>
    </contour>
    <contour>
      <point x="649.0" y="1271.0" type="move" name="top"/>
    </contour>
  </outline>
</glyph>
<glyph name="dhadeva" format="1">
  <advance width="1240"/>
  <unicode hex="0927"/>
  <outline>
    <contour>
      <point x="896" y="1231" type="line"/>
      <point x="1000" y="1231" type="line"/>
      <point x="1000" y="0" type="line"/>
      <point x="896" y="0" type="line"/>
    </contour>
    <contour>
      <point x="546" y="210" type="qcurve" smooth="yes"/>
      <point x="367" y="210"/>
      <point x="155" y="387"/>
      <point x="155" y="532" type="qcurve" smooth="yes"/>
      <point x="155" y="661"/>
      <point x="363" y="830"/>
      <point x="552" y="830" type="qcurve" smooth="yes"/>
      <point x="644" y="830" type="line"/>
      <point x="650" y="742" type="line"/>
      <point x="551" y="742" type="line"/>
      <point x="409" y="742"/>
      <point x="258" y="623"/>
      <point x="258" y="526" type="qcurve" smooth="yes"/>
      <point x="258" y="426"/>
      <point x="409" y="299"/>
      <point x="544" y="299" type="qcurve" smooth="yes"/>
      <point x="652" y="299"/>
      <point x="846" y="372"/>
      <point x="925" y="438" type="qcurve"/>
      <point x="922" y="327" type="line"/>
      <point x="854" y="279"/>
      <point x="663" y="210"/>
    </contour>
    <contour>
      <point x="1270" y="1188" type="line"/>
      <point x="763" y="1188" type="line"/>
      <point x="763" y="1276" type="line"/>
      <point x="1270" y="1276" type="line"/>
    </contour>
    <contour>
      <point x="230" y="1040" type="qcurve" smooth="yes"/>
      <point x="230" y="952"/>
      <point x="387" y="830"/>
      <point x="475" y="830" type="qcurve" smooth="yes"/>
      <point x="573" y="830" type="line"/>
      <point x="573" y="748" type="line"/>
      <point x="477" y="748" type="line"/>
      <point x="348" y="748"/>
      <point x="128" y="919"/>
      <point x="128" y="1050" type="qcurve" smooth="yes"/>
      <point x="128" y="1152"/>
      <point x="269" y="1289"/>
      <point x="384" y="1289" type="qcurve" smooth="yes"/>
      <point x="433" y="1289"/>
      <point x="524" y="1268"/>
      <point x="565" y="1243" type="qcurve"/>
      <point x="552" y="1162" type="line"/>
      <point x="513" y="1186"/>
      <point x="440" y="1203"/>
      <point x="397" y="1203" type="qcurve" smooth="yes"/>
      <point x="323" y="1202"/>
      <point x="230" y="1115"/>
    </contour>
    <contour>
      <point x="875.0" y="1271.0" type="move" name="top"/>
    </contour>
  </outline>
</glyph>
<glyph name="padeva" format="1">
  <advance width="1055"/>
  <unicode hex="092A"/>
  <outline>
    <contour>
      <point x="1085" y="1188" type="line"/>
      <point x="-30" y="1188" type="line"/>
      <point x="-30" y="1276" type="line"/>
      <point x="1085" y="1276" type="line"/>
    </contour>
    <contour>
      <point x="252" y="1226" type="line"/>
      <point x="252" y="800" type="line"/>
      <point x="252" y="659"/>
      <point x="371" y="541"/>
      <point x="464" y="541" type="qcurve" smooth="yes"/>
      <point x="550" y="541"/>
      <point x="696" y="614"/>
      <point x="755" y="699" type="qcurve"/>
      <point x="755" y="576" type="line"/>
      <point x="710" y="519"/>
      <point x="560" y="453"/>
      <point x="467" y="453" type="qcurve" smooth="yes"/>
      <point x="328" y="453"/>
      <point x="149" y="631"/>
      <point x="149" y="827" type="qcurve" smooth="yes"/>
      <point x="149" y="1226" type="line"/>
    </contour>
    <contour>
      <point x="711" y="1226" type="line"/>
      <point x="814" y="1226" type="line"/>
      <point x="814" y="0" type="line"/>
      <point x="711" y="0" type="line"/>
    </contour>
    <contour>
      <point x="705" y="1271" type="move" name="top"/>
    </contour>
  </outline>
</glyph>
<glyph name="bhadeva" format="1">
  <advance width="1112"/>
  <unicode hex="092D"/>
  <outline>
    <contour>
      <point x="768" y="1220" type="line"/>
      <point x="871" y="1220" type="line"/>
      <point x="871" y="0" type="line"/>
      <point x="768" y="0" type="line"/>
    </contour>
    <contour>
      <point x="306" y="688" type="line"/>
      <point x="822" y="688" type="line"/>
      <point x="822" y="598" type="line"/>
      <point x="306" y="598" type="line"/>
    </contour>
    <contour>
      <point x="1142" y="1188" type="line"/>
      <point x="635" y="1188" type="line"/>
      <point x="635" y="1276" type="line"/>
      <point x="1142" y="1276" type="line"/>
    </contour>
    <contour>
      <point x="371" y="1014" type="qcurve" smooth="yes"/>
      <point x="371" y="531" type="line"/>
      <point x="371" y="477"/>
      <point x="335" y="428"/>
      <point x="302" y="428" type="qcurve" smooth="yes"/>
      <point x="244" y="428"/>
      <point x="145" y="546"/>
      <point x="145" y="614" type="qcurve" smooth="yes"/>
      <point x="145" y="649"/>
      <point x="190" y="688"/>
      <point x="236" y="688" type="qcurve" smooth="yes"/>
      <point x="283" y="688" type="line"/>
      <point x="268" y="639" type="line"/>
      <point x="268" y="1016" type="line"/>
      <point x="268" y="1109"/>
      <point x="198" y="1192"/>
      <point x="152" y="1192" type="qcurve" smooth="yes"/>
      <point x="111" y="1191"/>
      <point x="57" y="1168"/>
      <point x="17" y="1134" type="qcurve"/>
      <point x="-8" y="1216" type="line"/>
      <point x="24" y="1247"/>
      <point x="105" y="1283"/>
      <point x="161" y="1282" type="qcurve" smooth="yes"/>
      <point x="251" y="1281"/>
      <point x="371" y="1148"/>
    </contour>
    <contour>
      <point x="763" y="1271" type="move" name="top"/>
    </contour>
  </outline>
</glyph>
